<svg xmlns="http://www.w3.org/2000/svg" width="102" height="70" fill="none" viewBox="0 0 102 70" preserveAspectRatio="xMidYMid" class="u-no-fill">
  <path fill="url(#a)" fill-rule="evenodd" d="M1.403 32.386s2.296-.38 3.242.61c.947.988.327 3.032-.93 3.067-1.257.033-2.418.265-3.243-.61-.824-.876-.603-2.635.931-3.067zM26.328 46.34c-.221.024-.455-.078-.695-.249-1.646-2.294-2.24-10.14-2.996-10.607-.784-.484-3.622 4.347-9.266 3.828-2.36-.218-4.762-1.747-6.177-2.806.132-1.782.155-5.945 3.67-4.591 2.136.822 5.793 3.08 9.005-.975 3.55-4.484 5.509-3.181 6.684-2.207 1.174.975.392 6.044 2.143 4.627 1.752-1.417 8.824-10.215 8.824-10.215s5.476-5.523 6.315.283c.838 5.805 4.408 12.238 5.355 12.055.947-.183 11.96-22.57 13.539-24.014 1.577-1.445 6.888-1.255 6.635 2.45-.252 3.706-.793 26.735-.793 26.735s-.623 6.49.392 3.022c.42-1.438.873-2.735 1.438-4.249 2.719-8.703 7.349-23.57 9.656-31.23.53-1.834.988-3.408 1.342-4.617v-.003c.138-.56.275-1.005.413-1.401.193-.65.323-1.079.364-1.192.103-.287.392-.505.798-.666.408-.257.846-.27 1.342-.283 1.28-.115 2.927.053 4.408.474.431.018.9.156 1.344.474l.064.041.031.022c.093.064.243.191.417.4.005.007.01.016.017.022.072.088.144.192.218.311.827 1.213 1.335 3.45.826 7.417-1.27 9.898-2.254 30.26-2.254 30.26s-.195.973 1.845-3.315c.072-.15.162-.278.246-.415a1.76 1.76 0 0 0 .387-.361c1.26-1.503 4.649-2.386 6.998-2.368.99.12 1.82.369 2.315.682.928 1.411.38 6.62.38 6.62-1.954.181-5.68 1.233-7.001 1.427-1.321.195-3.328 8.773-6.117 7.895-2.79-.877-9.005-4.775-9.005-5.312 0-.466.49-6.164.616-7.635.01-.102.017-.196.025-.29l.005-.059v.002c.09-1.158.01-1.664-.525-.508-.46.994-2.463 7.357-4.695 14.286-.236.606-4.456 13.375-5.01 14.932-.66 1.806-1.216 3.189-1.6 3.903-.584.792-1.37 1.288-2.469.955-2.74-.828-6.21-4.615-6.243-5.554-.066-5.3.258-33.792-1.027-31.418-1.318 2.435-11.57 19.33-11.57 19.33-.172.03-.3.024-.45.038-.726-.08-1.851-.315-2.162-1.01-.017-.041-.04-.078-.055-.121l-.057-.17c-.14-.466-.196-.97-.319-1.384-.458-1.548-1.192-3.766-1.963-6.023-1.18-3.848-2.396-7.784-2.596-8.218-.391-.85-.961-.492-1.473-.001-2.288 1.94-7.149 10.508-11.539 10.976z" clip-rule="evenodd"/>
  <defs>
    <linearGradient id="a" x1="-46.022" x2="23.485" y1="33.429" y2="125.858" gradientUnits="userSpaceOnUse">
      <stop stop-color="#FFBE00"/>
      <stop offset="1" stop-color="#E85E0A"/>
    </linearGradient>
  </defs>
</svg>
