<svg xmlns="http://www.w3.org/2000/svg" width="1920" height="1080" preserveAspectRatio="none" viewBox="0 0 1920 1080">
  <g mask="url(&quot;#a&quot;)" fill="none" stroke="rgba(0, 0, 0, 1)" stroke-width="2">
    <path d="M-37.4 751.53c141.23.99 274.29 135 548.57 135 274.29 0 258.77-140.13 548.58-135 289.81 5.13 365.08 472.61 548.57 509.87"/>
    <path d="M-374.05 239.32c210.04 31.01 334.08 465.37 664.24 529.2 330.16 63.83 212.02 339.34 332.12 374.44"/>
    <path d="M-227.61 446.78c209.65 5.2 429.22 265.51 782.47 302.4 353.25 36.89 242.27 444.39 391.23 498.09"/>
    <path d="M-65.9 370.77c270.84 15.33 435.31 489.11 959.04 507.6 523.73 18.49 704.86 333.2 959.04 338.1"/>
    <path d="M-234.84 983.44c249.77-1.49 601.29-228.12 973.01-226.8 371.72 1.32 315.68 466.97 486.5 510.83"/>
  </g>
  <defs>
    <mask id="a">
      <path fill="#fff" d="M0 0h1920v1080H0z"/>
    </mask>
  </defs>
</svg>
