<svg width="1280" height="552" viewBox="0 0 1280 552" fill="none" xmlns="http://www.w3.org/2000/svg">
  <mask id="a" style="mask-type:luminance" maskUnits="userSpaceOnUse" x="0" y="0" width="1280" height="552">
    <path d="M1280 0H0v552h1280V0Z" fill="#fff" />
  </mask>
  <g mask="url(#a)" stroke="#FBF4F4" stroke-width="2">
    <path
      d="M811.913 609.29c82.094-.153 133.04-29.848 323.657-42.565 190.61-12.716 208.24-246.146 323.65-270.48M476.7 637.028c142.167-51.177 143.747-387.856 347.927-401.048 204.183-13.192 173.966 69 347.933 69 173.96 0 258.09-68.443 347.93-69" />
    <path
      d="M266.36 553.528c118.347-14.674 176.573-233.368 368.7-235.075 192.127-1.707 184.353 69 368.7 69 184.35 0 273.82-68.504 368.7-69" />
    <path
      d="M442.853 631.028c128.187-52.45 19.994-351.471 302.694-380.389C1028.25 221.72 1192 103.413 1350.94 101.599M761.493 634.805c58.94-1.365 20.507-53.217 217.8-69.419 197.297-16.202 296.087-258.929 435.597-276" />
  </g>
</svg>