<svg xmlns="http://www.w3.org/2000/svg" version="1.1" id="Layer_1" x="0" y="0" viewBox="0 0 55.2 38.4" style="enable-background:new 0 0 55.2 38.4" xml:space="preserve">
  <style>
    .st2{fill:#fff}
  </style>
  <path d="M52.17 0H3.03C1.36 0 0 1.36 0 3.03v32.33c0 1.67 1.36 3.03 3.03 3.03h49.13a3.04 3.04 0 0 0 3.03-3.03V3.03C55.2 1.36 53.83 0 52.17 0z" style="fill:#00008b"/>
  <path d="m16.07 22.94 1.01 3.16 3.11-1.18-1.84 2.78 2.86 1.69-3.31.29.46 3.3-2.29-2.42-2.3 2.42.46-3.3-3.31-.29 2.86-1.69-1.84-2.78 3.11 1.18 1.02-3.16zm27.09 5.7.48 1.5 1.48-.56-.87 1.32 1.36.81-1.58.14.22 1.57-1.09-1.15-1.09 1.15.21-1.57-1.57-.14 1.36-.81-.88-1.32 1.48.56.49-1.5zm0-23.47.48 1.5 1.48-.56-.87 1.32 1.36.81-1.58.14.22 1.57-1.09-1.15-1.09 1.15.21-1.57-1.57-.14 1.36-.81-.88-1.32 1.48.56.49-1.5zm-6.91 9.53.49 1.51 1.48-.56-.88 1.32 1.36.81-1.57.13.21 1.57-1.09-1.15-1.09 1.15.22-1.57-1.58-.13 1.36-.81-.87-1.32 1.48.56.48-1.51zm14.73-2.35.49 1.51 1.48-.56-.88 1.32 1.36.81-1.57.14.21 1.56-1.09-1.14-1.09 1.14.22-1.56-1.58-.14 1.36-.81-.87-1.32 1.48.56.48-1.51zm-4.3 7.07.38.94 1.01.07-.77.65.24.99-.86-.53-.86.53.24-.99-.78-.65 1.02-.07.38-.94z" style="fill:#fff;fill-rule:evenodd;clip-rule:evenodd"/>
  <path class="st2" d="m.23 1.87 27.62 13.81h3.51v-1.75L3.51 0h-.48C1.78 0 .69.77.23 1.87zM31.36 0v1.75L3.51 15.68H0v-1.75L27.85 0h3.51z"/>
  <path class="st2" d="M13.07 0v15.68h5.23V0h-5.23zM0 5.23v5.23h31.36V5.23H0z"/>
  <path d="M0 6.27v3.14h31.36V6.27H0zM14.11 0v15.68h3.14V0h-3.14zM0 15.68l10.45-5.23h2.34L2.34 15.68H0zM.48 1.41c.2-.31.45-.58.74-.8l9.24 4.62H8.12L.48 1.41zm18.09 3.82L29.02 0h2.34L20.9 5.23h-2.33zm12.79 10.45L20.9 10.45h2.34l8.11 4.06v1.17h.01z" style="fill:red"/>
</svg>
