<svg xmlns="http://www.w3.org/2000/svg" version="1.1" id="Layer_1" x="0" y="0" viewBox="0 0 55.2 38.4" style="enable-background:new 0 0 55.2 38.4" xml:space="preserve">
  <style>
    .st0{fill:#009b3a}.st3{fill:#fff}.st4{fill-rule:evenodd;clip-rule:evenodd;fill:#009b3a}
  </style>
  <path class="st0" d="M3.03 0h49.13c1.67 0 3.03 1.36 3.03 3.03v32.33c0 1.67-1.36 3.03-3.03 3.03H3.03A3.02 3.02 0 0 1 0 35.37V3.03C0 1.36 1.36 0 3.03 0z"/>
  <path style="fill:#fedf00" d="M4.24 19.2 27.6 34.11 50.96 19.2 27.6 4.29 4.24 19.2z"/>
  <path d="M27.6 9.35c5.44 0 9.85 4.41 9.85 9.85 0 5.44-4.41 9.85-9.85 9.85-5.44 0-9.85-4.41-9.85-9.85 0-5.44 4.41-9.85 9.85-9.85z" style="fill:#002776"/>
  <path class="st3" d="M18.59 15.22c1.1-.16 2.23-.24 3.38-.24 5.86 0 11.22 2.11 15.38 5.6a8.84 8.84 0 0 1-.35 1.56 22.4 22.4 0 0 0-15.03-5.76c-1.33 0-2.64.12-3.91.34.14-.52.32-1.02.53-1.5z"/>
  <path class="st4" d="M19.18 16.15c.14-.02.23-.16.21-.32-.02-.16-.15-.28-.28-.26-.13.02-.23.16-.21.32.02.16.14.27.28.26zm.02.17c.23-.03.4-.26.36-.52-.03-.26-.24-.44-.48-.41-.23.03-.39.26-.36.52.04.25.25.44.48.41zm.9-.62.36-.02c.07-.01.12-.06.11-.13a.11.11 0 0 0-.13-.11l-.36.03.02.23zm-.14.54.17-.01-.02-.35.37-.03c.16-.01.29-.15.27-.31a.291.291 0 0 0-.31-.27l-.53.04.05.93z"/>
  <path class="st0" d="M20.76 16.18c-.01-.13-.03-.43-.23-.41l-.26.02c.29-.02.31.27.33.41l.16-.02z"/>
  <path class="st4" d="M21.32 15.98h.25c.14 0 .25-.12.25-.26v-.08c0-.14-.12-.25-.26-.25l-.26.01.02.58zm-.17.18.44-.01c.22-.01.4-.19.4-.41v-.13c0-.22-.19-.4-.41-.4l-.44.01.01.94z"/>
  <path class="st0" d="m22.34 16.15.85.03v-.17l-.68-.03.01-.24.53.02.01-.16-.54-.02.01-.19.64.03.01-.18-.8-.03-.04.94zm1.19.05.16.02.06-.65.13.66.15.02.24-.63-.06.64.16.01.09-.93-.24-.02-.24.62-.13-.65-.23-.02-.09.93zm1.95.22.69.12.03-.16-.54-.09.04-.21.43.07.03-.15-.43-.08.02-.15.52.09.03-.16-.68-.11-.14.83z"/>
  <path class="st4" d="m27.56 16.31.35.09c.06.01.13-.02.15-.09.01-.06-.02-.13-.09-.15l-.35-.09-.06.24zm-.3.46.17.04.09-.34.36.09c.16.04.32-.05.36-.21a.292.292 0 0 0-.21-.36l-.52-.14-.25.92zm1.47-.14.34.11c.06.02.13-.01.15-.08a.116.116 0 0 0-.08-.15l-.34-.11-.07.23zm-.32.45.17.05.11-.33.36.11a.3.3 0 0 0 .37-.19.3.3 0 0 0-.19-.37l-.51-.16-.31.89z"/>
  <path class="st0" d="M29.17 17.32c.04-.13.13-.41-.06-.47l-.24-.08c.28.09.19.37.15.5l.15.05z"/>
  <path class="st4" d="M30 17.43c.13.05.28-.04.33-.19.06-.15 0-.32-.13-.36-.13-.05-.28.04-.33.19-.06.15 0 .31.13.36zm-.06.16c.22.08.47-.05.56-.29.09-.24-.01-.51-.23-.59-.22-.08-.47.05-.56.29-.09.25.01.51.23.59zm1.17.29c.13.05.28-.02.35-.17l.16.07c-.1.24-.36.35-.57.26-.22-.09-.31-.36-.2-.6.1-.24.36-.36.57-.26.17.07.26.25.24.44l-.17-.08c-.01-.09-.06-.17-.14-.2-.12-.06-.28.02-.34.17-.07.15-.03.31.1.37z"/>
  <path class="st0" d="m31.29 17.64.33.14-.06.12-.32-.14.05-.12z"/>
  <path class="st0" d="m31.49 17.72.13.06-.19.43-.13-.06.19-.43z"/>
  <path class="st4" d="m32.13 17.96.32.16c.06.03.13.01.16-.05.03-.06.01-.13-.06-.16l-.32-.16-.1.21zm-.39.39.16.08.15-.31.33.17c.15.07.32.01.4-.13.07-.15.01-.32-.13-.4l-.48-.24-.43.83z"/>
  <path class="st0" d="M32.46 18.71c.06-.12.19-.38.01-.47l-.23-.11c.26.13.13.4.07.51l.15.07zm.35.18.73.42.09-.15-.6-.34.12-.21.47.26.07-.14-.46-.26.09-.16.56.31.09-.15-.7-.39-.46.81zm1.37.46c-.05.08 0 .17.11.24.11.07.19.07.22.02.1-.16-.49-.4-.31-.68.16-.24.43-.05.53.01.1.06.26.23.14.42l-.17-.11c.05-.09-.01-.17-.1-.22-.09-.05-.16-.08-.21 0-.09.13.49.38.32.66-.13.21-.36.12-.52.02-.13-.08-.32-.28-.2-.48l.19.12zm1 .67c-.05.08-.01.17.1.24.11.08.19.08.22.03.11-.16-.47-.42-.27-.69.17-.23.43-.03.53.04.1.07.25.25.12.43l-.17-.12c.06-.08 0-.16-.08-.23-.08-.06-.15-.09-.21-.01-.1.12.47.4.28.67-.14.2-.37.1-.51-.01-.13-.09-.31-.3-.17-.49l.16.14z"/>
  <path class="st4" d="M36.24 20.96c.11.08.28.05.38-.08.1-.13.1-.3-.01-.38-.1-.09-.28-.05-.37.08-.11.12-.11.3 0 .38zm-.11.14c.18.15.46.1.62-.1.16-.2.14-.48-.04-.63-.18-.15-.46-.1-.62.1-.16.2-.14.48.04.63z"/>
  <path class="st3" d="m19.56 17.01-.13.4.2.07-.07-.47z"/>
  <path class="st3" d="m19.56 17.01.13.4-.2.07.07-.47z"/>
  <path class="st3" d="M19.96 17.3h-.42v.21l.42-.21z"/>
  <path class="st3" d="m19.96 17.3-.34.25-.13-.17.47-.08z"/>
  <path class="st3" d="m19.16 17.3.34.25.12-.17-.46-.08z"/>
  <path class="st3" d="M19.16 17.3h.42v.21l-.42-.21z"/>
  <path class="st3" d="m19.81 17.77-.13-.4-.2.07.33.33z"/>
  <path class="st3" d="m19.81 17.77-.34-.24.12-.18.22.42z"/>
  <path class="st3" d="m19.31 17.77.34-.24-.12-.18-.22.42z"/>
  <path class="st3" d="m19.31 17.77.13-.4.2.07-.33.33zm1.12 3.38-.13.4.2.07-.07-.47z"/>
  <path class="st3" d="m20.43 21.15.13.4-.2.07.07-.47z"/>
  <path class="st3" d="M20.83 21.44h-.42v.21l.42-.21z"/>
  <path class="st3" d="m20.83 21.44-.34.25-.12-.17.46-.08z"/>
  <path class="st3" d="m20.03 21.44.34.25.13-.17-.47-.08z"/>
  <path class="st3" d="M20.03 21.44h.42v.21l-.42-.21z"/>
  <path class="st3" d="m20.68 21.91-.13-.4-.2.07.33.33z"/>
  <path class="st3" d="m20.68 21.91-.34-.24.12-.18.22.42z"/>
  <path class="st3" d="m20.18 21.91.34-.24-.12-.18-.22.42z"/>
  <path class="st3" d="m20.18 21.91.13-.4.2.07-.33.33zm-.96.2-.1.33.16.05-.06-.38z"/>
  <path class="st3" d="m19.22 22.11.11.33-.16.05.05-.38z"/>
  <path class="st3" d="M19.56 22.35h-.35v.17l.35-.17z"/>
  <path class="st3" d="m19.56 22.35-.29.2-.1-.14.39-.06z"/>
  <path class="st3" d="m18.89 22.35.29.2.1-.14-.39-.06z"/>
  <path class="st3" d="M18.89 22.35h.35v.17l-.35-.17z"/>
  <path class="st3" d="m19.43 22.74-.11-.34-.17.06.28.28z"/>
  <path class="st3" d="m19.43 22.74-.28-.21.1-.14.18.35z"/>
  <path class="st3" d="m19.02 22.74.28-.21-.1-.14-.18.35z"/>
  <path class="st3" d="m19.02 22.74.11-.34.16.06-.27.28zm2.38-1.97-.07.19.1.03-.03-.22z"/>
  <path class="st3" d="m21.4 20.77.06.19-.1.03.04-.22z"/>
  <path class="st3" d="M21.59 20.91h-.2v.1l.2-.1z"/>
  <path class="st3" d="m21.59 20.91-.17.12-.05-.08.22-.04z"/>
  <path class="st3" d="m21.2 20.91.17.12.06-.08-.23-.04z"/>
  <path class="st3" d="M21.2 20.91h.21v.1l-.21-.1z"/>
  <path class="st3" d="m21.51 21.13-.06-.19-.09.03.15.16z"/>
  <path class="st3" d="m21.51 21.13-.16-.12.06-.08.1.2z"/>
  <path class="st3" d="m21.28 21.13.16-.12-.06-.08-.1.2z"/>
  <path class="st3" d="m21.28 21.13.06-.19.09.03-.15.16zm1.2 1.07-.11.33.17.06-.06-.39z"/>
  <path class="st3" d="m22.48 22.2.11.33-.17.06.06-.39z"/>
  <path class="st3" d="M22.82 22.44h-.36v.18l.36-.18z"/>
  <path class="st3" d="m22.82 22.44-.29.21-.1-.14.39-.07z"/>
  <path class="st3" d="m22.15 22.44.28.21.1-.14-.38-.07z"/>
  <path class="st3" d="M22.15 22.44h.35v.18l-.35-.18z"/>
  <path class="st3" d="m22.69 22.84-.11-.34-.17.05.28.29z"/>
  <path class="st3" d="m22.69 22.84-.29-.21.11-.14.18.35z"/>
  <path class="st3" d="m22.28 22.84.28-.21-.1-.14-.18.35z"/>
  <path class="st3" d="m22.28 22.84.1-.34.17.05-.27.29zm-.09.41-.09.27.13.04-.04-.31z"/>
  <path class="st3" d="m22.19 23.25.08.27-.13.04.05-.31z"/>
  <path class="st3" d="M22.45 23.44h-.28v.14l.28-.14z"/>
  <path class="st3" d="m22.45 23.44-.22.17-.09-.12.31-.05z"/>
  <path class="st3" d="m21.92 23.44.23.17.08-.12-.31-.05z"/>
  <path class="st3" d="M21.92 23.44h.28v.14l-.28-.14z"/>
  <path class="st3" d="m22.35 23.76-.09-.27-.13.04.22.23z"/>
  <path class="st3" d="m22.35 23.76-.23-.17.09-.11.14.28z"/>
  <path class="st3" d="m22.02 23.76.23-.17-.09-.11-.14.28z"/>
  <path class="st3" d="m22.02 23.76.09-.27.13.04-.22.23zm8.64-8.04-.13.4.2.07-.07-.47z"/>
  <path class="st3" d="m30.66 15.72.12.4-.2.07.08-.47z"/>
  <path class="st3" d="M31.06 16.02h-.43v.21l.43-.21z"/>
  <path class="st3" d="m31.06 16.02-.35.24-.12-.17.47-.07z"/>
  <path class="st3" d="m30.25 16.02.35.24.12-.17-.47-.07z"/>
  <path class="st3" d="M30.25 16.02h.43v.21l-.43-.21z"/>
  <path class="st3" d="m30.9 16.49-.13-.4-.2.06.33.34z"/>
  <path class="st3" d="m30.9 16.49-.34-.25.13-.17.21.42z"/>
  <path class="st3" d="m30.41 16.49.34-.25-.13-.17-.21.42z"/>
  <path class="st3" d="m30.41 16.49.13-.4.2.06-.33.34zm4.09 5.75-.13.4.2.06-.07-.46z"/>
  <path class="st3" d="m34.5 22.24.13.4-.2.06.07-.46z"/>
  <path class="st3" d="M34.9 22.53h-.42v.21l.42-.21z"/>
  <path class="st3" d="m34.9 22.53-.34.24-.12-.16.46-.08z"/>
  <path class="st3" d="m34.1 22.53.34.24.12-.16-.46-.08z"/>
  <path class="st3" d="M34.1 22.53h.42v.21l-.42-.21z"/>
  <path class="st3" d="m34.75 23-.13-.4-.2.06.33.34z"/>
  <path class="st3" d="m34.75 23-.34-.25.12-.17.22.42z"/>
  <path class="st3" d="m34.25 23 .34-.25-.12-.17-.22.42z"/>
  <path class="st3" d="m34.25 23 .13-.4.2.06-.33.34zm1.62-.53-.09.27.13.04-.04-.31z"/>
  <path class="st3" d="m35.87 22.47.08.27-.13.04.05-.31z"/>
  <path class="st3" d="M36.13 22.66h-.28v.14l.28-.14z"/>
  <path class="st3" d="m36.13 22.66-.22.17-.09-.11.31-.06z"/>
  <path class="st3" d="m35.6 22.66.23.17.08-.11-.31-.06z"/>
  <path class="st3" d="M35.6 22.66h.28v.14l-.28-.14z"/>
  <path class="st3" d="m36.03 22.98-.08-.27-.14.04.22.23z"/>
  <path class="st3" d="m36.03 22.98-.22-.17.08-.11.14.28z"/>
  <path class="st3" d="m35.7 22.98.23-.17-.08-.11-.15.28z"/>
  <path class="st3" d="m35.7 22.98.09-.27.13.04-.22.23zm-.8.2-.11.33.17.06-.06-.39z"/>
  <path class="st3" d="m34.9 23.18.11.33-.17.06.06-.39z"/>
  <path class="st3" d="M35.24 23.42h-.36v.17l.36-.17z"/>
  <path class="st3" d="m35.24 23.42-.29.21-.1-.15.39-.06z"/>
  <path class="st3" d="m34.57 23.42.28.21.11-.15-.39-.06z"/>
  <path class="st3" d="M34.57 23.42h.35v.17l-.35-.17z"/>
  <path class="st3" d="m35.11 23.81-.11-.33-.17.05.28.28z"/>
  <path class="st3" d="m35.11 23.81-.28-.2.1-.15.18.35z"/>
  <path class="st3" d="m34.7 23.81.28-.2-.1-.15-.18.35z"/>
  <path class="st3" d="m34.7 23.81.11-.33.16.05-.27.28zm-2.17 1.43-.11.33.17.06-.06-.39z"/>
  <path class="st3" d="m32.53 25.24.11.33-.17.06.06-.39z"/>
  <path class="st3" d="M32.87 25.48h-.36v.18l.36-.18z"/>
  <path class="st3" d="m32.87 25.48-.29.21-.1-.14.39-.07z"/>
  <path class="st3" d="m32.2 25.48.28.21.1-.14-.38-.07z"/>
  <path class="st3" d="M32.2 25.48h.35v.18l-.35-.18z"/>
  <path class="st3" d="m32.74 25.88-.11-.34-.17.06.28.28z"/>
  <path class="st3" d="m32.74 25.88-.29-.21.11-.14.18.35z"/>
  <path class="st3" d="m32.33 25.88.28-.21-.1-.14-.18.35z"/>
  <path class="st3" d="m32.33 25.88.1-.34.17.06-.27.28zm.19.42-.09.27.13.04-.04-.31z"/>
  <path class="st3" d="m32.52 26.3.08.27-.13.04.05-.31z"/>
  <path class="st3" d="M32.78 26.5h-.28v.14l.28-.14z"/>
  <path class="st3" d="m32.78 26.5-.22.16-.09-.11.31-.05z"/>
  <path class="st3" d="m32.25 26.5.23.16.08-.11-.31-.05z"/>
  <path class="st3" d="M32.25 26.5h.28v.14l-.28-.14z"/>
  <path class="st3" d="m32.68 26.81-.08-.27-.14.05.22.22z"/>
  <path class="st3" d="m32.68 26.81-.22-.16.08-.12.14.28z"/>
  <path class="st3" d="m32.35 26.81.23-.16-.08-.12-.15.28z"/>
  <path class="st3" d="m32.35 26.81.09-.27.13.05-.22.22zm1.16-2.28-.09.27.14.05-.05-.32z"/>
  <path class="st3" d="m33.51 24.53.09.27-.14.05.05-.32z"/>
  <path class="st3" d="M33.78 24.73h-.29v.14l.29-.14z"/>
  <path class="st3" d="m33.78 24.73-.23.16-.08-.11.31-.05z"/>
  <path class="st3" d="m33.24 24.73.23.16.08-.11-.31-.05z"/>
  <path class="st3" d="M33.24 24.73h.28v.14l-.28-.14z"/>
  <path class="st3" d="m33.67 25.04-.08-.27-.14.05.22.22z"/>
  <path class="st3" d="m33.67 25.04-.22-.16.08-.12.14.28z"/>
  <path class="st3" d="m33.34 25.04.23-.16-.08-.12-.15.28z"/>
  <path class="st3" d="m33.34 25.04.09-.27.13.05-.22.22zm.96-1.07-.11.33.17.06-.06-.39z"/>
  <path class="st3" d="m34.3 23.97.11.33-.17.06.06-.39z"/>
  <path class="st3" d="M34.63 24.21h-.35v.18l.35-.18z"/>
  <path class="st3" d="m34.63 24.21-.28.21-.1-.14.38-.07z"/>
  <path class="st3" d="m33.97 24.21.28.21.1-.14-.38-.07z"/>
  <path class="st3" d="M33.97 24.21h.35v.18l-.35-.18z"/>
  <path class="st3" d="m34.51 24.6-.11-.33-.17.05.28.28z"/>
  <path class="st3" d="m34.51 24.6-.29-.2.11-.15.18.35z"/>
  <path class="st3" d="m34.09 24.6.29-.2-.11-.15-.18.35z"/>
  <path class="st3" d="m34.09 24.6.11-.33.17.05-.28.28zm-1.6-.26-.09.27.14.05-.05-.32z"/>
  <path class="st3" d="m32.49 24.34.09.27-.14.05.05-.32z"/>
  <path class="st3" d="M32.76 24.54h-.28v.14l.28-.14z"/>
  <path class="st3" d="m32.76 24.54-.23.17-.08-.12.31-.05z"/>
  <path class="st3" d="m32.22 24.54.23.17.08-.12-.31-.05z"/>
  <path class="st3" d="M32.22 24.54h.29v.14l-.29-.14z"/>
  <path class="st3" d="m32.66 24.85-.09-.26-.13.04.22.22z"/>
  <path class="st3" d="m32.66 24.85-.23-.16.08-.11.15.27z"/>
  <path class="st3" d="m32.33 24.85.22-.16-.08-.11-.14.27z"/>
  <path class="st3" d="m32.33 24.85.08-.26.14.04-.22.22zm-8.48-5.6-.11.33.17.06-.06-.39z"/>
  <path class="st3" d="m23.85 19.25.11.33-.17.06.06-.39z"/>
  <path class="st3" d="M24.18 19.49h-.35v.18l.35-.18z"/>
  <path class="st3" d="m24.18 19.49-.28.21-.11-.14.39-.07z"/>
  <path class="st3" d="m23.51 19.49.29.21.1-.14-.39-.07z"/>
  <path class="st3" d="M23.51 19.49h.36v.18l-.36-.18z"/>
  <path class="st3" d="m24.05 19.89-.1-.34-.17.06.27.28z"/>
  <path class="st3" d="m24.05 19.89-.28-.21.1-.14.18.35z"/>
  <path class="st3" d="m23.64 19.89.29-.21-.11-.14-.18.35z"/>
  <path class="st3" d="m23.64 19.89.11-.34.17.06-.28.28zm6.64-1.47-.09.27.14.04-.05-.31z"/>
  <path class="st3" d="m30.28 18.42.09.27-.14.04.05-.31z"/>
  <path class="st3" d="M30.55 18.62h-.28v.14l.28-.14z"/>
  <path class="st3" d="m30.55 18.62-.23.16-.08-.11.31-.05z"/>
  <path class="st3" d="m30.01 18.62.23.16.08-.11-.31-.05z"/>
  <path class="st3" d="M30.01 18.62h.28v.14l-.28-.14z"/>
  <path class="st3" d="m30.44 18.93-.08-.26-.13.04.21.22z"/>
  <path class="st3" d="m30.44 18.93-.22-.16.08-.12.14.28z"/>
  <path class="st3" d="m30.12 18.93.22-.16-.08-.12-.14.28z"/>
  <path class="st3" d="m30.12 18.93.08-.26.14.04-.22.22zM27.6 23.2l-.13.4.2.07-.07-.47z"/>
  <path class="st3" d="m27.6 23.2.13.4-.2.07.07-.47z"/>
  <path class="st3" d="M28 23.49h-.42v.21l.42-.21z"/>
  <path class="st3" d="m28 23.49-.34.25-.12-.17.46-.08z"/>
  <path class="st3" d="m27.2 23.49.34.25.12-.17-.46-.08z"/>
  <path class="st3" d="M27.2 23.49h.42v.21l-.42-.21z"/>
  <path class="st3" d="m27.85 23.96-.13-.4-.2.07.33.33z"/>
  <path class="st3" d="m27.85 23.96-.34-.24.12-.18.22.42z"/>
  <path class="st3" d="m27.35 23.96.34-.24-.12-.18-.22.42z"/>
  <path class="st3" d="m27.35 23.96.13-.4.2.07-.33.33zm1.39-2.65-.11.34.17.05-.06-.39z"/>
  <path class="st3" d="m28.74 21.31.11.34-.17.05.06-.39z"/>
  <path class="st3" d="M29.07 21.56h-.35v.17l.35-.17z"/>
  <path class="st3" d="m29.07 21.56-.28.2-.11-.14.39-.06z"/>
  <path class="st3" d="m28.41 21.56.28.2.1-.14-.38-.06z"/>
  <path class="st3" d="M28.41 21.56h.35v.17l-.35-.17z"/>
  <path class="st3" d="m28.95 21.95-.11-.33-.17.05.28.28z"/>
  <path class="st3" d="m28.95 21.95-.29-.21.1-.14.19.35z"/>
  <path class="st3" d="m28.53 21.95.29-.21-.11-.14-.18.35z"/>
  <path class="st3" d="m28.53 21.95.11-.33.17.05-.28.28zm-.93-1.52-.11.33.17.06-.06-.39z"/>
  <path class="st3" d="m27.6 20.43.11.33-.17.06.06-.39z"/>
  <path class="st3" d="M27.93 20.67h-.35v.18l.35-.18z"/>
  <path class="st3" d="m27.93 20.67-.28.21-.1-.14.38-.07z"/>
  <path class="st3" d="m27.27 20.67.28.21.1-.14-.38-.07z"/>
  <path class="st3" d="M27.27 20.67h.35v.18l-.35-.18z"/>
  <path class="st3" d="m27.81 21.07-.11-.34-.17.06.28.28z"/>
  <path class="st3" d="m27.81 21.07-.29-.21.11-.14.18.35z"/>
  <path class="st3" d="m27.39 21.07.29-.21-.11-.14-.18.35z"/>
  <path class="st3" d="m27.39 21.07.11-.34.17.06-.28.28zm-.78.31-.09.27.14.05-.05-.32z"/>
  <path class="st3" d="m26.61 21.38.09.27-.14.05.05-.32z"/>
  <path class="st3" d="M26.88 21.58h-.29v.14l.29-.14z"/>
  <path class="st3" d="m26.88 21.58-.23.16-.09-.11.32-.05z"/>
  <path class="st3" d="m26.34 21.58.23.16.08-.11-.31-.05z"/>
  <path class="st3" d="M26.34 21.58h.28v.14l-.28-.14z"/>
  <path class="st3" d="m26.77 21.89-.08-.26-.14.04.22.22z"/>
  <path class="st3" d="m26.77 21.89-.22-.16.08-.12.14.28z"/>
  <path class="st3" d="m26.44 21.89.23-.16-.08-.12-.15.28z"/>
  <path class="st3" d="m26.44 21.89.09-.26.13.04-.22.22zm.66.26-.06.19.1.03-.04-.22z"/>
  <path class="st3" d="m27.1 22.15.07.19-.1.03.03-.22z"/>
  <path class="st3" d="M27.29 22.29h-.2v.1l.2-.1z"/>
  <path class="st3" d="m27.29 22.29-.16.11-.06-.08.22-.03z"/>
  <path class="st3" d="m26.91 22.29.17.11.05-.08-.22-.03z"/>
  <path class="st3" d="M26.91 22.29h.2v.1l-.2-.1z"/>
  <path class="st3" d="m27.22 22.51-.06-.19-.1.03.16.16z"/>
  <path class="st3" d="m27.22 22.51-.16-.12.06-.08.1.2z"/>
  <path class="st3" d="m26.99 22.51.16-.12-.06-.08-.1.2z"/>
  <path class="st3" d="m26.99 22.51.06-.19.09.03-.15.16zm3.56 2.97-.11.34.17.05-.06-.39z"/>
  <path class="st3" d="m30.55 25.48.11.34-.17.05.06-.39z"/>
  <path class="st3" d="M30.88 25.72h-.35v.18l.35-.18z"/>
  <path class="st3" d="m30.88 25.72-.28.21-.11-.14.39-.07z"/>
  <path class="st3" d="m30.21 25.72.29.21.1-.14-.39-.07z"/>
  <path class="st3" d="M30.21 25.72h.36v.18l-.36-.18z"/>
  <path class="st3" d="m30.75 26.12-.1-.34-.17.06.27.28z"/>
  <path class="st3" d="m30.75 26.12-.28-.21.1-.14.18.35z"/>
  <path class="st3" d="m30.34 26.12.29-.21-.11-.14-.18.35z"/>
  <path class="st3" d="m30.34 26.12.11-.34.17.06-.28.28zm1.05-1.44-.09.27.14.04-.05-.31z"/>
  <path class="st3" d="m31.39 24.68.09.27-.13.04.04-.31z"/>
  <path class="st3" d="M31.66 24.87h-.28v.15l.28-.15z"/>
  <path class="st3" d="m31.66 24.87-.23.17-.08-.11.31-.06z"/>
  <path class="st3" d="m31.12 24.87.23.17.09-.11-.32-.06z"/>
  <path class="st3" d="M31.12 24.87h.29v.15l-.29-.15z"/>
  <path class="st3" d="m31.56 25.19-.09-.27-.13.05.22.22z"/>
  <path class="st3" d="m31.56 25.19-.23-.16.08-.12.15.28z"/>
  <path class="st3" d="m31.23 25.19.22-.16-.08-.12-.14.28z"/>
  <path class="st3" d="m31.23 25.19.08-.27.14.05-.22.22zm-1.46-.75-.09.27.14.04-.05-.31z"/>
  <path class="st3" d="m29.77 24.44.09.27-.14.04.05-.31z"/>
  <path class="st3" d="M30.04 24.64h-.28v.13l.28-.13z"/>
  <path class="st3" d="m30.04 24.64-.23.16-.08-.12.31-.04z"/>
  <path class="st3" d="m29.5 24.64.23.16.08-.12-.31-.04z"/>
  <path class="st3" d="M29.5 24.64h.28v.13l-.28-.13z"/>
  <path class="st3" d="m29.93 24.95-.08-.27-.14.05.22.22z"/>
  <path class="st3" d="m29.93 24.95-.22-.17.08-.11.14.28z"/>
  <path class="st3" d="m29.61 24.95.22-.17-.08-.11-.14.28z"/>
  <path class="st3" d="m29.61 24.95.08-.27.13.05-.21.22zM23.65 24l-.13.41.2.06-.07-.47z"/>
  <path class="st3" d="m23.65 24 .13.41-.2.06.07-.47z"/>
  <path class="st3" d="M24.05 24.3h-.42v.21l.42-.21z"/>
  <path class="st3" d="m24.05 24.3-.34.24-.13-.17.47-.07z"/>
  <path class="st3" d="m23.25 24.3.34.24.12-.17-.46-.07z"/>
  <path class="st3" d="M23.25 24.3h.42v.21l-.42-.21z"/>
  <path class="st3" d="m23.9 24.77-.14-.41-.2.07.34.34z"/>
  <path class="st3" d="m23.9 24.77-.35-.25.13-.17.22.42z"/>
  <path class="st3" d="m23.4 24.77.34-.25-.12-.17-.22.42z"/>
  <path class="st3" d="m23.4 24.77.13-.41.2.07-.33.34zm4.2 1.99-.04.14.06.02-.02-.16z"/>
  <path class="st3" d="m27.6 26.76.04.14-.06.02.02-.16z"/>
  <path class="st3" d="M27.73 26.86h-.14v.07l.14-.07z"/>
  <path class="st3" d="m27.73 26.86-.11.08-.04-.05.15-.03z"/>
  <path class="st3" d="m27.47 26.86.11.08.04-.05-.15-.03z"/>
  <path class="st3" d="M27.47 26.86h.14v.07l-.14-.07z"/>
  <path class="st3" d="m27.68 27.02-.04-.13-.07.02.11.11z"/>
  <path class="st3" d="m27.68 27.02-.11-.08.04-.06.07.14z"/>
  <path class="st3" d="m27.52 27.02.11-.08-.04-.06-.07.14z"/>
  <path class="st3" d="m27.52 27.02.04-.13.07.02-.11.11z"/>
</svg>
