<svg xmlns="http://www.w3.org/2000/svg" version="1.1" id="Layer_1" x="0" y="0" viewBox="0 0 55.2 38.4" style="enable-background:new 0 0 55.2 38.4" xml:space="preserve">
  <style>
    .st0{fill:red}
  </style>
  <path class="st0" d="M3.03 0h49.13c1.67 0 3.03 1.36 3.03 3.03v32.33c0 1.67-1.36 3.03-3.03 3.03H3.03A3.02 3.02 0 0 1 0 35.37V3.03C0 1.36 1.36 0 3.03 0z"/>
  <path style="fill:#fff" d="M8.4 0h38.4v38.4H8.4V0z"/>
  <path class="st0" d="m27.6 3.6-2.62 4.89c-.3.53-.83.48-1.37.18l-1.9-.98 1.41 7.5c.3 1.37-.66 1.37-1.13.78l-3.31-3.7-.53 1.88c-.06.25-.33.51-.74.45l-4.18-.88 1.1 4c.24.89.42 1.26-.24 1.49l-1.49.7 7.21 5.85c.29.22.43.62.32.98l-.63 2.07c2.48-.29 4.71-.72 7.19-.98.22-.02.58.33.58.59L26.95 36h1.2l-.19-7.56c0-.26.33-.63.55-.61 2.48.27 4.71.7 7.19.98l-.64-2.08c-.11-.36.04-.75.32-.98l7.21-5.85-1.49-.7c-.66-.24-.48-.6-.24-1.49l1.1-4-4.18.88c-.41.06-.68-.2-.74-.45l-.53-1.88-3.31 3.7c-.47.59-1.42.59-1.13-.78l1.41-7.5-1.9.98c-.53.3-1.07.34-1.37-.18L27.6 3.6zm0 0z"/>
</svg>
