<svg xmlns="http://www.w3.org/2000/svg" viewBox="0 0 55.2 38.4" style="enable-background:new 0 0 55.2 38.4" xml:space="preserve">
  <path d="M3.01 0h49.17c1.66.01 3.01 1.37 3.01 3.03v32.33c0 1.66-1.35 3.02-3.01 3.03L3 38.4c-1.65-.02-3-1.38-3-3.03V3.03C0 1.37 1.35.01 3.01 0z" style="fill:#de2910"/>
  <path d="m8.4 3.84 3.39 10.42-8.87-6.44h10.96l-8.87 6.44L8.4 3.84zm10.35-1.77-.32 3.64-1.88-3.13 3.36 1.43-3.56.82 2.4-2.76zm4.47 4.27-1.71 3.23-.52-3.61 2.55 2.62-3.6-.63 3.28-1.61zm.42 6.44-2.87 2.25 1-3.51 1.25 3.43-3.03-2.04 3.65-.13zm-4.96 2.7-.17 3.65-2.01-3.05 3.42 1.29-3.52.97 2.28-2.86z" style="fill:#ffde00"/>
</svg>
