<svg xmlns="http://www.w3.org/2000/svg" viewBox="0 0 122.88 85.629" xml:space="preserve">
  <path fill-rule="evenodd" clip-rule="evenodd" fill="#FFF" d="M6.966.239h108.948c3.7 0 6.728 3.027 6.728 6.727v71.696c0 3.7-3.027 6.728-6.728 6.728H6.966c-3.699 0-6.727-3.027-6.727-6.728V6.966c0-3.7 3.028-6.727 6.727-6.727z"/>
  <path fill-rule="evenodd" clip-rule="evenodd" d="M6.966.239h108.948c3.7 0 6.728 3.027 6.728 6.727v50.307H.239V6.966c0-3.7 3.028-6.727 6.727-6.727z"/>
  <path fill-rule="evenodd" clip-rule="evenodd" fill="#0072CE" d="M6.966.239h108.948c3.7 0 6.728 3.027 6.728 6.727v21.39H.239V6.966c0-3.7 3.028-6.727 6.727-6.727z"/>
  <path fill="#CCC" d="M6.966 0h108.948c1.915 0 3.656.784 4.919 2.046a6.944 6.944 0 0 1 2.047 4.92v71.696a6.945 6.945 0 0 1-2.046 4.92 6.948 6.948 0 0 1-4.92 2.047H6.966a6.945 6.945 0 0 1-4.919-2.047A6.942 6.942 0 0 1 0 78.662V6.966c0-1.916.784-3.658 2.046-4.92A6.953 6.953 0 0 1 6.966 0zm108.948.479H6.966a6.463 6.463 0 0 0-4.581 1.905A6.47 6.47 0 0 0 .479 6.966v71.696c0 1.784.73 3.406 1.906 4.582a6.46 6.46 0 0 0 4.581 1.906h108.948c1.784 0 3.406-.73 4.582-1.905a6.47 6.47 0 0 0 1.906-4.583V6.966c0-1.784-.73-3.407-1.906-4.583S117.698.479 115.914.479z"/>
</svg>
