<svg xmlns="http://www.w3.org/2000/svg" version="1.1" id="Layer_1" x="0" y="0" viewBox="0 0 55.2 38.4" style="enable-background:new 0 0 55.2 38.4" xml:space="preserve">
  <style>
    .st0{fill:#de2910}.st1{fill:#fff}
  </style>
  <path class="st0" d="M3.03 0h49.13c1.67 0 3.03 1.36 3.03 3.03v32.33c0 1.66-1.35 3.02-3.01 3.03H3.01C1.35 38.39 0 37.03 0 35.37V3.03C0 1.36 1.36 0 3.03 0z"/>
  <path class="st1" d="M27.6 19.19c-6.74-2.85-3.75-11.62 2.69-11.18-1.3.67-1.49 1.92-.75 3.08.83 1.3-.08 3.38-1.2 3.89-1.85.83-2.22 3.06-.74 4.21z"/>
  <path class="st0" d="m27.23 12.86-.38.6-.14-.69-.68-.18.62-.34-.04-.7.52.48.66-.26-.3.64.45.54-.71-.09zm.41 6.26c-.81-.42-1.47-1.29-1.76-2.33-.33-1.2-.14-2.48.52-3.52l-.14-.09a4.613 4.613 0 0 0-.54 3.66c.3 1.1.97 1.99 1.84 2.44l.08-.16z"/>
  <path class="st1" d="M27.6 19.2c.63-7.29 9.89-7.16 11.46-.89-1.04-1.03-2.29-.83-3.16.24-.98 1.19-3.24.97-4.07.06-1.35-1.51-3.58-1.18-4.23.59z"/>
  <path class="st0" d="m33.52 16.89-.68-.18.62-.34-.04-.7.52.48.66-.26-.3.64.45.54-.7-.08-.38.59-.15-.69zm-5.83 2.32c.15-.9.77-1.8 1.67-2.39a4.45 4.45 0 0 1 3.51-.6l.04-.16a4.589 4.589 0 0 0-3.64.62c-.95.63-1.59 1.54-1.75 2.5l.17.03z"/>
  <path class="st1" d="M27.6 19.2c7.12-1.66 9.87 7.2 4.39 10.63.66-1.31.08-2.43-1.2-2.93-1.44-.56-1.93-2.78-1.31-3.85 1.01-1.77 0-3.78-1.88-3.85z"/>
  <path class="st0" d="m31.62 24.11-.04-.7.52.48.66-.26-.3.64.45.54-.7-.08-.38.6-.14-.69-.68-.18.61-.35zm-4-4.82c.91-.14 1.95.18 2.79.85.97.77 1.57 1.92 1.65 3.15l.17-.01a4.605 4.605 0 0 0-1.71-3.27c-.89-.71-1.96-1.04-2.92-.89l.02.17z"/>
  <path class="st1" d="M27.6 19.21c3.78 6.26-3.8 11.61-8.75 7.46 1.45.22 2.34-.68 2.41-2.05.09-1.54 2.05-2.69 3.26-2.44 1.99.41 3.6-1.17 3.08-2.97z"/>
  <path class="st0" d="m24.17 24.55.66-.26-.3.64.45.54-.7-.08-.38.59-.14-.69-.68-.18.62-.34-.04-.7.51.48zm3.35-5.31c.41.82.43 1.91.05 2.92a4.463 4.463 0 0 1-2.49 2.55l.06.16a4.593 4.593 0 0 0 2.58-2.64c.4-1.07.38-2.18-.06-3.05l-.14.06z"/>
  <path class="st1" d="M27.59 19.2c-4.79 5.53-12.21-.02-9.8-6.02.23 1.45 1.36 2.01 2.7 1.66 1.49-.39 3.19 1.12 3.33 2.35.22 2.02 2.22 3.06 3.77 2.01z"/>
  <path class="st0" d="m21.46 17.59.45.54-.7-.08-.38.6-.14-.69-.69-.18.62-.34-.04-.7.52.48.66-.26-.3.63zm6.08 1.55c-.65.65-1.68 1-2.76.95-1.24-.06-2.4-.63-3.19-1.58l-.13.11c.82.98 2.03 1.58 3.31 1.64 1.14.05 2.19-.31 2.89-1l-.12-.12z"/>
</svg>
