<svg xmlns="http://www.w3.org/2000/svg" version="1.1" id="Layer_1" x="0" y="0" viewBox="0 0 122.88 85.48" style="enable-background:new 0 0 122.88 85.48" xml:space="preserve">
  <style>
    .st0{fill:#0038b8}
  </style>
  <path d="M6.75 0h109.37c3.71 0 6.75 3.04 6.75 6.75v71.98c0 3.71-3.04 6.75-6.75 6.75H6.75C3.04 85.48 0 82.44 0 78.73V6.75C0 3.04 3.04 0 6.75 0z" style="fill-rule:evenodd;clip-rule:evenodd;fill:#fff"/>
  <path class="st0" d="M6.71 0h109.46c3.7.02 6.71 3.05 6.71 6.75v9.7H0v-9.7C0 3.05 3.01.02 6.71 0zm116.17 69.05v9.68c0 3.7-3.02 6.73-6.71 6.75H6.71C3.01 85.46 0 82.43 0 78.73v-9.68h122.88zM61.44 27.19 47.96 50.53h26.96L61.44 27.19zM43.29 51.45l18.15-31.46 19.73 34.16H41.71l1.58-2.7z"/>
  <path class="st0" d="m61.44 58.31 13.48-23.34H47.96l13.48 23.34zM79.6 34.06 61.44 65.52 41.71 31.36h39.43l-1.54 2.7z"/>
</svg>
