<svg xmlns="http://www.w3.org/2000/svg" version="1.1" id="Layer_1" x="0" y="0" viewBox="0 0 122.88 85.48" style="enable-background:new 0 0 122.88 85.48" xml:space="preserve">
  <style>
    .st2{fill:#fff}.st3{fill:#008}
  </style>
  <path d="M6.71 0h109.46c3.7.02 6.71 3.05 6.71 6.75v71.98c0 3.71-3.04 6.75-6.75 6.75H6.71C3.02 85.46 0 82.43 0 78.73V6.75C0 3.05 3.01.02 6.71 0z" style="fill:#f93"/>
  <path class="st2" d="M0 28.49h122.88v28.5H0v-28.5z"/>
  <path d="M0 56.99h122.88v21.74c0 3.71-3.04 6.75-6.75 6.75H6.71C3.02 85.46 0 82.43 0 78.73V56.99z" style="fill:#128807"/>
  <path class="st3" d="M72.84 42.74c0-6.3-5.1-11.4-11.4-11.4s-11.4 5.1-11.4 11.4c0 6.29 5.1 11.4 11.4 11.4s11.4-5.1 11.4-11.4z"/>
  <path class="st2" d="M71.41 42.74c0-5.51-4.46-9.97-9.97-9.97s-9.97 4.46-9.97 9.97c0 5.51 4.46 9.97 9.97 9.97s9.97-4.46 9.97-9.97z"/>
  <path class="st3" d="M63.43 42.74c0-1.1-.89-2-1.99-2s-1.99.89-1.99 2c0 1.1.89 1.99 1.99 1.99s1.99-.89 1.99-1.99zm8.39 1.37a.503.503 0 0 0-.43-.56c-.27-.04-.52.16-.56.43s.16.52.43.56c.28.03.53-.16.56-.43z"/>
  <path class="st3" d="m61.44 52.71.34-5.98-.34-2.85-.34 2.85.34 5.98z"/>
  <path d="M71.11 46.75a.497.497 0 1 0-.92-.38.497.497 0 1 0 .92.38zm-12.25 5.62 1.88-5.69.41-2.84-1.07 2.67-1.22 5.86zm10.89-3.25c.17-.22.13-.53-.09-.7a.496.496 0 0 0-.7.09c-.17.22-.13.53.09.7.22.17.53.12.7-.09zm-13.3 2.26 3.29-5.01 1.13-2.64-1.72 2.29-2.7 5.36zm11.36-.33c.22-.17.26-.48.09-.7a.496.496 0 0 0-.7-.09c-.22.17-.26.48-.09.7.17.21.49.26.7.09zm-13.42-1.26 4.47-3.99 1.77-2.25-2.25 1.77-3.99 4.47zm11.06 2.63a.5.5 0 0 0 .27-.65.497.497 0 1 0-.27.65zM52.8 47.73l5.36-2.7 2.29-1.72-2.64 1.13-5.01 3.29zm10.01 5.39a.51.51 0 0 0 .43-.56.51.51 0 0 0-.56-.43.51.51 0 0 0-.43.56c.03.28.28.47.56.43zm-11-7.8 5.87-1.22 2.66-1.06-2.84.4-5.69 1.88zm8.26 7.8c.27.04.52-.16.56-.43a.503.503 0 0 0-.43-.56.499.499 0 1 0-.13.99zm-8.6-10.38 5.98.34 2.85-.34-2.85-.34-5.98.34zm5.96 9.68a.497.497 0 1 0 .38-.92.497.497 0 0 0-.65.27c-.1.25.02.54.27.65zm-5.62-12.26 5.69 1.88 2.84.41-2.66-1.07-5.87-1.22zm3.25 10.89c.22.17.53.13.7-.09.17-.22.13-.53-.09-.7a.496.496 0 0 0-.7.09c-.16.22-.12.53.09.7zm-2.26-13.3 5.01 3.29 2.64 1.13-2.29-1.72-5.36-2.7zm.33 11.37c.17.22.48.26.7.09.22-.17.26-.48.09-.7a.496.496 0 0 0-.7-.09c-.21.16-.26.48-.09.7zm1.26-13.43 3.99 4.47 2.25 1.78-1.77-2.26-4.47-3.99zm-2.63 11.06c.11.25.4.38.65.27a.5.5 0 0 0 .27-.65.5.5 0 0 0-.65-.27c-.25.1-.37.39-.27.65zm4.69-12.65 2.7 5.36 1.72 2.29-1.13-2.63-3.29-5.02zm-5.39 10.01c.04.27.29.46.56.43a.51.51 0 0 0 .43-.56.51.51 0 0 0-.56-.43c-.28.03-.47.28-.43.56zm7.8-11 1.22 5.87 1.07 2.66-.41-2.84-1.88-5.69zm-7.8 8.26c-.04.27.16.52.43.56.27.04.52-.16.56-.43a.499.499 0 1 0-.99-.13zm10.38-8.6-.34 5.98.34 2.85.34-2.85-.34-5.98zm-9.67 5.96a.497.497 0 1 0 .92.38.497.497 0 1 0-.92-.38zm12.25-5.62-1.88 5.69-.41 2.84 1.07-2.66 1.22-5.87zm-10.89 3.26c-.17.22-.13.53.09.7.22.17.53.13.7-.09.17-.22.13-.53-.09-.7a.496.496 0 0 0-.7.09zm13.3-2.27-3.29 5.02-1.13 2.63 1.72-2.29 2.7-5.36zm-11.36.33c-.22.17-.26.48-.09.7.17.22.48.26.7.09.22-.17.26-.48.09-.7s-.49-.25-.7-.09zm13.42 1.26-4.47 3.99-1.77 2.26 2.25-1.78 3.99-4.47zm-11.06-2.62c-.25.11-.37.4-.27.65.11.25.4.38.65.27a.5.5 0 0 0 .27-.65.485.485 0 0 0-.65-.27zm12.65 4.68-5.36 2.7-2.29 1.72 2.64-1.13 5.01-3.29zm-10.01-5.39a.51.51 0 0 0-.43.56c.04.27.29.46.56.43.27-.04.47-.29.43-.56a.492.492 0 0 0-.56-.43zm11 7.8-5.87 1.22-2.66 1.07 2.84-.41 5.69-1.88zm-8.26-7.8a.503.503 0 0 0-.56.43c-.04.27.16.52.43.56.27.04.52-.16.56-.43a.505.505 0 0 0-.43-.56zm8.6 10.38-5.98-.34-2.85.34 2.85.34 5.98-.34zm-5.96-9.67a.497.497 0 1 0-.381.917.497.497 0 0 0 .381-.917zm5.62 12.25-5.69-1.88-2.84-.4 2.66 1.06 5.87 1.22zm-3.26-10.89a.496.496 0 0 0-.7.09c-.17.22-.13.53.09.7.22.17.53.13.7-.09.17-.22.13-.53-.09-.7zm2.27 13.3-5.01-3.29-2.64-1.13 2.29 1.72 5.36 2.7zm-.33-11.36c-.17-.22-.48-.26-.7-.09s-.26.48-.09.7c.17.22.48.26.7.09.21-.17.26-.49.09-.7zm-1.26 13.42-3.99-4.47-2.25-1.77 1.77 2.25 4.47 3.99zm2.63-11.06c-.11-.25-.4-.38-.65-.27s-.38.4-.27.65c.11.25.4.37.65.27.25-.1.37-.39.27-.65zm-4.69 12.65-2.7-5.36-1.72-2.29 1.13 2.64 3.29 5.01zm5.39-10.01a.51.51 0 0 0-.56-.43.51.51 0 0 0-.43.56c.04.27.29.46.56.43.28-.03.47-.28.43-.56zm-7.8 11-1.22-5.86-1.07-2.67.41 2.84 1.88 5.69z"/>
</svg>
