<svg xmlns="http://www.w3.org/2000/svg" version="1.1" id="Layer_1" x="0" y="0" viewBox="0 0 55.7 38.9" style="enable-background:new 0 0 55.7 38.9" xml:space="preserve">
  <style>
    .st1{fill:#252422}.st2,.st3{fill:none;stroke:#252422;stroke-width:1.6002}.st3{stroke:#fefefe;stroke-width:.7999}
  </style>
  <path d="M3.28 38.65h49.13a3.04 3.04 0 0 0 3.03-3.03V3.28c0-1.67-1.36-3.03-3.03-3.03H3.28C1.61.25.25 1.61.25 3.28v32.33c0 1.68 1.36 3.04 3.03 3.04z" style="fill:#fefefe;stroke:#ccc;stroke-width:.5;stroke-miterlimit:2.6131"/>
  <path class="st1" d="m12.54 15.01 5.32-7.99-5.32 7.99zm-2-1.33 5.33-7.99-5.33 7.99zm-1.99-1.33 5.33-7.99-5.33 7.99z"/>
  <path class="st2" d="m12.54 15.01 5.32-7.99m-7.32 6.66 5.33-7.99m-7.32 6.66 5.33-7.99"/>
  <path class="st1" d="m41.83 34.54 5.33-7.99-5.33 7.99zm-2-1.33 5.33-7.99-5.33 7.99zm-2-1.33 5.33-7.99-5.33 7.99z"/>
  <path class="st2" d="m41.83 34.54 5.33-7.99m-7.33 6.66 5.33-7.99m-7.33 6.66 5.33-7.99"/>
  <path class="st3" d="m39.17 26.99 6.65 4.44"/>
  <path d="M19.86 14.13c2.94-4.41 8.9-5.6 13.31-2.66 4.41 2.94 5.6 8.9 2.66 13.31-2.94 4.41-8.9 5.6-13.31 2.66-4.41-2.94-5.6-8.9-2.66-13.31z" style="fill:#c62631"/>
  <path d="M19.86 14.13a4.809 4.809 0 0 0 1.33 6.66c2.21 1.47 5.19.87 6.66-1.33a4.8 4.8 0 0 1 6.66-1.33 4.8 4.8 0 0 1 1.33 6.66c-2.94 4.41-8.9 5.6-13.31 2.66-4.42-2.95-5.61-8.91-2.67-13.32z" style="fill:#303c70"/>
  <path class="st1" d="m17.86 31.88-5.32-7.99 5.32 7.99zm-1.99 1.33-5.33-7.99 5.33 7.99zm-2 1.33-5.33-7.99 5.33 7.99z"/>
  <path class="st2" d="m17.86 31.88-5.32-7.99m3.33 9.32-5.33-7.99m3.33 9.32-5.33-7.99"/>
  <path class="st1" d="m47.15 12.35-5.33-7.99 5.33 7.99zm-1.99 1.33-5.33-7.99 5.33 7.99zm-2 1.33-5.33-7.99 5.33 7.99z"/>
  <path class="st2" d="m47.15 12.35-5.33-7.99m3.34 9.32-5.33-7.99m3.33 9.32-5.33-7.99"/>
  <path class="st1" d="m43.49 9.02 2-1.33-2 1.33zm-4.32 2.89 2.33-1.55-2.33 1.55zM12.21 29.88l2-1.33-2 1.33z"/>
  <path class="st3" d="m43.49 9.02 2-1.33m-6.32 4.22 2.33-1.55M12.21 29.88l2-1.33"/>
</svg>
