<svg xmlns="http://www.w3.org/2000/svg" viewBox="0 0 55.2 38.4" style="enable-background:new 0 0 55.2 38.4" xml:space="preserve">
  <path d="M3.03 0h49.13c1.67 0 3.03 1.36 3.03 3.03v32.33a3.04 3.04 0 0 1-3.03 3.03H3.03A3.026 3.026 0 0 1 0 35.37V3.03A3.04 3.04 0 0 1 3.03 0z" style="fill:#c1272d"/>
  <path d="M55.2 26.04H0V3.03A3.04 3.04 0 0 1 3.03 0h49.13c1.67 0 3.03 1.36 3.03 3.03v23.01h.01z" style="fill:#006a44"/>
  <path d="M55.2 12.36H0V3.03A3.04 3.04 0 0 1 3.03 0h49.13c1.67 0 3.03 1.36 3.03 3.03v9.33h.01z" style="fill:#fdb913"/>
</svg>
