<svg xmlns="http://www.w3.org/2000/svg" height="450" width="675">
  <path d="M0 0h675v450H0z" fill="#012a87"/>
  <path d="M0 0h675v225H0z" fill="#dc171d"/>
  <path d="M0 0v450l300-225z" fill="#fff"/>
  <path d="m151.553 169.848.094-3.481s-1.87-2.982.299-6.184c0 0-4.611-2.437-3.538-6.259 0 0-4.172-1.065-3.866-5.654 0 0-4.498-.313-4.966-4.146 0 0-4.502.741-6.482-2.993 0 0-4.392.858-5.632-2.219 0 0-4.27 1.478-6.803-2.139 0 0-4.505 1.822-6.395-1.595-1.863 3.402-6.372 1.595-6.372 1.595-2.502 3.606-6.803 2.109-6.803 2.109-1.195 3.092-5.575 2.215-5.575 2.215-1.973 3.734-6.47 2.99-6.47 2.99-.443 3.82-4.937 4.134-4.937 4.134.355 4.6-3.81 5.643-3.81 5.643 1.097 3.817-3.507 6.251-3.507 6.251 2.226 3.22.374 6.176.374 6.176l-.106 3.213 74.506.344h-.011z" fill="#f9d90f" stroke="#000" stroke-width=".401"/>
  <g stroke-width="2.022" transform="matrix(1.86973 0 0 1.86871 193.698 289.092)">
    <path d="M-42.413-75.046c1.068 1.078.07 1.668-.916 1.114-2.434-1.843-5.28-2.865-9.193-1.751-5.623.02-11.597-.318-14.328 2.667-.195.575-1.72 2.745 4.179-.438-.368 2.201 2.376.402 4.497-.597-1.461 1.528 2.238 1.779 4.577.278-1.15 1.544.87 1.502 2.786 1.513 2.803.087 1.254 2.526-3.542 2.627-.35-.025-1.695.606.12 1.074.84.042.156 1.214 3.064-.278-.18.873 1.065.704 2.826.159.998.785 1.808-.029 2.666-.438 3.674 1.437 8.526 2.875 9.83-2.11 3.067-.353 5.605-.803 4.231-1.97 3.995 1.629 4.226 1 4.165.196 1.916.725 4.144 1.705 3.237.113 1.841.47 3.858.635 5.431 1.576 1.594.826 1.078-.617.704-1.266-.817-1.307-1.848-1.692-4.176-1.74-1.973-.04-11.22-2.62-16.03.164h.027c-.085 0-1.998-1.801-1.998-1.801.44-.012.758-.234 1.013-.563a17.995 17.995 0 0 0 5.629-.591c.855-.267 1.342.242 1.323.619.782-1.376-.301-1.661-1.098-1.604-3.174.18-5.079.014-6.613-.254-3.043-1.518-6.704.811-3.321 2.73z" fill="#bc715f" stroke="#000" stroke-width=".214"/>
    <path d="M-41.698-77.742c-.637.095-1.294.172-1.548.613.019-.726 1.099-.776 1.548-.613z"/>
    <ellipse cx="-42.036" cy="-77.474" rx=".274" ry=".281"/>
  </g>
  <g stroke="#000">
    <path d="M50.587 160.77c2.35 13.333 4.958 26.996 6.236 40.954 2.797 20.67-9.782 38.022-4.623 58.447 3.08 9.796 13.856 15.492 23.717 16.622 13.085 2.472 28.898.008 38.45 9.79 9.55-9.786 25.367-7.318 38.448-9.79 9.865-1.13 20.637-6.826 23.717-16.622 5.159-20.42-7.416-37.777-4.623-58.447 1.282-13.958 3.89-27.62 6.237-40.951-23.029 12.503-45.786-3.764-63.78 6.637-17.99-10.401-40.75 5.866-63.78-6.637z" fill="#dc171d" stroke-width=".401"/>
    <path d="M59.174 171.54c2.03 11 4.282 22.274 5.39 33.79 2.407 17.053-8.452 31.37-3.996 48.22 2.657 8.087 11.966 12.785 20.485 13.715 11.301 2.041 24.96.004 33.207 8.08 8.247-8.076 21.91-6.039 33.207-8.08 8.52-.93 17.828-5.631 20.485-13.716 4.456-16.845-6.402-31.166-3.995-48.22 1.108-11.515 3.364-22.79 5.39-33.788-19.892 10.318-39.545-3.103-55.087 5.476-15.541-8.58-35.195 4.838-55.086-5.48z" fill="#62afe1" stroke-width=".401"/>
    <g stroke-width=".238">
      <g fill="#fff" stroke-width=".9">
        <g stroke-linecap="round">
          <path d="m103.462 202.378-23.274 15.95v19.2h68.141v-19.2l-23.274-15.95z"/>
          <path d="M74.658 234.353v3.67H76.9v18.86h74.713v-18.86h2.242v-3.67zm39.599-52.774-10.795 10.507v10.292h21.593v-10.292zm-30.705 39.353h6.825v10.813h-6.825zm19.381 0h6.826v10.813h-6.826zm42.028 0h-6.825v10.813h6.825zm-19.377 0h-6.83v10.813h6.83z"/>
          <path d="M83.552 239.735h6.825v10.81h-6.825zm61.41 0h-6.826v10.81h6.825zm-25.354-.612h-10.703v17.76h10.703zm-16.924-4.77h-4.8v22.53h4.8zm23.145 0h4.804v22.53h-4.8z"/>
          <path d="M132.413 235.124v-5.564H96.1v5.564z"/>
        </g>
        <path d="M103.462 192.086h21.593m-44.867 26.242h68.141"/>
        <path d="M72.95 254.528h82.617v5.84h-82.62zm45.426-60.215h-8.24v5.835h8.24z" stroke-linecap="round"/>
      </g>
      <g fill="none">
        <path d="M98.692 229.56v5.564m31.129-5.564v5.564m-2.597-5.564v5.564m-2.593-5.564v5.564m-2.592-5.564v5.564m-2.593-5.564v5.564m-2.597-5.564v5.564m-2.589-5.564v5.564m-2.596-5.564v5.564m-2.593-5.564v5.564m-2.597-5.564v5.564m-2.592-5.564v5.564m-2.593-5.564v5.564" stroke-width="1.002"/>
        <path d="M132.413 229.938v5.186" stroke-width=".9"/>
      </g>
    </g>
    <g fill="#008830" stroke-width=".255">
      <path d="M-30.543-85.287c2.909 1.856 4.284 3.573 4.291 5.165-3.62-.193-6.893-1.897-4.29-5.165z" transform="matrix(1.76315 0 0 1.76281 133.109 330.852)"/>
      <path d="M-28.2-83.598c2.8 1.594 4.38 3.329 4.866 5.19-2.846.496-5.882-.847-4.866-5.19zm-3.621 2.738c.377 3.202-.085 5.502-1.296 6.997-2.085-1.998-2.804-5.239 1.296-6.996z" transform="matrix(1.76315 0 0 1.76281 133.109 330.852)"/>
      <path d="M-31.818-80.85c2.632 1.862 4.032 3.744 4.334 5.644-2.88.214-5.77-1.42-4.334-5.643z" transform="matrix(1.76315 0 0 1.76281 133.109 330.852)"/>
      <path d="m-30.07-83.411 1.212.757 1.302-.128.545.899s-.146 1.848-.147 2.016c-.001.169.402 1.202.402 1.202l-.886.644-2.372.972-2.218-1.802-1.399.145-.613-1.738.689-1.482 1.731-1.124z" transform="matrix(1.76315 0 0 1.76281 133.109 330.852)"/>
      <path d="M-32.347-82.492c-1.14 3.015-2.61 4.843-4.373 5.613-.93-2.734-.075-5.942 4.373-5.613z" transform="matrix(1.76315 0 0 1.76281 133.109 330.852)"/>
      <path d="M-32.353-82.272c-3.162-.623-5.21-1.767-6.262-3.378 2.541-1.373 5.846-1.063 6.262 3.378zm6.047.108c3.21.285 5.496-.243 6.956-1.496-2.057-2.028-5.318-2.652-6.956 1.496z" transform="matrix(1.76315 0 0 1.76281 133.109 330.852)"/>
      <path d="M-26.296-82.16c1.936 2.576 3.857 3.922 5.765 4.169.131-2.886-1.586-5.727-5.765-4.17zm-1.009 1.574c2.413 2.137 3.6 4.16 3.693 6.083-2.887-.102-5.581-2.042-3.693-6.083z" transform="matrix(1.76315 0 0 1.76281 133.109 330.852)"/>
      <path d="M-28.3-77.045c1.652 2.768 2.17 5.056 1.675 6.916-2.72-.973-4.699-3.638-1.674-6.916z" transform="matrix(1.76315 0 0 1.76281 133.109 330.852)"/>
      <path d="M-29.46-77.224c.365 3.202-.105 5.5-1.321 6.992-2.079-2.006-2.785-5.25 1.32-6.992z" transform="matrix(1.76315 0 0 1.76281 133.109 330.852)"/>
    </g>
    <g fill="#f9d90f">
      <g stroke-width=".262">
        <path d="M-31.378-80.613a1.165 1.165 0 0 1-.458-.752c-.036-.247-.016-.406.096-.754.056-.177.1-.325.1-.33a.345.345 0 0 0-.099-.03c-.091-.018-.102-.012-.266.14-.56.516-1.07.764-1.42.688-.404-.088-.56-.65-.334-1.213.191-.479.55-.772 1.01-.824a.933.933 0 0 1 .439.042c.13.035.231.054.225.041a1.51 1.51 0 0 0-.22-.156c-.565-.359-.9-.773-.922-1.144-.016-.27.16-.528.462-.677a1.124 1.124 0 0 1 1.437.404c.142.229.179.41.179.881 0 .273.01.43.031.438.018.008.064.05.104.095l.071.08.28-.229a4.27 4.27 0 0 1 .724-.5c.321-.17.699-.22.888-.114.415.232.413.986-.003 1.502-.338.419-.851.566-1.32.38a3.753 3.753 0 0 0-.331-.114l-.14-.038.216.275c.292.37.455.635.568.92.213.536.105.95-.295 1.127-.308.137-.711.082-1.022-.138z" transform="matrix(1.7209 0 0 1.7206 131.465 327.091)"/>
        <path d="M-30.822-82.942a.649.73 21.727 0 1-.873.437.649.73 21.727 0 1-.333-.918.649.73 21.727 0 1 .873-.437.649.73 21.727 0 1 .333.918z" transform="matrix(1.7209 0 0 1.7206 131.465 327.091)"/>
      </g>
      <g stroke-width=".255">
        <path d="M-28.657-84.003c.002.248.044.404.198.741.078.171.141.315.14.32 0 .005-.04.022-.087.036-.082.026-.094.02-.269-.116-.597-.47-1.11-.676-1.426-.574-.367.119-.43.688-.139 1.23.248.46.626.722 1.063.738a.81.81 0 0 0 .405-.075c.116-.045.209-.072.205-.059-.004.014-.086.09-.183.172-.478.4-.73.837-.698 1.207.023.268.225.51.53.635a.977.977 0 0 0 1.286-.512c.1-.237.108-.42.04-.887-.04-.271-.052-.427-.034-.437a.424.424 0 0 0 .083-.102l.055-.086.295.206c.301.21.515.336.75.44.324.145.685.164.847.045.354-.262.244-1.01-.22-1.49-.376-.389-.878-.496-1.29-.274-.092.05-.224.112-.292.138l-.126.049.163-.29c.219-.39.334-.665.399-.956.122-.548-.04-.95-.439-1.096-.308-.111-.677-.026-.906.188s-.353.519-.35.81z" transform="matrix(1.76315 0 0 1.76281 133.109 330.478)"/>
        <path d="M-28.622-82.545a.635.732 32.565 0 1 .9-.408.635.732 32.565 0 1 .271.91.635.732 32.565 0 1-.9.408.635.732 32.565 0 1-.271-.91z" transform="matrix(1.76315 0 0 1.76281 133.109 330.478)"/>
      </g>
      <g stroke-width=".224">
        <path d="M-31.603-77.281c-.12-.228-.158-.391-.183-.775a6.262 6.262 0 0 0-.028-.361.306.306 0 0 0-.098.01c-.088.017-.096.027-.188.239-.315.722-.683 1.163-1.022 1.225-.393.072-.73-.417-.73-1.055 0-.542.217-.968.608-1.197a.84.84 0 0 1 .407-.13c.128-.016.226-.038.216-.048-.01-.01-.123-.04-.252-.067-.632-.13-1.078-.405-1.23-.759-.11-.256-.045-.577.171-.84.364-.443.994-.516 1.427-.165.208.168.305.331.472.791.097.267.163.416.184.416a.44.44 0 0 1 .126.052l.093.051.168-.333c.172-.34.306-.56.469-.77.225-.292.545-.487.752-.457.452.064.718.801.53 1.468-.152.54-.558.884-1.043.884-.108 0-.26.008-.335.018l-.138.018.29.184c.392.248.632.444.834.677.38.442.431.888.137 1.217a.948.948 0 0 1-.919.274 1.156 1.156 0 0 1-.718-.567z" transform="matrix(1.93977 .51976 -.5195 1.9389 97.464 361.016)"/>
        <path d="M-31.259-79.217a.623.767 0 0 1-.623.767.623.767 0 0 1-.623-.767.623.767 0 0 1 .623-.767.623.767 0 0 1 .623.767z" transform="matrix(1.93977 .51976 -.5195 1.9389 97.464 361.016)"/>
      </g>
      <g stroke-width=".229">
        <path d="M-28.182-76.458c-.12-.228-.158-.39-.183-.775a6.272 6.272 0 0 0-.028-.36.306.306 0 0 0-.098.01c-.088.017-.096.027-.188.238-.315.723-.683 1.163-1.022 1.225-.392.072-.73-.416-.73-1.054 0-.543.217-.969.608-1.198a.84.84 0 0 1 .407-.13c.129-.016.226-.037.216-.048-.01-.01-.123-.04-.252-.066-.632-.13-1.078-.406-1.23-.76-.11-.256-.045-.577.172-.84a1.012 1.012 0 0 1 1.426-.165c.208.168.306.332.473.792.096.266.162.415.184.415a.44.44 0 0 1 .126.052l.092.051.169-.333c.171-.34.305-.56.468-.77.225-.292.545-.487.752-.457.452.064.719.801.53 1.468-.152.54-.558.885-1.043.885-.108 0-.26.007-.335.017l-.138.018.29.184c.392.249.632.444.834.678.381.44.431.887.138 1.216a.948.948 0 0 1-.92.274 1.156 1.156 0 0 1-.718-.567z" transform="matrix(1.8813 -.55578 -.5556 -1.8807 94.002 29.975)"/>
        <path d="M-82.333 7.207a.69.767 0 0 1-.69.766.69.767 0 0 1-.69-.766.69.767 0 0 1 .69-.767.69.767 0 0 1 .69.767z" transform="matrix(-.04988 -1.96045 -1.961 .04998 94.002 29.975)"/>
      </g>
    </g>
    <path d="M159.57 203.546h-2.862v-2.033h-2.434v-2.321h-2.79v-14.74l-3.178-5.556-3.174 5.556v14.74h-2.794v2.32h-2.434v2.034h-2.86v3l22.525.065z" fill="#fff" stroke-width=".801"/>
  </g>
  <path d="M114.514 296.057c11.444.038 25.519-2.297 32.11-5.707l14.484-1.285.287 17.67c-12.269 6.765-40.592 8.216-46.821 8.163-6.236.053-34.912-1.424-47.233-8.212l.159-17.681 14.513 1.308c6.592 3.39 21.098 5.744 32.53 5.744h-.03" fill="#f9d90f"/>
  <path d="m67.341 306.682 14.933-3.413-14.884-2.128z" fill="#f9b60f"/>
  <path d="m30.064 220.697 12.756 4.063-3.855 20.652-12.08 1.878s-2.033-10.862 3.175-26.604" fill="#f9d90f"/>
  <path d="m26.885 247.29 7.846-10.824 4.234 8.946z" fill="#f9b60f"/>
  <path d="m30.064 220.697 12.756 4.063-3.855 20.652-12.08 1.878s-2.033-10.862 3.175-26.604v.015zm37.277 85.985 15.028-3.413M34.743 236.4l4.218 9.01" stroke-width=".401" fill="none" stroke="#000"/>
  <path d="m161.395 306.735-14.933-3.417 14.884-2.128z" fill="#f9b60f"/>
  <path d="m198.672 220.75-12.756 4.06 3.856 20.65 12.075 1.88s2.041-10.863-3.175-26.605" fill="#f9d90f"/>
  <path d="m201.847 247.34-7.842-10.825-4.233 8.946z" fill="#f9b60f"/>
  <path d="m198.672 220.75-12.756 4.06 3.856 20.65 12.075 1.88s2.041-10.863-3.175-26.605v.015zm-37.277 85.985-15.028-3.417m47.626-66.867-4.221 9.01m-75.258 50.596c11.444.038 25.519-2.297 32.11-5.707l14.484-1.285.287 17.67c-12.269 6.765-40.592 8.216-46.821 8.163-6.236.053-34.912-1.424-47.233-8.212l.159-17.681 14.513 1.308c6.592 3.39 21.098 5.744 32.53 5.744h-.03" stroke-width=".401" fill="none" stroke="#000"/>
  <path d="m206.303 235.627-12.298.888c-.276 10.42-1.539 50.18-49.02 52.339l1.473 14.464c57.8.6 62.192-48.767 59.845-67.691" fill="#f9d90f"/>
  <path d="m206.303 235.627-12.298.888c-.276 10.42-1.539 50.18-49.02 52.339l1.473 14.464c57.8.6 62.192-48.767 59.845-67.691z" fill="none" stroke="#000" stroke-width=".401"/>
  <path d="m22.433 235.577 12.298.889c.276 10.42 1.539 50.18 49.02 52.339l-1.473 14.464c-57.8.6-62.192-48.767-59.845-67.692" fill="#f9d90f"/>
  <path d="m22.433 235.577 12.298.889c.276 10.42 1.539 50.18 49.02 52.339l-1.473 14.464c-57.8.6-62.192-48.767-59.845-67.692z" fill="none" stroke="#000" stroke-width=".401"/>
  <path d="M106.448 304.766c-.325.207-.763.264-1.274.238l-2.294-.114.197-2.865 2.275.121a2.381 2.381 0 0 1 1.024.254c.461.238.662.68.62 1.292-.03.53-.215.87-.552 1.074m-3.855 4.509.227-3.493 2.676.185c.87.068 1.512-.158 1.946-.604a2.332 2.332 0 0 0 .718-1.625c.053-.745-.136-1.354-.578-1.8-.423-.43-1.024-.657-1.776-.729l-3.825-.238-.53 8.217 1.138.075m8.7-6.863 2.798.03c.404.038.722.083.956.196.43.2.631.605.631 1.195 0 .551-.159.922-.472 1.141a2.28 2.28 0 0 1-1.255.295l-2.687-.03.022-2.827m-.041 7.275.022-3.507 2.627.038c.465 0 .809.037 1.047.15.39.182.578.556.597 1.07l.068 1.38c.02.332.023.533.042.669.038.098.057.2.106.276h1.41l-.027-.178a.718.718 0 0 1-.34-.503 3.02 3.02 0 0 1-.087-.699l-.027-1.096c-.018-.499-.102-.843-.294-1.032a1.474 1.474 0 0 0-.741-.529 2.547 2.547 0 0 0 .903-.74 2.302 2.302 0 0 0 .302-1.24c0-.945-.381-1.588-1.171-1.935a4.127 4.127 0 0 0-1.599-.303l-3.942-.038-.03 8.24h1.134m9.343-1.743a3.92 3.92 0 0 1-.832-2.286c-.057-1.142.163-2.015.68-2.604.53-.635 1.21-.945 2.102-.99a2.706 2.706 0 0 1 2.177.8c.56.553.877 1.324.933 2.276.03.918-.128 1.739-.551 2.457-.416.725-1.112 1.137-2.136 1.16-1.066.057-1.863-.193-2.373-.813m-1.35-5.189c-.529.817-.74 1.761-.687 2.903.079 1.228.46 2.249 1.179 3.016.793.767 1.852 1.153 3.152 1.077 1.39-.06 2.441-.59 3.152-1.557.574-.877.85-1.894.794-3.152-.083-1.123-.409-2.037-1.017-2.718-.763-.91-1.89-1.315-3.41-1.255-1.435.091-2.49.62-3.17 1.686M28.064 250.88l.19 1.029a2.32 2.32 0 0 0-1.097.518c-.487.453-.65 1.133-.487 2.06.075.393.215.778.393 1.084.37.628.846.877 1.455.779.446-.076.74-.25.884-.567.133-.318.23-.794.265-1.406l.053-1.16c.038-.719.113-1.282.276-1.595.253-.564.725-.915 1.428-1.028a2.457 2.457 0 0 1 1.988.464c.575.397.957 1.093 1.096 2.011a3.428 3.428 0 0 1-.23 2.275c-.321.662-.934 1.066-1.871 1.24l-.185-1.043a2.672 2.672 0 0 0 .975-.53c.367-.407.48-1 .34-1.817-.113-.665-.34-1.096-.68-1.308a1.311 1.311 0 0 0-1.047-.287.945.945 0 0 0-.809.658 8.088 8.088 0 0 0-.197 1.53l-.052 1.202a3.043 3.043 0 0 1-.31 1.35 1.965 1.965 0 0 1-1.55 1.065c-.937.159-1.663-.053-2.177-.654a4.339 4.339 0 0 1-1.02-2.173c-.182-1.043-.05-1.852.37-2.502.423-.665 1.092-1.054 2-1.183m-.522 10.862 8.107-2.441 1.89 5.707-.987.314-1.55-4.69-2.464.74 1.433 4.335-.945.303-1.417-4.347-2.748.82 1.568 4.796-.967.276-1.92-5.813m3.594 9.895 7.457-3.953.798 1.39-5.13 5.42 7.492-1.28.77 1.379-7.437 3.93-.53-.914 4.392-2.31c.16-.094.405-.226.76-.415.352-.163.745-.378 1.134-.578l-7.457 1.27-.544-.972 5.09-5.4-.245.124c-.159.09-.435.227-.809.438a5.96 5.96 0 0 1-.824.443l-4.376 2.35-.54-.933m13.896 10.995a2.241 2.241 0 0 1-1.103-.677l-1.576-1.625 2.12-1.943 1.587 1.622c.31.302.507.593.609.846.151.484 0 .926-.446 1.342-.404.374-.809.53-1.19.435m-5.991.756 2.6-2.39 1.845 1.872c.593.604 1.201.884 1.84.869a2.597 2.597 0 0 0 1.701-.74 2.215 2.215 0 0 0 .813-1.686c-.008-.601-.28-1.165-.794-1.69l-2.646-2.706-6.172 5.665.798.806m7.453 6.621 4.471-7.01 5.288 3.212-.552.835-4.347-2.6-1.341 2.124 3.995 2.419-.514.805-4-2.408-1.522 2.37 4.4 2.646-.53.827zm13.232-1.353 2.691.85c.378.114.654.265.84.428.34.325.434.793.234 1.357-.167.49-.416.808-.813.944a2.774 2.774 0 0 1-1.304-.098l-2.532-.809.888-2.676m-2.32 6.887 1.118-3.341 2.502.816a2.098 2.098 0 0 1 .934.442c.302.276.396.684.241 1.195l-.374 1.33c-.083.325-.128.54-.162.639 0 .105 0 .215.019.287l1.319.43.075-.188c-.14-.114-.219-.314-.211-.567.03-.151.075-.397.158-.68l.318-1.066c.132-.469.181-.817.064-1.07a1.686 1.686 0 0 0-.54-.73 2.52 2.52 0 0 0 1.084-.426 2.275 2.275 0 0 0 .68-1.093c.303-.888.137-1.632-.528-2.192a4.562 4.562 0 0 0-1.422-.782l-3.753-1.157-2.623 7.816 1.096.34m100.055-5.359a4.195 4.195 0 0 1 2.103.151c.913.308 1.52 1 1.89 2.05l-1.137.138a2.14 2.14 0 0 0-1.048-1.184 3.1 3.1 0 0 0-1.697-.182 2.646 2.646 0 0 0-1.846 1.085c-.443.654-.588 1.536-.42 2.665.146.937.472 1.733 1.03 2.272.51.55 1.27.753 2.275.631a2.774 2.774 0 0 0 1.789-.908c.451-.483.59-1.222.463-2.18l-2.652.355-.116-.909 3.69-.5.64 4.374-.736.1-.435-1.013c-.31.448-.627.79-.899.99-.46.346-1.08.562-1.849.657a3.806 3.806 0 0 1-2.71-.601c-.892-.686-1.456-1.69-1.65-3.073-.217-1.358.02-2.514.664-3.417.61-.87 1.484-1.371 2.651-1.513m8.333-.475 2.655-.908a2.049 2.049 0 0 1 .947-.13c.483.046.833.34 1.027.918.18.495.172.926-.05 1.22a2.241 2.241 0 0 1-1.108.71l-2.496.846-.972-2.656m2.51 6.861-1.225-3.33 2.465-.84a2.778 2.778 0 0 1 1.024-.18c.434.06.762.33.972.837l.536 1.269a2.135 2.135 0 0 0 .291.595c.032.11.11.18.17.252l1.339-.467-.069-.178c-.196-.004-.383-.117-.523-.335-.1-.153-.193-.374-.328-.637l-.42-1.036a2.049 2.049 0 0 0-.615-.904 2.105 2.105 0 0 0-.872-.254 2.185 2.185 0 0 0 .558-.984 2.196 2.196 0 0 0-.113-1.257c-.32-.883-.931-1.374-1.8-1.45a3.946 3.946 0 0 0-1.599.247l-3.727 1.25 2.847 7.802 1.096-.377m9.711-3.931-4.575-6.949 5.222-3.193.555.834-4.282 2.628 1.413 2.124 3.95-2.445.518.814-3.95 2.442 1.553 2.342 4.354-2.676.552.822-5.314 3.256m4.345-12.05 1.376-1.461c.635-.65 1.302-.94 2.026-.84.72.073 1.45.469 2.224 1.17.213.167.398.386.59.631.332.452.529.85.65 1.245.104.493.07.938-.108 1.366a3.44 3.44 0 0 1-.581.753l-1.38 1.449-4.797-4.325m7.064 3.36c.975-1.04 1.208-2.17.668-3.46a5.858 5.858 0 0 0-1.468-1.982 4.562 4.562 0 0 0-2.699-1.282c-1.049-.098-1.951.267-2.745 1.103l-2.347 2.422 6.24 5.644 2.347-2.433m5.033-6.32-7.218-4.418.61-.933 7.234 4.396-.622.971m2.952-4.94-7.822-3.295 2.425-5.501.95.388-1.98 4.53 2.356.977 1.852-4.174.9.394-1.833 4.163 2.636 1.13 2.027-4.587.954.377-2.473 5.598m3.8-9.608-8.257-1.984.3-1.28 7.707-2.444-6.7-1.608.264-1.001 8.259 1.935-.288 1.242-7.72 2.502 6.7 1.577-.257 1.062m-.469-10.54.121-1.042a2.389 2.389 0 0 0 1.195-.205c.61-.314.97-.927 1.077-1.84a3.243 3.243 0 0 0-.059-1.158c-.165-.69-.547-1.076-1.162-1.151-.46-.058-.794.05-1.037.295a4.033 4.033 0 0 0-.636 1.285l-.398 1.077c-.262.706-.498 1.193-.745 1.461-.406.51-.957.678-1.663.616a2.472 2.472 0 0 1-1.785-.989c-.44-.537-.607-1.296-.48-2.224a3.643 3.643 0 0 1 .896-2.13c.475-.521 1.205-.757 2.129-.642l-.106 1.041a1.863 1.863 0 0 0-1.086.245c-.48.256-.755.807-.85 1.621-.08.675.002 1.13.257 1.48a1.432 1.432 0 0 0 .95.516c.408.045.728-.078.953-.388.162-.208.364-.673.634-1.424l.395-1.131a3.598 3.598 0 0 1 .684-1.209c.47-.471 1.07-.66 1.825-.59.92.111 1.57.505 1.894 1.21.316.713.434 1.494.335 2.373-.12 1-.46 1.78-1.07 2.294-.614.53-1.362.697-2.268.608" fill="#012a87"/>
</svg>
