<svg xmlns="http://www.w3.org/2000/svg" shape-rendering="geometricPrecision" text-rendering="geometricPrecision" image-rendering="optimizeQuality" fill-rule="evenodd" clip-rule="evenodd" viewBox="0 0 39.35 27.42">
  <g fill-rule="nonzero">
    <path fill="#D82126" d="M2.23.08h34.89c1.18 0 2.15.97 2.15 2.15v22.96c0 1.18-.97 2.15-2.15 2.15H2.23a2.16 2.16 0 0 1-2.15-2.15V2.23c0-1.18.97-2.15 2.15-2.15z"/>
    <path fill="#F8E92E" d="m1.08 27.01 14.68-10.3a4.83 4.83 0 0 1-.58-.95L.08 23.44v1.75c0 .76.4 1.43 1 1.82zM16.96.08h5.43L20.17 8.8a4.07 4.07 0 0 0-.99 0L16.96.08zm21.31.34c.6.38 1 1.05 1 1.81v1.75l-15.1 7.68a4.83 4.83 0 0 0-.58-.95L38.27.42zm1 11.33v3.92L24.59 14.2c.01-.16.02-.32.02-.49 0-.17-.01-.33-.02-.49l14.68-1.47zm0 11.69v1.75c0 .76-.4 1.43-1 1.82l-14.68-10.3c.23-.29.42-.61.58-.95l15.1 7.68zm-16.88 3.9h-5.43l2.22-8.72a4.028 4.028 0 0 0 .99 0l2.22 8.72zM.08 15.67v-3.92l14.68 1.47c-.01.16-.02.32-.02.49 0 .17.01.33.02.49L.08 15.67zm0-11.69V2.23c0-.76.4-1.43 1-1.81l14.68 10.29c-.23.29-.42.61-.58.95L.08 3.98zm23.54 9.73a3.946 3.946 0 1 0-7.89 0 3.946 3.946 0 1 0 7.89 0z"/>
    <path fill="#CCC" d="M2.23 0h34.89c.61 0 1.17.25 1.57.66.41.4.66.96.66 1.57v22.96c0 .61-.25 1.17-.66 1.57-.4.41-.96.66-1.57.66H2.23c-.61 0-1.17-.25-1.57-.65-.41-.41-.66-.97-.66-1.58V2.23C0 1.62.25 1.06.66.66 1.06.25 1.62 0 2.23 0zm34.89.15H2.23C1.66.15 1.14.39.76.76c-.37.38-.61.9-.61 1.47v22.96c0 .57.24 1.09.61 1.47.38.37.9.61 1.47.61h34.89c.57 0 1.09-.24 1.47-.61.37-.38.61-.9.61-1.47V2.23c0-.57-.24-1.09-.61-1.47-.38-.37-.9-.61-1.47-.61z"/>
  </g>
</svg>
