<svg xmlns="http://www.w3.org/2000/svg" version="1.1" id="Layer_1" x="0" y="0" viewBox="0 0 55.68 38.88" style="enable-background:new 0 0 55.68 38.88" xml:space="preserve">
  <style>
    .st0{fill:#fcd116}
  </style>
  <path d="m1.27 37.88 32.2-18.59 20.19 19.08a3.05 3.05 0 0 0 1.79-2.76V3.27A3.04 3.04 0 0 0 52.42.24H3.27C1.6.24.24 1.6.24 3.27V35.6c0 .91.4 1.72 1.03 2.28zm50.51.76H3.27c-.66 0-1.27-.21-1.76-.57l50.27.57zM33.47 19.29 1.28 37.88l32.19-18.59zm0 0L1.28 37.88l32.19-18.59z" style="fill:#0038a8"/>
  <path d="M.24 19.31h33.2L1.27 37.88A3.039 3.039 0 0 1 .24 35.6V19.31zm55.2 0v16.3a3.04 3.04 0 0 1-3.03 3.03H3.27c-.77 0-1.47-.29-2-.76l32.16-18.57h22.01z" style="fill:#ce1126"/>
  <path d="M33.47 19.29 1.27 37.88A3.039 3.039 0 0 1 .24 35.6V3.27c0-1 .49-1.89 1.25-2.45l31.98 18.47zm0 0z" style="fill:#fff"/>
  <path class="st0" d="M15.99 19.31c0-2.14-1.74-3.87-3.87-3.87a3.88 3.88 0 0 0-3.87 3.87c0 2.13 1.74 3.87 3.87 3.87s3.87-1.74 3.87-3.87z"/>
  <path class="st0" d="m3.93 19.31.51.51 7.68-.51-7.68-.51-.51.51zm.87.96.4.41 6.92-1.37-7.32.96z"/>
  <path class="st0" d="m4.8 18.35.4-.41 6.92 1.37-7.32-.96zm1.53-4.83v.73l5.79 5.06-5.08-5.79h-.71zm-.07 1.29v.58l5.86 3.92-5.86-4.5zm1.35-1.36h.59l3.92 5.86-4.51-5.86z"/>
  <path class="st0" d="m12.12 11.13-.51.5.51 7.68.51-7.68-.51-.5z"/>
  <path class="st0" d="m11.15 11.99-.42.41 1.39 6.91-.97-7.32zm1.92 0 .42.41-1.37 6.91.95-7.32z"/>
  <path class="st0" d="M17.9 13.52h-.72l-5.06 5.79 5.78-5.06v-.73zm-1.29-.07h-.59l-3.9 5.86 4.49-5.86zm1.36 1.36v.58l-5.85 3.92 5.85-4.5z"/>
  <path class="st0" d="m20.29 19.31-.51-.51-7.66.51 7.66.51.51-.51z"/>
  <path class="st0" d="m19.44 18.35-.42-.41-6.9 1.37 7.32-.96z"/>
  <path class="st0" d="m19.44 20.27-.42.41-6.9-1.37 7.32.96zm-1.54 4.82v-.72l-5.78-5.06 5.06 5.78h.72zm.07-1.29v-.58l-5.85-3.91 5.85 4.49zm-1.36 1.36h-.59l-3.9-5.85 4.49 5.85z"/>
  <path class="st0" d="m12.12 27.49.51-.51-.51-7.67-.51 7.67.51.51zm.95-.86.42-.42-1.37-6.9.95 7.32z"/>
  <path class="st0" d="m11.15 26.63-.42-.42 1.39-6.9-.97 7.32z"/>
  <path class="st0" d="M6.33 25.09h.71l5.08-5.78-5.79 5.06v.72zm1.28.07h.59l3.92-5.85-4.51 5.85z"/>
  <path class="st0" d="M6.26 23.8v-.58l5.86-3.91-5.86 4.49zm23.48-4.49-1.46.51-.03 1.53-.93-1.22-1.48.44.89-1.26h3.01zm0 0-1.46-.51-.03-1.54-.93 1.22-1.48-.43.89 1.26h3.01zM2 35.32l.29-1.5-1.33-.81 1.54-.19.34-1.49.67 1.39L2 35.32zm0 0 1.16-1.01 1.35.75-.6-1.42 1.13-1.05-1.53.13L2 35.32zM2 3.3l1.16 1 1.35-.74-.6 1.41 1.13 1.06-1.53-.13L2 3.3z"/>
  <path class="st0" d="m2 3.3.29 1.51-1.33.79 1.54.2.34 1.5.67-1.4L2 3.3z"/>
  <path d="M3.27.24H52.4c1.67 0 3.03 1.36 3.03 3.03V35.6a3.04 3.04 0 0 1-3.03 3.03H3.27A3.04 3.04 0 0 1 .24 35.6V3.27C.24 1.6 1.6.24 3.27.24z" style="fill:none;stroke:#ccc;stroke-width:.4799;stroke-miterlimit:22.9256"/>
</svg>
