<svg xmlns="http://www.w3.org/2000/svg" shape-rendering="geometricPrecision" text-rendering="geometricPrecision" image-rendering="optimizeQuality" fill-rule="evenodd" clip-rule="evenodd" viewBox="0 0 39.35 27.42">
  <path fill="#0038A8" fill-rule="nonzero" d="M2.23.08h34.89c1.18 0 2.15.97 2.15 2.15v22.96c0 1.18-.97 2.15-2.15 2.15H2.23a2.16 2.16 0 0 1-2.15-2.15V2.23c0-1.18.97-2.15 2.15-2.15z"/>
  <path fill="#fff" fill-rule="nonzero" d="M39.27 20.66H.08V2.23c0-1.18.97-2.15 2.15-2.15h34.89c1.18 0 2.15.97 2.15 2.15v18.43z"/>
  <path fill="#D52B1E" fill-rule="nonzero" d="M39.27 6.76H.08V2.23c0-1.18.97-2.15 2.15-2.15h34.89c1.18 0 2.15.97 2.15 2.15v4.53z"/>
  <path fill="#fff" fill-rule="nonzero" d="M24.96 13.71c0 2.92-2.37 5.29-5.29 5.29-2.91 0-5.28-2.37-5.28-5.29s2.37-5.29 5.28-5.29c2.92 0 5.29 2.37 5.29 5.29z"/>
  <path fill-rule="nonzero" d="M25.08 13.71c0 1.49-.61 2.84-1.59 3.82-.97.98-2.32 1.58-3.82 1.58-1.49 0-2.84-.6-3.82-1.58a5.423 5.423 0 0 1-1.58-3.82c0-1.49.61-2.84 1.59-3.82a5.34 5.34 0 0 1 3.81-1.58c1.5 0 2.85.6 3.82 1.58a5.39 5.39 0 0 1 1.59 3.82zm-1.75 3.66c.94-.94 1.51-2.23 1.51-3.66 0-1.43-.57-2.72-1.51-3.66a5.17 5.17 0 0 0-3.66-1.51c-1.42 0-2.72.58-3.65 1.51-.94.94-1.51 2.23-1.51 3.66 0 1.43.57 2.72 1.51 3.66.93.93 2.23 1.51 3.65 1.51 1.43 0 2.73-.58 3.66-1.51z"/>
  <path fill="#009B3A" fill-rule="nonzero" d="M22.23 12.89c-.13 0-.13.14-.13.14s.01-.05 0 0c0 .05.02.16.12.17.1.01.13-.11.13-.16 0-.02-.01-.15-.12-.15zm0 0L2.23.08l20 12.81z"/>
  <path fill-rule="nonzero" d="M22.23 12.92c-.07 0-.09.05-.09.08l-.01.03c0 .03.01.07.03.1.01.02.03.04.06.04h.01c.03 0 .05-.01.06-.04.02-.02.03-.06.03-.08v-.01c0-.01 0-.06-.03-.09-.01-.02-.03-.03-.06-.03v-.03.03zm-.16.11v-.04c.06-.7.07-.72.08-.55.03-.21.05-.24-.01.44.03-.01.06-.02.09-.02.05 0 .09.02.11.05.04.05.04.11.04.13v.01c0 .04-.01.08-.03.12-.03.04-.07.07-.12.06h-.02c-.04 0-.08-.03-.1-.06v-.01l-.04.18v-.31zm-5.71 2.8-.05-.08c0-.01-.01-.02-.03-.04-.01-.01-.02-.02-.04-.02h-.01c-.01 0-.02 0-.03.01-.02.01-.03.02-.03.04s.01.04.03.08l.04.07.12-.06zm.45-.03-.58.34-.17-.29c-.04-.06-.06-.1-.06-.14a.118.118 0 0 1 .01-.1c.01-.03.04-.06.07-.08.03-.02.06-.03.1-.03.03 0 .06.01.09.02.01.01.03.03.06.05-.01-.02-.01-.04-.01-.06 0-.01.01-.02.01-.04.01-.03.02-.04.02-.05l.12-.19.12.21-.12.19c-.02.03-.02.05-.03.06 0 .02.01.04.02.05l.01.02.23-.14.11.18zm-1.02-.47-.17-.52.13-.05.11.33.1-.03-.1-.31.13-.04.1.3.13-.04-.11-.34.14-.05.18.54-.64.21zm.02-1.07v-.05c-.01-.04-.02-.06-.03-.08-.02-.01-.03-.02-.05-.02-.01 0-.01 0-.01.01-.02 0-.04.01-.05.02-.01.02-.02.04-.01.08v.06l.15-.02zm-.26.24-.04-.34c-.01-.07 0-.13.04-.17.03-.04.08-.07.14-.07.07-.01.12 0 .16.04.05.03.07.09.08.18l.02.11.24-.03.03.21-.67.07zm-.02-1.3.02-.21.4.05c.03 0 .07.01.11.03.03.01.06.03.08.06.02.03.04.06.05.09.01.04.01.09 0 .15 0 .03-.01.07-.01.1-.01.04-.03.07-.04.1-.02.02-.04.04-.07.06-.02.02-.05.03-.08.04-.04 0-.08.01-.11 0l-.4-.04.02-.2.41.04c.04 0 .07 0 .09-.02.02-.02.03-.05.04-.08a.2.2 0 0 0-.02-.09c-.02-.02-.05-.03-.09-.04l-.4-.04zm.66-.56.04-.1c.01-.04.01-.06.01-.08-.01-.02-.03-.03-.04-.04-.02 0-.04 0-.06.01-.01.01-.03.03-.04.06l-.03.1.12.05zm-.24-.09.03-.08c.01-.03.01-.06 0-.07 0-.02-.02-.03-.04-.04h-.02c-.01 0-.02 0-.03.01-.01 0-.02.02-.03.05l-.03.09.12.04zm-.32.11.13-.37c.02-.06.05-.1.09-.12.03-.01.05-.02.08-.02.02 0 .03 0 .05.01.04.01.07.04.09.07.01.02.01.05.01.08.03-.04.06-.07.09-.08.04-.01.08-.01.12.01.03.01.06.02.08.05.02.02.03.05.04.08 0 .02 0 .05-.01.08-.01.05-.02.08-.02.09l-.12.34-.63-.22zm.34-.86.11-.17.43.26.17-.28.14.09-.28.45-.57-.35zm.44-.65.14-.16.51.43-.14.16-.51-.43zm.93-.36.17-.08c.02.05.04.09.04.14v.01c0 .04-.01.07-.03.11-.02.04-.05.07-.09.11-.06.05-.11.08-.16.09-.05.02-.1.01-.16-.01a.382.382 0 0 1-.17-.12.402.402 0 0 1-.1-.25c.01-.09.05-.16.14-.23.06-.06.12-.08.18-.09.06 0 .12.01.19.05l-.12.15c-.02-.01-.03-.02-.04-.02h-.06c-.02 0-.03.01-.05.02-.04.03-.05.07-.05.12.01.03.03.07.07.12.04.05.08.08.12.09.03.01.07 0 .1-.03.03-.02.05-.05.05-.08s-.01-.07-.03-.1zm.67-.4-.17-.18.04.24.13-.06zm.11.11-.21.1.02.12-.19.09-.08-.71.2-.1.53.48-.19.1-.08-.08zm.81-.7.05.36.05-.01c.05 0 .08-.01.09-.02.02-.02.03-.03.04-.06v-.12c-.01-.07-.03-.11-.06-.14-.02-.02-.06-.03-.12-.02l-.05.01zm-.22-.12.3-.05c.06 0 .11 0 .15.01.04.01.07.03.1.06.03.02.05.05.07.09.01.04.03.09.03.13.01.07.01.13 0 .17-.01.04-.03.07-.05.1-.03.03-.06.06-.09.07-.03.02-.07.03-.12.04l-.3.04-.09-.66zm.91-.13.55.04-.01.14-.35-.02-.01.1.32.03-.01.13-.32-.02-.01.13.36.02-.01.16-.56-.05.05-.66zm.85.08.19.05-.13.49.31.08-.05.16-.51-.14.19-.64zm1.12.74.05.03c.03.02.06.03.08.02.02 0 .04-.01.05-.03.01-.01.01-.03.01-.05-.01-.02-.02-.04-.06-.06l-.05-.04-.08.13zm-.01-.35.28.19c.07.04.1.08.11.13.02.05 0 .11-.03.16a.22.22 0 0 1-.14.1c-.06.01-.12-.01-.19-.06l-.09-.06-.14.21-.17-.12.37-.55zm.72 1.01.12-.22-.22.12.1.1zm-.07.14-.17-.17-.1.06-.15-.15.31-.14.34-.16.16.16-.29.65-.15-.15.05-.1zm.62.29.05.07c0 .01.01.02.04.04 0 .01.02.02.03.02h.01c.01 0 .02 0 .03-.01.02-.01.03-.03.03-.04a.16.16 0 0 0-.03-.08l-.04-.08-.12.08zm-.45.04.57-.36.18.29c.04.05.06.09.07.13v.04c0 .02 0 .04-.01.06-.01.03-.04.06-.07.08-.04.03-.07.04-.1.04s-.06-.01-.09-.02c-.02-.02-.04-.03-.06-.05.01.02.01.04.01.06 0 .01-.01.03-.01.04-.01.02-.01.04-.02.05l-.11.19-.13-.2.12-.2c.01-.03.02-.04.02-.06 0-.02 0-.03-.02-.05v-.01l-.23.14-.12-.17zm.79.9.2-.15-.25.01.05.14zm-.12.09-.08-.22h-.11l-.07-.2.71.01.08.21-.55.47-.07-.21.09-.06zm.32.71.14-.02.04.32-.28.03a.479.479 0 0 1-.11-.15c-.02-.04-.03-.1-.04-.16-.01-.08-.01-.15.02-.2.02-.05.05-.1.1-.13s.11-.06.18-.06c.07-.01.14-.01.19.02.06.02.11.06.14.11.03.05.05.1.06.18.01.07.01.13 0 .17-.01.03-.03.07-.05.1-.03.03-.06.05-.1.06l-.06-.19a.12.12 0 0 0 .05-.05c.01-.02.01-.05.01-.08a.207.207 0 0 0-.06-.1.23.23 0 0 0-.15-.02c-.08.01-.12.03-.15.06s-.04.07-.03.12c0 .02.01.04.01.06.01.02.03.05.05.07l.06-.01-.02-.13zm.43 1-.03.2-.39-.04c-.04-.01-.08-.02-.11-.03-.04-.02-.06-.04-.09-.07-.02-.03-.04-.06-.04-.09-.01-.04-.02-.09-.01-.14.01-.04.01-.07.02-.11.01-.04.02-.07.04-.09.02-.03.04-.05.06-.07.03-.01.06-.03.08-.03.05-.01.09-.01.12-.01l.39.05-.02.2-.4-.04c-.04-.01-.07 0-.09.02-.02.01-.04.04-.04.08-.01.03 0 .06.02.08.02.02.04.04.08.04l.41.05zm-.62.76.25.01-.2-.15-.05.14zm-.15-.01.08-.22-.1-.07.07-.2.55.46-.07.21-.71.02.07-.2h.11zm.37.62-.12.19h-.26l.13.24-.12.19-.2-.42-.24-.14.1-.18.24.14.47-.02z"/>
  <path fill-rule="nonzero" d="M24.14 13.71c0 1.24-.5 2.35-1.3 3.16-.81.81-1.93 1.31-3.17 1.31-1.23 0-2.35-.5-3.16-1.31a4.442 4.442 0 0 1-1.31-3.16c0-1.23.5-2.35 1.31-3.16a4.46 4.46 0 0 1 3.16-1.31c1.24 0 2.36.5 3.17 1.31.8.8 1.3 1.91 1.3 3.14v.02zm-1.37 3.1c.79-.79 1.28-1.88 1.28-3.09v-.01c0-1.21-.49-2.3-1.28-3.09-.79-.8-1.89-1.29-3.1-1.29-1.21 0-2.3.49-3.09 1.29-.79.79-1.28 1.88-1.28 3.09s.49 2.3 1.28 3.1c.79.79 1.88 1.28 3.09 1.28s2.31-.49 3.1-1.28z"/>
  <path fill-rule="nonzero" d="M23.01 13.74c-.01.91-.38 1.72-.97 2.32-.61.6-1.44.97-2.37.97-.92 0-1.75-.37-2.36-.97-.6-.61-.98-1.44-.98-2.37 0-.92.38-1.75.98-2.36.61-.6 1.44-.97 2.36-.97.93 0 1.76.37 2.36.97.61.61.98 1.44.98 2.36v.05zm-1.04 2.25c.59-.59.95-1.4.95-2.3 0-.9-.37-1.7-.95-2.29-.59-.59-1.4-.95-2.3-.95-.89 0-1.7.36-2.29.95-.59.59-.95 1.4-.95 2.29 0 .9.36 1.71.95 2.3.59.59 1.4.95 2.29.95.9 0 1.71-.36 2.3-.95z"/>
  <path fill-rule="nonzero" d="m19.69 12.5.27.78.88.02-.7.54.26.84-.73-.5-.72.5.25-.84-.7-.54.88-.02.29-.83z"/>
  <path fill="#009B3A" fill-rule="nonzero" d="M21.19 15.97c-.02.02-.14.03-.17.04-.03 0-.14 0-.19.01-.03 0-.08.01-.11.01-.24-.03.39-.03.47-.06zm-.63-.19c.02-.03.1-.2.12-.25.03-.05.1-.18.14-.24.02-.03.1-.11.12-.08-.14.12-.25.33-.31.47 0 .01-.05.09-.07.11-.01.02-.01.06-.03.06-.03.01-.01.01-.01.01s.02-.05.04-.08zm.91.14s-.11-.02-.17-.04a.825.825 0 0 0-.28-.04c-.1 0-.19.03-.26.06-.08.03-.18.03-.18.03s-.06.01-.03-.01c.02-.01.11-.08.11-.08l.06-.08c.01 0 .3-.38.27-.48.05-.08.1-.21.08-.23a.805.805 0 0 0-.27.11c-.06.05-.1.14-.11.2-.02.06-.1.1-.1.1-.07.05-.12.21-.14.33-.02.13-.33.2-.33.2s-.09.03-.01.05c.01 0 .05.06.07.06.04.01.23-.07.26-.07.06.02.13.03.19.05.07.03.13.04.18.02.06-.02.13-.01.18 0 .06.01.12.01.15 0 .04-.01.14-.07.14-.07s.11-.04.17-.07c.06-.03.02-.04.02-.04zm0 0L2.23.08l19.24 15.84z"/>
  <path fill-rule="nonzero" d="M21.21 15.99c-.03.02-.12.03-.16.04h-.02c-.02.01-.09.01-.14.01h-.1c-.03.01-.05.01-.07.01-.06-.01-.08-.02-.08-.04 0-.03.1-.03.22-.04.13 0 .29-.01.33-.02v.02l.02.02zm-.52.03.01-.01c-.01 0-.01 0-.01.01zm-.15-.25c.01-.02.02-.05.04-.09.03-.06.07-.14.08-.17.01-.01.03-.04.04-.07.03-.05.07-.12.1-.16.01-.02.04-.05.06-.07.01-.01.03-.02.04-.02.02-.01.03-.01.05 0l.01.01.01.02-.02.01a.7.7 0 0 0-.15.19c-.06.09-.11.19-.15.27 0 .01-.02.04-.04.07-.01.02-.02.04-.03.05 0 0 0 .01-.01.02 0 .02-.01.04-.03.05l-.01.01-.02-.01s-.11-.03 0-.05l.03-.06zm.9.16c-.04 0-.1-.02-.15-.03-.04-.01-.08-.02-.13-.03-.05-.01-.1-.01-.14-.01-.05 0-.09.01-.13.02-.05.01-.09.03-.12.04-.08.03-.18.03-.19.03-.01 0-.03.01-.05.01-.02.01-.02.01-.02 0-.04 0-.07-.01.03-.06.01 0 .09-.06.1-.07l.06-.08.01-.01c.01 0 .08-.09.14-.19.07-.11.13-.22.12-.26v-.02c.03-.04.05-.1.07-.14.01-.04.01-.06.01-.07 0 .01-.06.03-.12.05-.05.03-.1.05-.12.07-.02.01-.04.04-.05.07-.02.04-.04.09-.05.12-.02.06-.1.11-.11.11-.03.02-.05.06-.07.11-.03.06-.05.14-.06.21-.02.13-.32.2-.34.21-.01 0-.02.01-.01.01s.02.01.03.03l.03.03h.01c.01 0 .06-.02.12-.04s.11-.04.14-.03c.03.01.06.01.09.02l.1.03c.03.01.07.02.09.03.03 0 .05 0 .08-.01.02-.01.05-.01.08-.01.04 0 .08 0 .11.01.02 0 .05.01.07.01.03-.01.05-.01.07-.01.03-.02.13-.07.13-.07s.11-.04.17-.07v-.01zm-.14-.08c.07.03.18.04.18.04l-.01.03.01-.03s.09.04-.02.09c-.06.03-.16.07-.17.07-.01.01-.1.06-.14.07-.02.01-.05.01-.08.01h-.08c-.03-.01-.07-.01-.1-.01-.02 0-.05 0-.07.01-.03.01-.06.01-.09 0-.03 0-.07-.01-.11-.02l-.09-.03a.292.292 0 0 0-.09-.02c-.01-.01-.06.01-.12.03-.05.02-.12.04-.14.04-.03-.01-.05-.03-.07-.05 0-.01 0-.02-.01-.02-.14-.04.01-.1.01-.1.01 0 .29-.06.32-.17.01-.07.03-.15.06-.22.02-.05.05-.1.08-.12l.01-.01s.07-.04.08-.08c.01-.04.03-.09.06-.13.01-.04.04-.07.06-.09.02-.02.08-.05.13-.07.08-.03.17-.05.18-.04.01.02.01.06-.01.11-.01.05-.04.1-.06.14.01.07-.06.19-.13.29-.06.1-.13.18-.15.21l-.06.08-.06.04c.04 0 .09-.01.13-.02.04-.02.08-.03.12-.05.05-.01.1-.02.15-.02.05 0 .1.01.15.01.05.01.1.02.13.03z"/>
  <path fill="#009B3A" fill-rule="nonzero" d="M20.64 16.28s-.42-.22-.44-.22c-.02 0-.19-.1-.27-.13-.06-.01-.14-.02-.17-.02-.07.01-.19.04-.19.04l.11.04.14.07c.07.04.08.08.08.08l.38.17.07.06s.08-.1.29-.09zm0 0L2.23.08l18.41 16.2z"/>
  <path fill-rule="nonzero" d="m20.56 16.27-.37-.19c-.01 0-.03-.02-.07-.04-.06-.03-.15-.07-.2-.09-.02-.01-.05-.01-.08-.01-.03-.01-.07-.01-.08-.01-.04 0-.09.01-.13.02l.06.02s.1.05.14.08c.06.03.08.06.08.08.15.07.31.12.44.21.03-.02.09-.07.21-.07zm-.36-.23c.05.01.45.23.45.23l-.01.01v.02c-.21-.01-.27.08-.27.08l-.01.01-.09-.06-.39-.17v-.02s-.01-.03-.06-.06c-.05-.02-.14-.07-.15-.07l-.15-.07.05-.01s.11-.03.18-.04c.02 0 .06 0 .1.01.02 0 .05.01.08.02.05.01.15.06.21.09.03.02.06.03.06.03z"/>
  <path fill="#009B3A" fill-rule="nonzero" d="M21.06 15.41c.14-.12.2-.29.31-.38.02.01.02.03 0 .07-.02.04-.05.05-.06.07-.03.03-.09.09-.11.12-.02.03-.04.07-.09.11-.06.03-.04.09-.05.11 0 .02-.09.09-.13.17-.01.08-.02.04-.07.07.09-.13.14-.22.2-.34zm-.29.37c-.01.02-.27.17-.19.15.08-.02.32-.11.39-.14.08-.04.13-.11.2-.18.06-.06.26-.25.29-.32.04-.08.07-.18-.07-.42 0 0-.02.05-.07.09-.05.04-.12.09-.12.09l-.09.09s-.3.56-.34.64zm0 0L2.23.08l18.54 15.7z"/>
  <path fill-rule="nonzero" d="M21.05 15.39c.06-.06.11-.13.16-.2s.09-.13.14-.18l.02-.01.02.01c.01.01.02.03.02.05 0 .01-.01.03-.02.05-.02.03-.03.04-.05.06l-.01.01v.01l-.05.05c-.02.02-.05.04-.06.06-.02.04-.04.08-.1.12-.03.02-.03.05-.03.07v.02c-.01.02-.03.04-.05.07-.03.03-.07.06-.09.1-.01.07-.01.07-.04.08-.01 0-.02.01-.03.01l-.1.06.06-.09c.05-.07.08-.12.11-.18.03-.05.06-.1.09-.16l.02.01v-.01l-.01-.01zm.29-.29-.02.02c.01-.01.02-.01.02-.02zm-.55.69c-.01.02-.05.05-.1.08l.07-.03c.08-.03.17-.06.2-.07.06-.03.1-.07.14-.12.02-.02.03-.04.05-.05l.03-.03c.08-.08.23-.23.26-.29a.29.29 0 0 0 .03-.14.748.748 0 0 0-.08-.22c-.01.02-.03.04-.05.06-.05.04-.11.09-.13.09l-.08.08c-.02.05-.3.56-.34.64h-.02.02zm-.13.04c.05-.03.08-.06.08-.06.05-.09.35-.64.35-.65.03-.02.07-.07.1-.09 0 0 .07-.05.12-.09.04-.04.06-.08.06-.08l.02-.04.03.04c.07.12.09.21.1.28 0 .07-.01.12-.03.16-.03.07-.2.22-.28.3l-.03.03c-.01.02-.03.03-.04.05-.05.05-.09.1-.16.13a2.721 2.721 0 0 1-.39.14c-.03.01-.05 0-.05-.01-.01-.03.06-.07.12-.11z"/>
  <path fill="#009B3A" fill-rule="nonzero" d="M21.83 15.59s-.17-.02-.18-.02c-.02 0-.11-.01-.24-.01-.14 0-.19.04-.22.08l-.14.14.05-.01c.14-.1.24-.06.28-.07.05 0 .1.01.23-.04.14-.05.13 0 .12 0-.07.02-.14.04-.21.04-.1.01-.18.03-.22.03-.04 0-.34.08-.34.08s.32.02.35.03c.04.01.09 0 .14-.02.12-.05.17-.06.22-.07.05-.01.11-.05.11-.05s.04-.02.07-.07c.03-.06-.02-.04-.02-.04zm.15-.88c.02-.05.07-.16.13-.21.03-.03.09-.04.12-.05.01-.01.1-.01-.01.02-.05.01-.12.04-.14.09-.04.11-.08.21-.15.28-.06.05-.09.13-.09.13l-.06.02c.11-.07.15-.19.2-.28zm.52-.06c-.06.02-.08.04-.08.04-.14.04-.19.13-.25.2-.03.03-.08.06-.22.12-.13.06-.23.14-.23.14s-.05.01-.04.03c0 .01.04.01.04.01s.27-.04.38-.11a.49.49 0 0 0 .19-.19c.03-.04.06-.13.06-.07.01.15-.23.29-.33.34-.05.02-.12.03-.22.04-.09.02-.15.02-.14 0 .01-.03.02-.04.04-.07.05-.05.16-.07.23-.11.1-.04.19-.1.23-.16.05-.05.06-.07.08-.11.03-.12.03-.19.06-.23.12-.14.14-.19.14-.25 0-.01-.06.03-.09.05-.06.04-.08.04-.21.07-.13.03-.13.12-.15.16 0 .01-.05.08-.08.09-.02.01-.08.1-.11.15-.01.04-.04.07-.07.06-.02 0 .05-.28.07-.32.01-.05.02-.13.02-.16s0-.11-.05-.11c-.05-.01-.05-.08-.05-.08-.12.1-.05.28-.04.39.01.11-.03.3-.03.3.12.05.03.19-.01.24-.03.04-.11.05-.14.09-.03.04-.27.38-.27.38l.3-.09s.02.01-.02-.03c-.04-.03.01-.15.05-.19.08-.05.18-.01.18-.01s.13.02.3-.05c.15-.05.21-.14.27-.21.04-.04.11-.16.15-.24.02-.04.07-.12.04-.11zm0 0L2.23.08 22.5 14.65z"/>
  <path fill-rule="nonzero" d="m21.83 15.61-.18-.01c-.01 0-.02-.01-.03-.01-.04 0-.11-.01-.21-.01-.07 0-.11.01-.14.03-.03.01-.05.03-.06.05-.02.01-.04.03-.06.05.09-.04.16-.04.2-.03h.05c.04 0 .09 0 .21-.04.07-.03.1-.03.12-.02.01 0 .02.01.02.01.01.01.01.02.01.03-.01.01-.02.02-.03.02-.03.02-.06.03-.1.03-.03.01-.07.01-.1.02-.06 0-.11.01-.15.01-.04.01-.07.01-.08.01-.02 0-.1.02-.18.04.09.01.18.02.2.02v.01h.05c.02 0 .05-.01.07-.02.11-.05.17-.07.22-.08h.01c.04-.01.1-.04.1-.04.01 0 .03-.02.05-.06.01-.01.02-.01.02-.01l-.01-.02v.02zm-.18-.06c.01 0 .15.01.18.01.02 0 .09-.01.04.08-.04.06-.07.08-.07.08s-.07.04-.12.05h-.01c-.05.01-.1.02-.21.08-.03.01-.06.01-.08.02-.03 0-.05 0-.07-.01-.04-.01-.35-.03-.35-.03l-.14-.01.13-.04.08-.01v-.01s.11-.09.14-.13l.01-.02-.01.01.04-.06.27-.37c.02-.03.05-.04.08-.05.02-.02.05-.03.06-.05l.03-.03-.07.02.08-.05c.01 0 .01-.01.01-.02.01-.02.02-.04.02-.06 0-.02-.01-.03-.03-.04 0-.01-.01-.01-.02-.01l-.01-.01v-.02s.04-.19.02-.3c0-.02 0-.04-.01-.06-.02-.11-.04-.26.06-.35l.04-.03v.05s0 .05.03.05c.07.01.07.1.07.14v.1c-.01.02-.01.05-.02.07-.01.03-.04.15-.06.23 0 .02-.01.04-.01.05.01-.01.02-.02.03-.04.01-.03.04-.07.06-.1.02-.03.05-.06.06-.06l.04-.04c.01-.02.03-.04.03-.04v-.01c.01 0 .01-.01.01-.02.02-.05.04-.11.15-.14l.07-.02c.07-.02.09-.02.14-.05.01 0 .02-.01.04-.02.02-.02.05-.04.06-.04.02.01.03.02.03.03-.01.04-.01.07-.04.11-.01.04-.05.08-.11.16-.01.02-.02.05-.03.1-.01.03-.02.07-.03.11.04-.03.08-.06.15-.08.01-.01.03-.02.08-.04.06-.02.06.02.03.07l-.04.08-.02.04c-.04.07-.1.16-.13.19-.01.02-.02.03-.04.05-.05.06-.12.13-.24.17-.17.07-.32.05-.32.05s-.09-.04-.15.01l-.02.02c-.01.02-.03.05-.04.08 0 .02-.01.04 0 .05.12.09.04.08.01.08l-.07.02c.07 0 .13 0 .16.01h.03zm.31-.85.05-.1c.03-.05.05-.09.08-.12.03-.02.07-.03.1-.04.01-.01.02-.01.03-.01v-.01h.05c.01 0 .01 0 .02.01s.01.03-.01.04c0 .01-.02.01-.06.02-.02.01-.05.02-.08.04-.02.01-.03.02-.04.04-.02.05-.04.11-.06.15-.03.05-.06.1-.1.13-.05.06-.08.13-.08.13v.01l-.15.05c-.01.03-.03.06-.05.08-.02.03-.05.04-.08.06-.02.01-.05.02-.06.04-.02.02-.16.22-.23.31l.2-.05v-.01c-.02-.02-.02-.06-.01-.09.01-.04.02-.07.04-.09.01-.02.02-.03.03-.03.03-.03.06-.04.09-.04 0 0-.01-.01-.01-.02 0 0 0-.01.01-.01 0-.03.01-.04.03-.06l.01-.01c.04-.05.1-.07.16-.09l.04-.01.06-.03.04-.02c.03-.01.05-.03.07-.04a.818.818 0 0 0 .14-.14c.01-.02.02-.03.02-.05.02-.04.02-.08.03-.11.01-.05.02-.09.05-.12.05-.07.08-.12.1-.15.01-.02.02-.03.02-.05l-.01.01c-.01.01-.03.02-.04.02-.05.03-.07.04-.15.06l-.06.01c-.09.03-.11.08-.12.11-.01.02-.01.03-.01.04-.01.01-.03.03-.05.06-.02.02-.03.03-.05.04-.01 0-.02.02-.04.05-.02.03-.04.06-.05.09-.01.02-.03.04-.04.05-.02.02-.04.03-.06.03l-.01-.01c-.01 0-.02-.02-.02-.04.01-.02.01-.04.01-.06.02-.09.05-.22.06-.25.01-.02.02-.04.02-.06v-.09c0-.03 0-.09-.02-.09-.04-.01-.05-.03-.06-.05-.06.07-.04.18-.02.27 0 .02.01.05.01.07.01.09-.01.24-.02.29.01 0 .01.01.01.01.03.02.04.05.04.08v.04l.04-.02c.08-.05.12-.14.16-.21l.03-.06zm.52-.01c-.04.01-.05.02-.05.02-.12.04-.17.1-.22.16l-.02.03c-.02.02-.04.04-.08.06-.02.01-.06.03-.11.05l-.06.03c-.01.01-.02.02-.04.02-.06.04-.12.07-.15.1.08-.02.26-.05.34-.1.04-.02.06-.04.09-.07.03-.02.05-.06.09-.11 0-.01.01-.03.02-.04.02-.04.03-.07.06-.07.01 0 .02.02.03.05 0 .02-.01.04-.01.06.01-.03.03-.06.04-.09l.03-.04a.21.21 0 0 1 .04-.06zm-.77.48h-.01v.01c.01 0 .01 0 .01-.01zm.51-.11c-.06.05-.14.1-.19.12-.05.02-.11.03-.19.04l-.03.01c-.03 0-.05 0-.06.01.03 0 .15.01.29-.05a.42.42 0 0 0 .18-.13z"/>
  <path fill="#009B3A" fill-rule="nonzero" d="M21.66 15.45c.02-.01.02-.01.06-.06.05-.04.01-.12-.05-.11-.04 0-.07-.01-.13.07-.06.09.03.12.06.12.02 0 .03-.01.06-.02z"/>
  <path fill-rule="nonzero" d="M21.65 15.43c.01-.01.02-.01.05-.05.01-.01.02-.02.02-.03-.01-.01-.01-.02-.01-.02 0-.01-.01-.01-.01-.02-.01 0-.02-.01-.03-.01h-.01c-.03 0-.05 0-.1.07-.01.01-.01.02-.01.03v.01c0 .01.01.01.01.02.01.01.03.01.04.01h.02c.01 0 .02-.01.03-.01zm.09-.01a.27.27 0 0 1-.07.06c-.02 0-.03.01-.04.01-.01 0-.02.01-.03.01v-.01c-.02 0-.05 0-.07-.02l-.03-.03c0-.01-.01-.03-.01-.04.01-.02.01-.04.03-.06.06-.09.1-.09.14-.09.03 0 .06.01.07.02.01.01.02.02.03.04 0 .01.01.02.01.03 0 .03-.01.05-.03.07v.01z"/>
  <path fill="#009B3A" fill-rule="nonzero" d="M21.5 14.93c-.04.07-.06.15-.03.17.01 0 .04.03.06.03.02 0 .09-.03.12-.09.04-.06.07-.12 0-.15-.07-.04-.12-.01-.15.04zm0 0L2.23.08 21.5 14.93z"/>
  <path fill-rule="nonzero" d="M21.53 14.95c-.02.03-.04.06-.04.09-.01.02-.01.03 0 .04.01.01.03.02.04.02.01 0 .03-.01.05-.02.02-.02.04-.03.05-.06.02-.02.03-.05.04-.07 0-.01-.01-.03-.04-.04-.02-.01-.04-.01-.06-.01-.02.01-.03.02-.04.05l-.03-.02.03.02zm-.1.08c.01-.03.03-.07.05-.11.02-.03.04-.06.08-.07.03-.01.06-.01.1.01.05.03.06.06.06.1 0 .03-.02.06-.04.09s-.04.05-.07.07a.16.16 0 0 1-.08.03c-.03 0-.05-.01-.07-.02v-.01c-.03-.02-.03-.05-.03-.09z"/>
  <path fill="#009B3A" fill-rule="nonzero" d="M21.73 14.13s0-.01-.02-.04c-.04-.04-.09-.12-.09-.12-.09.05-.11.14-.11.17 0 .04.01.12 0 .2-.01.03-.01.07-.05.17s0 .19.01.23l.04.13s.04-.02.05-.02c.01-.01.05-.01.05-.01s.05-.08.05-.13c.01-.04 0-.1-.02-.2-.02-.14-.02-.18 0-.25.01-.08.09-.13.09-.13zm0 0L2.23.08l19.5 14.05z"/>
  <path fill-rule="nonzero" d="M21.71 14.11h-.02c-.03-.03-.06-.08-.08-.11-.02.02-.04.04-.05.06a.16.16 0 0 0-.03.08v.04c.01.05.01.11 0 .17 0 .03-.01.06-.05.17-.03.07-.01.15.01.19 0 .01 0 .01.01.02 0 .02.02.07.03.11l.02-.02h.05c.01-.02.04-.08.04-.11v-.08c-.01-.03-.01-.07-.02-.11-.01-.07-.02-.12-.02-.16 0-.04 0-.07.01-.11.02-.07.08-.12.1-.14zm.01-.04c.05.04.02.07.02.07l-.01-.01.01.02s-.07.04-.08.11c-.01.04-.01.07-.01.1 0 .04 0 .08.02.15 0 .04.01.08.01.11.01.04.01.07.01.09 0 .05-.06.15-.06.15v.01h-.07c-.01 0-.04.02-.04.02l-.02.01-.01-.02s-.03-.1-.04-.14l-.01-.02c-.01-.04-.04-.13 0-.22.03-.1.04-.13.04-.16.01-.06.01-.11 0-.15v-.05c0-.02.01-.07.04-.11.02-.03.05-.06.08-.08l.02-.01.01.02c.01 0 .06.07.09.11z"/>
  <path fill="#009B3A" fill-rule="nonzero" d="M21.85 14.26s.05-.01.07-.05c.03-.05.02-.1.02-.1-.07-.14-.17-.03-.17-.03-.08.18.08.18.08.18zm0 0L2.23.08l19.62 14.18z"/>
  <path fill-rule="nonzero" d="M21.85 14.24c.01 0 .03-.01.05-.04.02-.04.02-.07.02-.09-.05-.08-.11-.03-.13-.02-.05.13.04.15.06.15zm.09-.02c-.03.06-.09.07-.09.07v-.03.03s-.2-.01-.1-.22v-.01s.13-.14.22.03v.01s.01.07-.03.12z"/>
  <path fill="#009B3A" fill-rule="nonzero" d="M22.1 14.01c-.11 0-.16.2-.16.2s-.02.04-.08.08-.02.09-.02.19-.07.27-.07.27l-.03.05s.01.05.04-.03c.07-.13.14-.1.17-.24.02-.11.19-.14.19-.14l-.04-.01c-.19-.09.01-.3.04-.34.03-.04.06-.04-.04-.03zm0 0L2.23.08 22.1 14.01z"/>
  <path fill-rule="nonzero" d="M22.1 14.04c-.09 0-.13.17-.13.17l-.01.01s-.02.06-.08.1c-.03.01-.03.04-.02.08 0 .02.01.05.01.08 0 .05-.02.12-.04.17l.02-.01c.03-.03.06-.05.07-.12.01-.07.07-.11.13-.13-.08-.06-.07-.15-.04-.22.03-.06.07-.1.09-.13zm-.19.16c0-.02.06-.22.18-.22l.01.02-.01-.02h.02c.04-.01.06-.01.08 0 .03.03.01.04-.01.06l-.02.02v.01c-.02.02-.07.07-.09.12-.03.06-.03.12.04.16l.2.04-.16.03s-.15.03-.17.11c-.01.09-.05.12-.09.15-.02.03-.05.05-.08.1-.09.19-.1.03-.1.02l.03-.06s.06-.17.06-.26v-.07c-.01-.07-.02-.11.04-.14.05-.03.06-.07.07-.07z"/>
  <path fill="#009B3A" fill-rule="nonzero" d="M22.06 14.24c-.04.1.1.11.13.09l.04-.04c.06-.08.01-.14-.02-.15-.03-.01-.09-.01-.15.1zm0 0L2.23.08l19.83 14.16z"/>
  <path fill-rule="nonzero" d="M22.09 14.25c-.01.01-.01.03-.01.03 0 .01.01.02.01.02.01.01.02.01.03.01h.06l.04-.03-.01-.01c.01-.01.01-.02.02-.04v-.03c-.01-.02-.02-.02-.02-.03h-.01c-.01-.01-.03-.01-.05 0-.02.01-.04.03-.06.08l-.03-.01.03.01zm-.06.04c0-.01 0-.04.01-.06.03-.07.06-.1.09-.11.04-.01.06-.01.08 0 .01 0 .02 0 .03.01.01.01.03.02.03.04.01.02.01.04.01.06l-.02.01.02.01c-.01.02-.01.03-.03.05v.01s.35-.19-.05.04c-.02.01-.05.02-.08.01-.02 0-.04-.01-.06-.02-.01-.01-.03-.02-.03-.05zm.19-.01.06-.03-.02-.01-.05.03.01.01zm.06-.03c.17-.1.08-.06 0-.02v.02z"/>
  <path fill="#009B3A" fill-rule="nonzero" d="M21.8 13.83c.04.07.14.26.16.24.02 0 .01-.04.01-.04s-.01-.05-.02-.12c-.02-.06-.02-.14-.05-.19-.03-.05-.11-.11-.14-.19-.03-.09 0-.24 0-.26 0-.02.01-.01-.01-.02a.805.805 0 0 0-.14-.09s.01.05 0 .14c0 .02 0 .05-.01.08 0 .04.02.09.07.19.07.12.1.2.13.26zm.78-.91s-.04.06-.05.08c-.02.01-.23.19-.24.2-.01.01-.12.04-.22.31-.1.28-.06.53-.06.53l.05-.01.01-.02s.01-.09.03-.16c.01-.07.09-.16.14-.23.04-.07.08-.17.08-.17.06-.11.09-.21.14-.29.01.09-.36.67-.39.87l.1-.01c.09-.08.2-.24.28-.35.07-.11.1-.27.12-.35.01-.07.01-.4.01-.4zm0 0L2.23.08l20.35 12.84z"/>
  <path fill-rule="nonzero" d="M21.82 13.82c.02.03.05.1.09.15.02.04.04.09.04.08.01 0-.01-.02-.01-.02s0-.05-.02-.11c0-.02-.01-.05-.01-.07-.01-.05-.01-.09-.03-.12-.01-.01-.03-.03-.05-.06-.03-.04-.07-.08-.09-.14-.03-.08-.01-.23-.01-.26l.01-.01c-.01-.01-.07-.04-.1-.06v.1c0 .01-.01.02-.01.04v.05c-.01.01 0 .03.01.05.01.03.03.07.06.12.03.06.05.11.07.15.02.04.03.08.05.11l-.02.01.02-.01zm.04.17c-.03-.05-.06-.12-.08-.15a.37.37 0 0 1-.05-.11c-.02-.04-.05-.09-.08-.15a.666.666 0 0 0-.06-.12c-.01-.03-.01-.06-.01-.08v-.05c.01-.01.01-.02.01-.03 0-.09-.01-.14-.01-.14v-.05l.04.02s.13.08.15.1c.01.01.02.01.02.02s0 .02-.01.02v.01c0 .03-.02.16 0 .24.02.04.06.09.09.12.02.03.04.05.05.07.02.03.03.08.04.13 0 .02 0 .05.01.07 0 .01.01.03.01.04-.01-.1 0-.27.07-.44.09-.26.19-.31.22-.33h.01s.05-.04.1-.09c.06-.05.12-.1.13-.11.01-.01.05-.07.05-.07l.02.01h.02s.01.33-.01.41c-.01.04-.02.1-.04.16-.02.07-.05.14-.09.19l-.03.05c-.07.1-.16.23-.24.3l-.01.01-.14.02-.05.01c0 .01 0 .02-.02.03-.02.01-.07-.04-.11-.11zm.69-.99c0 .01 0 .01-.01.01 0 .01-.07.07-.13.12-.05.04-.1.08-.11.09h-.01c-.02.02-.11.07-.2.3a1.1 1.1 0 0 0-.06.49h.01l.01-.01.02-.16c.02-.06.08-.14.12-.2l.03-.04c.04-.06.08-.16.08-.16l.06-.12a.75.75 0 0 1 .08-.18l.05-.06v.08c0 .05-.08.2-.17.38-.09.17-.19.35-.22.46l.06-.01c.07-.06.16-.19.23-.29l.04-.04c.03-.05.06-.12.08-.18.02-.07.03-.12.03-.16.01-.05.01-.22.01-.32z"/>
  <path fill="#009B3A" fill-rule="nonzero" d="M21.86 12.98c-.06-.05-.1-.07-.1-.07s.01.1.01.16.01.17.01.22c-.01.05-.03.14.01.23s.08.13.11.19c.03.05.08.33.08.33s-.02-.38 0-.48c.01-.11.02-.27 0-.35a.714.714 0 0 0-.12-.23zm.25-.36c.01-.04.05-.1.07-.2 0-.05.01-.12.01-.16 0-.04-.02-.09 0-.09.01-.01 0 .01.01.06 0 .02-.01.06-.01.12-.01.05-.01.09-.03.16-.02.05 0 .12-.01.13-.02.02-.05.09-.05.09s-.02.06-.02.11c.01.05.01.1.01.1s.02-.04.08-.05c0 0 .01-.08.01-.11s.03-.2.05-.26c.02-.08.04-.22 0-.38-.01-.04-.01-.17-.01-.17s-.06.04-.09.19c-.01.05.01.17.01.31-.01.07-.08.37-.09.39l.06-.24zm0 0L2.23.08l19.88 12.54z"/>
  <path fill-rule="nonzero" d="M21.84 13c-.02-.02-.04-.03-.05-.04 0 .03.01.08.01.11v.27c-.01.05-.02.11.01.17.02.05.05.09.07.12.02.02.03.04.04.06.01.02.02.05.03.09 0-.09 0-.18.01-.23 0-.05.01-.12.01-.19 0-.06-.01-.11-.02-.14a.578.578 0 0 0-.05-.14.555.555 0 0 0-.06-.08zm-.07-.11s.05.02.1.07l-.01.02.01-.02c.03.03.05.06.07.1.03.05.05.1.06.14.01.04.01.1.02.16 0 .07-.01.14-.02.2-.01.1.01.47.01.47l.01.35-.06-.34s-.05-.27-.08-.32a.21.21 0 0 0-.04-.06c-.02-.03-.05-.07-.08-.13a.346.346 0 0 1-.01-.2v-.26c0-.06-.01-.15-.01-.15l-.01-.04.04.01zm.32-.29v-.01c.01-.05.02-.1.02-.12.01-.07 0-.14 0-.2v-.11c.03-.17.09-.21.09-.21l.04-.03v.04s.01.14.02.18c.01.07.02.14.02.2 0 .08-.01.14-.03.19 0 .02-.02.08-.03.13-.01.05-.02.11-.02.12 0 .02-.01.11-.01.12v.01l-.02.01c-.04 0-.06.04-.06.04l-.04.07v-.09s-.01-.03-.01-.07l-.03-.02c.01-.01.03-.12.05-.22l.01-.02v-.01zm.07-.26v-.11c0-.04-.01-.08.02-.09.02 0 .02 0 .03.01-.01-.02-.01-.07-.01-.11-.02.02-.03.06-.04.13-.01.01 0 .05 0 .1v.07zm.06-.16v.1c-.01.02-.01.05-.01.07v.01c0 .05-.01.09-.03.15-.01.03-.01.06-.01.09 0 .02.01.04 0 .06-.01.01-.04.07-.05.08 0 .01-.01.06-.01.1v.05c.01-.01.02-.01.04-.02v-.09c0-.02.01-.07.03-.13.01-.06.02-.11.03-.14.01-.04.02-.1.02-.17 0-.05 0-.1-.01-.16z"/>
  <path fill="#009B3A" fill-rule="nonzero" d="M22.11 12.62h-.01.01z"/>
  <path fill-rule="nonzero" d="M22.13 12.63v-.01h-.01l.01.01zm-.05-.01s0-.01.01-.02l.09-.17-.05.19c0 .01-.01.02-.01.02l-.04.04v-.06zm.01-.02-.01.01h.01v-.01z"/>
  <path fill="#009B3A" fill-rule="nonzero" d="M21.91 11.84c.02 0 .02.03.02.05-.01.02-.01.07-.01.08 0 .01.02.07.02.1.01.04.03.05.02.12 0 .04-.05.09-.03.16.01.04.04.08.05.12.01.02.01.08.01.12 0 .05.02.08.02.08s-.03.05-.04-.02c-.01-.08-.01-.12-.03-.15-.02-.06-.05-.17-.01-.26.01-.01.02-.05.02-.08 0-.04-.03-.1-.03-.14-.01-.03 0-.09 0-.12l-.01-.06zm-.14.41c.01.04.03.07.08.17.01.03.05.12.06.14 0 .03.01.06.01.07v.1s-.14-.08-.2-.13c-.07-.04-.14-.11-.19-.14-.05-.05-.17-.19-.17-.31l-.06-.05s-.04.26.16.43c.06.05.13.1.26.16.14.07.12.12.18.25.06.12.09.19.1.22.01.04-.02.56-.02.56l.01.05s.13-.48.19-.54c0 0-.12-.02-.11-.21l-.03-.12s-.02-.15.03-.24c0 0 .05-.17.03-.32-.01-.09-.01-.12-.03-.2-.01-.13-.06-.32-.07-.34-.02-.07-.02-.08-.05-.13 0-.02-.01-.08-.03-.08-.01 0-.03.08-.03.08s-.03.08-.03.11c-.02.07-.06.12-.07.28-.01.03-.01.1-.01.12-.01 0-.01.05-.01.07zm0 0L2.23.08l19.54 12.17z"/>
  <path fill-rule="nonzero" d="M21.91 11.81h.01l.03.03v.13s0 .02.01.04c0 .02 0 .04.01.06 0 0 0 .01.01.02 0 .02.01.04.01.1 0 .02-.01.03-.02.05a.36.36 0 0 0-.02.11c.01.02.02.04.03.07.01.01.02.02.02.04.01.02.01.05.01.08v.05c0 .04.02.06.02.06l.01.01v-.01a.86.86 0 0 0 .04-.31l-.03-.2c-.01-.11-.06-.28-.07-.32v-.02c-.02-.05-.02-.07-.04-.1 0-.01-.01-.02-.01-.04-.01-.02-.01-.05-.01-.05-.01 0-.01.06-.01.06s-.02.09-.03.11c0 .03-.01.05-.02.07-.02.05-.04.11-.05.21v.05c-.01.03-.01.06-.01.07v.06l-.03.01.03-.01c0 .04.02.07.06.15l.01.02c.01.02.03.06.04.09.01.02.02.05.02.06 0 .01.01.03.01.04v.03c0 .01.01.07.01.07v.07l-.04-.02s-.14-.08-.21-.13c-.05-.03-.1-.08-.14-.12l-.04-.03a.585.585 0 0 1-.13-.16.471.471 0 0 1-.06-.15l-.01-.01c0 .08.01.24.16.36.06.05.12.1.25.16.12.05.13.1.16.18.01.02.02.05.03.08l.04.07c.03.08.06.13.06.16.01.03 0 .28-.01.44.04-.13.09-.29.13-.36-.04-.02-.1-.07-.1-.21l-.02-.13s-.02-.11.01-.21c-.02.02-.06.08-.08-.03v-.03c-.01-.06-.02-.09-.03-.12-.01-.04-.03-.09-.03-.15 0-.04 0-.09.02-.13 0 0 .01-.01.01-.03v-.04c0-.02-.01-.05-.01-.07-.01-.03-.01-.05-.01-.07-.01-.02-.01-.07-.01-.1v-.02h.01v-.02c.01 0 .01-.01.01-.01v-.06zm-.09.6a.472.472 0 0 1-.07-.16v-.08c0-.01.01-.03.01-.06v-.05c.01-.11.04-.17.05-.23.01-.02.02-.04.02-.06.01-.02.04-.11.04-.11 0-.01.02-.1.05-.1.03.01.04.06.05.09l.01.01.01.02c.01.04.02.06.03.11l.01.01c.01.05.05.22.07.34 0 .04.01.07.01.1l.01.1c.02.15-.03.32-.03.32v.01c-.04.08-.02.23-.02.23l.02.12v.01c-.01.16.09.18.09.18l.05.01-.04.03c-.05.05-.18.53-.18.53l-.03.12c-.01-.05-.02-.13-.02-.18 0 0 .02-.52.02-.55a.848.848 0 0 0-.07-.15l-.03-.07c-.02-.04-.03-.06-.03-.09-.03-.06-.04-.1-.14-.15-.13-.06-.2-.11-.26-.16-.22-.18-.17-.46-.17-.46v-.04l.1.09v.01c0 .04.02.09.05.14.04.06.09.12.12.15l.04.03c.04.03.09.08.14.11.04.03.12.08.17.11 0-.02-.01-.05-.01-.06v-.02c0-.01 0-.03-.01-.04 0-.01-.01-.03-.02-.05a.465.465 0 0 0-.03-.09l-.01-.02z"/>
  <path fill="#009B3A" fill-rule="nonzero" d="M21.88 12.91s-.02-.05-.04-.07c-.04-.06-.1-.1-.27-.18-.16-.08-.2-.21-.29-.27a.288.288 0 0 0-.11-.04s.07.1.09.14c.02.04.03.07.12.15.09.09.2.12.27.14.1.03.23.13.23.13zm-.52-.78c.01.01.05.16.14.27.14.17.4.29.4.29-.03-.1-.07-.23-.1-.28-.12-.19-.44-.29-.44-.29v.01zm.38.08c.07-.15-.14-.3-.2-.41.02-.02.05.03.07.06.04.05.13.18.13.18l.03-.14-.25-.23c0 .03-.08.06-.08.06-.03.21.3.48.3.48zm0 0L2.23.08l19.51 12.13z"/>
  <path fill-rule="nonzero" d="M21.86 12.82c.02.03.04.08.04.08l-.02.01-.01.02c0-.01-.13-.1-.23-.13h-.01c-.07-.02-.18-.05-.27-.14-.08-.07-.09-.11-.11-.14l-.01-.02c-.02-.04-.09-.13-.09-.13l-.04-.06.07.02s.07.01.12.04c.03.02.06.06.09.1.05.05.1.12.19.17.09.04.14.07.19.1.04.03.06.05.09.08zm-.07 0a.884.884 0 0 0-.23-.14.638.638 0 0 1-.21-.18c-.03-.04-.05-.07-.08-.09a.076.076 0 0 0-.04-.02c.02.03.04.07.05.09l.01.01c.02.04.03.07.1.14.09.07.19.1.26.12l.01.01c.04.01.09.04.13.06zm-.45-.68c-.04-.1-.02-.09.01-.07 0-.01.01-.01.03.03.05.02.32.11.44.3.01.02.03.07.05.12.02.05.04.11.05.17l.01.05-.04-.02s-.27-.13-.41-.31a.981.981 0 0 1-.14-.27zm.06.02c.02.05.06.15.12.22.1.13.26.23.34.27-.01-.04-.02-.08-.03-.11-.02-.05-.04-.09-.05-.12-.09-.14-.29-.23-.38-.26zm.33.01c.01-.09-.06-.17-.13-.25-.03-.04-.06-.07-.08-.11l-.01-.01.02-.02c.03-.02.05 0 .07.03.01.01.02.02.03.04.02.03.07.09.1.13l.02-.07-.22-.2c-.02.02-.05.03-.06.04-.02.16.18.35.26.42zm.03-.1c.02.05.03.1 0 .15l-.02-.01-.02.02s-.34-.28-.3-.5v-.02h.02s.06-.02.06-.04v-.05l.3.27-.04.18z"/>
  <path fill="#009B3A" fill-rule="nonzero" d="M21.3 11.85c-.06.03-.08.03-.08.03l.04.09.02.02s.07.12.12.13c.02.01.09.02.16.05.09.04.24.17.24.17s-.24-.28-.34-.48l-.03-.12h-.09s.02.09-.04.11zm0 0L2.23.08 21.3 11.85z"/>
  <path fill-rule="nonzero" d="M21.31 11.87c-.02.02-.04.02-.06.03l.03.06.02.02s.07.11.11.12c0 0 .01 0 .03.01.03.01.08.02.13.04.03.01.05.03.08.04-.07-.09-.16-.22-.21-.32-.01-.03-.02-.08-.03-.11h-.04c0 .04 0 .09-.06.11l-.01-.02.01.02zm-.09-.01s.02 0 .07-.03c.05-.02.03-.08.03-.08l-.01-.03.14-.01.03.14c.1.2.34.47.34.47l.26.3-.3-.26s-.14-.13-.23-.17c-.05-.02-.09-.03-.13-.04-.01 0-.02 0-.03-.01-.05-.01-.12-.12-.13-.13l-.02-.03-.05-.12h.03z"/>
  <path fill="#009B3A" fill-rule="nonzero" d="M20.39 11.68c.04.03.08.07.13.1s.21.12.33.14c.02.01.17.02.17.02.01-.06.08-.07.08-.07l-.21-.02a.565.565 0 0 1-.4-.19c.14.08.33.21.48.2.64-.06-.19-.08-.26-.13-.08-.04-.14-.12-.14-.12l-.19-.01s-.09-.01.01.08zm0 0L2.23.08l18.16 11.6z"/>
  <path fill-rule="nonzero" d="M20.4 11.66c.02.02.04.03.06.05.03.02.05.03.07.04.03.02.08.05.14.08.06.03.12.06.18.07.02 0 .11.01.15.02 0-.01.01-.02.02-.03l-.08-.01h-.05a.611.611 0 0 1-.24-.07.552.552 0 0 1-.17-.14l-.05-.04-.05-.01s-.02 0 .02.04l-.01.02.01-.02zm.04.09c-.03-.02-.05-.04-.07-.06-.14-.12 0-.11.01-.11h.01l-.02-.03.04.03.17.01h.01s.06.08.13.12c.02.02.14.03.25.04.14.01.26.03.27.06 0 .02-.03.03-.09.05l.15.01-.2.03s-.05 0-.06.05v.02h-.02s-.15-.02-.18-.02c-.06-.02-.13-.05-.19-.08l-.14-.07c-.03-.02-.05-.03-.07-.05zm.47.08h.04c.01 0 .01.01.02 0 .16-.01.22-.01.22-.01 0-.01-.11-.01-.22-.02-.09-.01-.19-.02-.24-.03.06.03.12.05.18.06zm-.42-.2.05.03c.04.02.08.05.12.07a.45.45 0 0 1-.1-.1h-.07z"/>
  <path fill="#009B3A" fill-rule="nonzero" d="M21.14 12.04c.04 0 .07-.01.07-.06.01-.05-.01-.08-.07-.1-.03-.01-.09-.01-.11.05-.03.06.07.1.07.1s.01.01.04.01zm.07-.37c-.06 0-.08.05-.06.13.01.09.14.05.14.05l.03-.01s.01-.01 0-.08c0-.07-.06-.09-.11-.09zm.21.06c0 .01 0 0 0 0z"/>
  <path fill-rule="nonzero" d="M21.13 12.02c.02-.01.04-.01.04-.01.01-.01.02-.02.02-.03 0-.02 0-.04-.01-.05 0-.01-.02-.02-.04-.02a.064.064 0 0 0-.06 0c-.01 0-.02.01-.03.03-.02.04.05.07.05.07h.01s.01.01.02.01l.01.02-.01-.02zm.07.03c-.02.01-.04.01-.06.01-.03.01-.05 0-.05-.01 0 0-.12-.04-.09-.13a.17.17 0 0 1 .06-.06c.03-.01.06-.01.09 0a.219.219 0 0 1-.03-.05c0-.05 0-.09.01-.11.01-.03.04-.05.08-.05.03 0 .06 0 .08.02.03.01.05.04.06.08.01.08-.02.11-.02.11l-.03.01v.01s-.05.01-.1 0c.01.01.02.02.02.03.02.02.02.05.02.08-.01.03-.02.05-.04.06zm.01-.35c-.02 0-.03 0-.04.02 0 .01-.01.04 0 .08.01.05.1.03.11.03l.02-.01s.01-.02 0-.06c0-.03-.01-.04-.03-.05-.02-.01-.04-.01-.06-.01zm.21.06v-.05.05zm0-.05v.05-.05z"/>
  <path fill="#009B3A" fill-rule="nonzero" d="M21.42 11.73h.02c.03-.01.06-.08.06-.08.01-.09-.05-.11-.05-.11-.11-.02-.12.07-.12.07-.02.13.07.13.09.12zm-.48-.42c.01.04.07.1.07.11.01.01.09.09.11.12.03.04.11.2.11.2s.02-.01.02-.02c.02-.02-.05-.21-.06-.23-.03-.06-.07-.1-.11-.14-.01-.01-.04-.05-.08-.1.07.09.27.37.32.49 0 0 0-.13-.01-.2-.03-.2-.08-.27-.1-.3-.03-.05-.1-.1-.16-.12-.05-.02-.11-.05-.18-.07-.08-.02-.02.04.01.1.03.06.06.12.06.16zm0 0L2.23.08l18.71 11.23z"/>
  <path fill-rule="nonzero" d="m21.43 11.76-.01-.03v.03c-.01 0-.04 0-.07-.02v.12l-.05-.11c0-.01-.01-.03-.02-.05 0 .02 0 .03-.01.03-.01.02-.04.03-.04.03h-.01l-.01-.01s-.08-.16-.11-.19c0-.02-.02-.04-.04-.06l-.06-.06s-.01 0-.01-.01c-.01-.02-.07-.07-.07-.12-.01-.01-.01-.04-.02-.06-.01-.03-.03-.06-.05-.09 0-.02-.01-.03-.02-.04-.01-.03-.03-.06-.02-.08.01-.02.02-.03.06-.01.05.01.09.03.13.04l.06.02c.03.02.07.04.1.06.03.03.06.05.08.08v.01c.02.04.07.11.09.3v.01c.02-.03.06-.05.12-.03 0 0 .09.03.07.14 0 0-.04.08-.07.09-.01 0-.02.01-.02.01zm-.01-.05h.01c.02-.01.04-.06.04-.06.01-.06-.02-.08-.03-.09-.08-.01-.08.05-.08.05v.01c-.01.05 0 .07.01.08.02.01.04.01.05.01zm-.46-.4c.01.03.05.08.07.09l.07.07c.01.02.03.05.04.06.02.02.06.09.09.14l-.01-.02a.689.689 0 0 0-.03-.08l-.01-.03c-.07-.11-.15-.22-.2-.27v-.01l.04-.03.01.02c.03.04.06.07.06.08h.01v.01c.04.04.09.08.11.14 0 .01.01.03.02.06.03.04.05.07.06.1v-.1a.685.685 0 0 0-.09-.27l-.01-.01a.134.134 0 0 0-.06-.07c-.02-.02-.06-.04-.08-.05-.03-.01-.04-.02-.06-.02-.04-.02-.08-.03-.13-.05l.02.02c0 .02.01.03.02.05.01.03.03.06.04.09.01.03.02.06.02.08zm-.1-.25s0-.01-.01 0h.01z"/>
  <path fill="#009B3A" fill-rule="nonzero" d="M20.68 11.65c.07.06.1.1.24.12.15.02.16.01.16.01s.08-.03.04-.07c-.22-.09-.42-.21-.52-.33 0 0 .01-.02.09.05.04.05.07.07.1.09.08.06.11.07.19.11.04.03.14.05.14.05s.02-.03.03-.03c.02-.01-.01-.06-.1-.13-.05-.04-.09-.09-.13-.14-.04-.06-.11-.03-.22-.05-.09-.01-.25-.14-.25-.1 0 .03.02.14.07.21.04.07.09.14.16.21zm0 0L2.23.08l18.45 11.57z"/>
  <path fill-rule="nonzero" d="m20.69 11.63.02.02c.06.04.09.08.22.1.14.02.14.01.14.01s.04-.02.04-.03c-.11-.04-.22-.1-.31-.15a.839.839 0 0 1-.22-.19l-.02-.01.02-.02s.03-.03.13.06c.04.04.06.06.09.08.06.05.1.07.15.09l.04.02c.03.02.09.04.12.04.01 0 .01-.01.02-.02-.02-.02-.04-.05-.09-.09-.03-.02-.05-.05-.07-.07-.03-.03-.05-.05-.07-.08-.01-.02-.05-.02-.09-.02-.03 0-.07-.01-.12-.01a.793.793 0 0 1-.16-.08c-.02-.01-.04-.02-.05-.02 0 .02.01.05.02.08s.02.06.04.09l.01.02c.04.06.08.12.14.18zm-.01.05-.02-.02.01-.01-.01.01a.55.55 0 0 1-.15-.19l-.01-.01c-.02-.03-.03-.07-.05-.11-.01-.05-.02-.1-.02-.12 0-.02 0-.03.02-.03s.06.02.1.04c.05.03.11.06.15.07.04.01.08.01.11.01.06 0 .1 0 .13.04.02.03.04.05.06.08.02.02.04.04.07.06.05.04.08.08.1.1 0 .01.01.02.01.03 0 .01 0 .03-.01.03 0 .01-.01.01-.01.01l-.01.02-.01.01c.05.05-.04.1-.05.1 0 0-.02.02-.17-.01-.14-.02-.18-.05-.24-.11z"/>
  <path fill="#009B3A" fill-rule="nonzero" d="M19.46 16.04c-.06.02-.54.2-.54.2l-.13.05c.18-.04.32.06.32.06l.53-.25s0-.01-.01-.02c-.02-.01-.11-.06-.17-.04z"/>
  <path fill-rule="nonzero" d="M19.47 16.06c-.07.02-.53.19-.54.2l-.02.01c.1 0 .18.04.2.05l.5-.23c-.01 0-.04-.02-.08-.03-.02 0-.04-.01-.06 0zm-.56.16s.48-.18.55-.2h.08c.05.02.09.04.1.05.02.01.02.03.02.03v.01c-.18.09-.37.17-.55.26l-.01-.01s-.13-.09-.31-.05l-.23.05c.1-.04.25-.11.35-.14z"/>
  <path fill="#009B3A" fill-rule="nonzero" d="M18.77 16.31c-.01 0-.01.02 0 .02.02.02.02.02.14.04.12.01.2-.01.22-.04.02-.02-.3-.07-.36-.02zm0 0L2.23.08l16.54 16.23z"/>
  <path fill-rule="nonzero" d="m18.78 16.33-.01-.01.01.01zm-.01-.01zm-.03-.01.01-.01c.05-.04.21-.04.31-.02.02.01.04.01.05.02.02 0 .03.01.04.02 0 .01 0 .02-.01.03a.13.13 0 0 1-.09.03c-.04.01-.09.01-.14.01-.11-.02-.12-.02-.14-.04h-.01c-.01 0-.01-.01-.01-.01-.01-.01-.01-.01-.01-.02v-.01zm.03.01zm0 0zm0 0zm.02 0c.01.01.02.01.12.03.05 0 .1 0 .13-.01.02 0 .04 0 .05-.01-.01 0-.02-.01-.04-.01-.08-.01-.21-.02-.26 0z"/>
  <path fill="#009B3A" fill-rule="nonzero" d="m18 14.59-.02-.15s-.03-.4-.08-.48c0-.02 0-.06-.03-.06-.05-.01-.05.12-.06.24-.09.6.39 1.06.39 1.06l-.2-.61z"/>
  <path fill-rule="nonzero" d="m17.97 14.6-.02-.16s-.03-.39-.07-.47c0-.01 0-.02-.01-.03v-.02c-.02 0-.02.05-.03.12v.07c0 .01 0 .03-.01.04-.06.43.17.78.3.94-.03-.11-.14-.39-.16-.49zm.03-.16.03.15.22.7-.07-.07s-.49-.47-.4-1.08v-.04c.01-.02.01-.05.01-.07.01-.09.02-.16.08-.16.04 0 .05.03.05.06.01.01.01.01.01.02.04.08.07.46.07.49z"/>
  <path fill="#009B3A" fill-rule="nonzero" d="M20.37 16.37s-.05-.01-.02-.05c.03-.04.12-.06.14-.06.02 0 .07.01.11.02.03.01.09.04.07.06-.01.03-.07.06-.14.06-.06 0-.09-.01-.11-.01-.03-.01-.05-.02-.05-.02zm0 0L2.23.08l18.14 16.29z"/>
  <path fill-rule="nonzero" d="M20.36 16.39c-.01 0-.08-.02-.03-.09.02-.01.04-.03.07-.04.03-.01.08-.02.09-.02h.06c.02 0 .04.01.05.01l.06.03c.01 0 .02.01.03.02.01.01.01.03.01.04 0 .01 0 .01-.01.02s-.03.03-.07.04a.2.2 0 0 1-.09.02h-.07c-.02 0-.04-.01-.05-.01l-.05-.02zm.01-.06c-.01.01 0 .02 0 .02v.02l.01-.02s.02 0 .04.01c.01.01.03.01.04.01h.07c.03 0 .06 0 .08-.01.02-.01.03-.02.04-.03-.01 0-.01-.01-.02-.01a.076.076 0 0 0-.04-.02c-.01 0-.03-.01-.05-.01h-.05c-.01 0-.04 0-.07.02-.02 0-.04.01-.05.02z"/>
  <path fill="#009B3A" fill-rule="nonzero" d="M19.85 16.08s-.16-.07-.32-.15c-.2-.1-.45-.24-.62-.49-.22-.32-.41-.49-.45-.52-.05-.04-.05-.05-.07-.02-.02.02-.01.03.01.06.04.07.15.2.19.28.07.13.21.27.2.35 0 .01-.04-.01-.04-.01s-.32-.11-.45-.5c-.1-.29-.06-.37-.08-.52-.04-.25-.05-.27-.17-.55-.01-.01-.08-.13-.09-.1-.01.03.01.16.01.16l.02.14-.01.35c0 .02-.09.22.26.56 0 0 .01.06-.04.01-.03-.04-.28-.23-.36-.54-.08-.32-.09-.63-.03-.76.06-.12.16-.41.12-.66-.01-.03-.02-.11-.03-.09-.01.01-.04.14-.06.18-.03.07-.07.12-.08.17-.02.07-.14.18-.12.38.03.23.04.27.07.35.01.03.03.11.02.11-.02.01-.07-.09-.07-.09s-.22-.43-.08-.78c.14-.35.48-.68.48-.68l.34-.29c.02-.02.02-.04.01-.03-.07.01-.61.12-.8.77 0 0-.01.02-.02.02-.02-.01 0-.04 0-.04s.12-.46.45-.66c.36-.23.32-.2.44-.27.07-.04.14-.11.23-.25.01-.01.04-.09.04-.11-.01-.01-.02.01-.03.03 0 0-.11.16-.26.21-.15.06-.28-.02-.43.15a2 2 0 0 0-.28.41s-.04.06-.05.06c-.02 0 .01-.06.01-.06s.2-.44.37-.53c.17-.09.32-.18.41-.25.12-.09.31-.31.39-.39.01-.02.12-.12.14-.16.01-.02.05-.05.04-.05-.01-.01-.11.04-.11.04s-.55.15-.89.66c-.02.03-.06.08-.08.1-.03.03-.05.1-.05.1-.03-.02.19-.29.19-.29l.04-.17s.06-.27.2-.45c.01-.02.09-.1.1-.11.03-.03-.05.02-.04.01 0 0-.51.37-.51.83 0 .08-.05.16-.12.26-.08.12-.11.2-.15.38-.01.07-.03.15-.05.22-.01.07.01.07-.01.06-.02 0-.02-.06-.02-.06s.06-.34.09-.45c.04-.1.06-.17.06-.17s-.02-.26.04-.4c.05-.13.17-.29.19-.33.01-.02.07-.14.08-.27 0-.02-.01 0-.03.05-.06.13-.11.16-.2.28 0 0-.24.17-.32.68 0 0 0 .19-.03.49-.02.22-.01.43.02.55.01.08.04.08.03.09-.02 0 0 0-.02-.06-.04-.07-.06-.17-.06-.32 0-.27.02-.48.02-.48s.02-.43-.16-.63c-.01-.01.03.09.05.19.02.12-.02.28-.03.35-.01.06-.13.35-.09.62 0 0 .1.45.23.67 0 0 .08.1.01.01-.07-.09-.22-.44-.23-.47-.01-.03-.11-.25-.21-.34-.05-.05-.19-.13-.19-.13s-.08-.06-.02.02c.04.06.11.16.13.21.07.1.12.2.17.31.04.1.15.4.15.4l.07.19s.12.07.18.14c.05.06.16.19.25.42.04.1.12.2.12.2s-.02.03-.09-.09c-.07-.13-.14-.36-.31-.55-.13-.14-.47-.28-.47-.28s.22.39.27.46c.1.11.23.27.27.31.04.04.25.3.28.34.05.07.08.09.1.12.06.06.22.17.24.18 0 .02 0 .01-.01 0-.08-.05-.16-.11-.25-.17-.09-.06-.44-.21-.67-.53-.06-.1-.08-.13-.1-.12-.03.01.16.62.54.82 0 0 .42.19.51.24.05.03.16.08.2.12.03.02-.02.02-.03.02-.22-.02-.54-.05-.74-.16 0 0-.08-.06-.01.02.05.07.16.22.36.31.2.09.5.14.6.15.11.01.49.01.56.03.07.02.19.1.26.12.06.02.25.1.25.1s.06.03.09.04c.03.01.17.01.18-.02.01-.02-.04-.06-.04-.06zm0 0L2.23.08l17.62 16z"/>
  <path fill-rule="nonzero" d="M19.84 16.1c-.01-.01-.17-.08-.32-.15-.1-.05-.21-.11-.33-.19a1.27 1.27 0 0 1-.3-.31c-.08-.12-.16-.22-.23-.3-.1-.12-.18-.2-.21-.22l-.04-.02c0-.01 0-.01-.01 0 0 .01 0 .02.01.04.02.03.05.07.09.11.04.06.08.12.11.17.02.05.06.1.09.15.06.08.11.15.11.21 0 .05-.06.01-.06.01-.02 0-.34-.12-.47-.52-.07-.19-.07-.3-.07-.39 0-.04 0-.08-.01-.12-.02-.13-.03-.2-.05-.27-.02-.07-.06-.14-.12-.29 0 0-.03-.05-.05-.07v-.01c-.01.05.01.13.01.13.01.02.02.14.02.15 0 .01-.02.33-.02.35v.01c-.01.05-.04.24.27.54v.01s.01.12-.07.02c-.01 0-.02-.01-.03-.02-.06-.06-.22-.2-.3-.42-.02 0-.05-.02-.1-.1-.02-.04-.05-.09-.07-.14-.05-.12-.12-.28-.24-.4-.1-.11-.32-.21-.42-.26.06.11.21.35.25.41l.2.23.06.08c.02.02.09.1.15.18.06.07.12.14.13.16.04.05.07.08.09.1l.02.02c.03.03.1.09.16.13.03.02.06.04.07.05v.01l.01.01c0 .01 0 .01-.01.02 0 .02-.01.02-.03 0v-.02a.805.805 0 0 1-.14-.09 2.78 2.78 0 0 1-.11-.08c-.02-.01-.04-.02-.07-.04-.15-.08-.41-.22-.61-.49a.289.289 0 0 0-.06-.1v-.01c0 .02.01.06.02.1.02.06.06.15.11.24.09.17.22.35.4.44 0 0 .42.19.51.25.02.01.04.02.07.03.05.03.1.06.13.08.01.01.02.01.02.02s0 .02-.01.03h-.02c-.01.01-.02.01-.03.01-.11-.01-.25-.02-.38-.05-.12-.02-.25-.05-.34-.1l.01.01c.06.08.16.2.33.28.08.03.18.06.28.09.13.03.25.05.32.05h.13c.16.01.37.01.42.03.04.01.09.04.14.06.04.03.09.05.12.07.07.02.26.09.26.09s.05.03.08.04c.02.01.06.01.1.01.03 0 .06-.01.06-.01.01-.01-.02-.03-.03-.04zm-.3-.18.32.15-.01.01.01-.01s.06.04.05.08c-.01.02-.05.03-.1.03-.04.01-.09 0-.11 0a.36.36 0 0 1-.09-.05c-.02 0-.19-.07-.25-.09-.03-.01-.08-.04-.13-.06a.488.488 0 0 0-.13-.06c-.05-.02-.26-.02-.41-.03h-.14c-.06 0-.18-.02-.32-.06-.1-.02-.2-.05-.29-.09-.17-.08-.28-.21-.34-.28-.01-.02-.02-.03-.03-.04-.15-.18.03-.06.04-.05.1.06.23.09.36.11.13.03.26.04.37.05-.03-.02-.07-.04-.11-.06-.02-.02-.05-.03-.07-.04-.09-.06-.51-.24-.51-.24-.18-.1-.32-.29-.42-.46a2.16 2.16 0 0 1-.1-.25c-.03-.07-.04-.13-.03-.14l.01-.01c.02-.01.04 0 .06.03.02.02.04.05.07.1.18.26.45.4.58.48l.03.01a.435.435 0 0 1-.06-.07c-.01-.02-.07-.09-.13-.16-.06-.08-.13-.16-.15-.18l-.06-.07c-.06-.07-.14-.17-.2-.24-.06-.07-.28-.46-.28-.46l-.03-.05.05.02s.15.06.29.14l-.06-.14s-.1-.3-.15-.41c-.02-.05-.05-.1-.08-.15-.02-.05-.05-.1-.08-.15l-.03-.04a.712.712 0 0 0-.11-.17c-.13-.18.04-.06.05-.05.01.01.14.09.19.13.04.04.08.09.11.14.06.09.1.19.11.21l.01.02c-.04-.12-.06-.22-.06-.22-.03-.22.04-.44.07-.56.01-.03.02-.05.02-.06l.01-.04c.01-.07.04-.21.02-.31a1.02 1.02 0 0 0-.04-.15c-.01-.03-.01-.04 0-.05.01-.01.01-.01.02 0 .12.12.15.34.17.48v-.11c.08-.49.3-.68.33-.7.02-.03.05-.05.06-.08.06-.06.09-.1.13-.19.01-.03.02-.05.03-.06h.01c.01-.01.02-.01.03.01v.01c-.01.13-.07.25-.08.27-.01.02-.03.05-.05.08-.05.07-.11.17-.14.25-.06.14-.04.4-.04.4s-.02.08-.06.18c-.02.05-.04.18-.06.29 0-.03.01-.05.01-.08.02-.09.04-.15.06-.21a.7.7 0 0 1 .09-.17.77.77 0 0 0 .09-.13c.02-.04.03-.08.03-.12 0-.47.52-.85.52-.85l.32-.23-.24.22c0 .01 0 .02-.01.03-.01.01-.03.03-.06.05a.38.38 0 0 1-.05.06c-.13.18-.19.43-.19.44l-.03.1c.34-.39.77-.52.79-.52.02-.01.11-.05.13-.04h.01c.01.02 0 .03-.01.04 0 .01-.01.01-.01.02-.01.01-.02.01-.02.02-.02.03-.1.11-.13.14l-.02.02-.04.05c-.09.1-.25.27-.35.34-.05.04-.11.08-.18.12-.07.04-.15.09-.23.13-.16.09-.37.52-.37.52 0 .01-.02.04-.02.04.01 0 .03-.04.03-.05 0 0 .12-.24.28-.41.11-.12.2-.13.3-.13.05-.01.09-.01.14-.03.14-.04.24-.18.25-.2.01-.01.01-.02.02-.03 0-.01.01-.01.01-.01h.03v.02c.01.01 0 .03-.01.05-.01.03-.02.06-.03.07-.04.07-.08.13-.12.17-.04.04-.07.06-.11.09l-.08.04c-.05.03-.11.06-.36.22-.13.09-.23.21-.3.32.23-.34.57-.42.65-.44h.02c.01 0 .01.01.01.01v.02c0 .01 0 .02-.02.03-.05.06-.32.27-.34.29 0 0-.34.33-.47.67-.06.16-.05.33-.02.47l.06.07c-.01-.03-.01-.08-.02-.13-.02-.15.05-.26.09-.33.01-.02.03-.04.03-.06.01-.02.03-.05.04-.09.02-.02.03-.05.04-.07.01-.03.03-.07.04-.12.01-.03.02-.06.02-.07a.03.03 0 0 1 .04 0c.01.01.02.04.02.07l.01.02c.01.11.01.21-.01.32-.03.15-.08.28-.11.35-.03.07-.04.18-.04.31h.01c.14.19.1.15 0 .03v.01c.01.03.02.03 0 .01.01.12.03.26.06.39.06.24.22.41.3.49-.25-.28-.21-.46-.2-.5v-.01l.01-.35-.02-.14c0-.01-.02-.13-.01-.17l.01-.01c.01-.01.02-.01.04 0 0 .01.01.01.02.02.02.03.05.08.05.09.07.14.1.22.12.29.03.07.04.14.06.27 0 .05.01.09.01.13 0 .09 0 .19.06.38.13.39.45.49.45.5 0 0 .02.05.02.02 0-.04-.05-.11-.11-.19-.03-.05-.07-.1-.1-.15a.657.657 0 0 0-.11-.16c-.03-.05-.06-.09-.08-.12-.02-.03-.03-.06-.01-.09.02-.02.04-.02.07 0 .01 0 .02.02.03.02.03.02.11.1.22.23.07.08.15.18.23.3.09.12.19.22.3.3.1.08.22.14.32.19zm-1.71-1.32-.01-.01c-.03-.15-.06-.31-.06-.44l-.06-.07c.01.02.02.04.02.06l.01.01c0 .02.01.05.02.07 0 .03 0 .06-.01.07-.04.02-.09-.1-.09-.1s-.07-.13-.11-.31l-.04-.05c-.02-.02-.07-.08-.09-.1-.01-.02-.02-.03-.02-.05-.08-.13-.17-.36-.19-.41l-.01-.01c0-.02-.05-.11-.1-.2-.04-.05-.07-.1-.11-.13a.906.906 0 0 0-.16-.11c.03.04.07.1.09.15l.03.04.09.15c.02.05.05.11.07.16.05.1.16.4.16.4l.07.19c.02.01.12.07.18.14.02.02.06.07.11.14.04.07.09.17.14.28.02.05.04.09.07.13zm-.07-.51c-.01-.11.01-.21.03-.27.04-.07.09-.2.11-.35.02-.1.03-.2.01-.3l-.01-.04v.02c-.02.05-.03.1-.04.12-.01.03-.03.06-.04.08-.02.03-.03.06-.04.08-.01.02-.02.05-.04.07-.04.07-.1.16-.08.31.01.09.02.15.03.19l.07.09zm-.07.06a.4.4 0 0 1-.04-.13l-.05-.07c.03.13.08.22.08.22 0 .01.03.09.04.09 0 0-.01-.01-.01-.03-.01-.02-.01-.05-.02-.06v-.02zm-.16-.34a.868.868 0 0 1 .03-.42c.14-.35.49-.69.49-.69s.26-.21.33-.28c-.14.04-.58.18-.75.75 0 0-.02.05-.05.03-.04-.01-.02-.05-.01-.06.01-.03.13-.47.46-.67l.36-.22.08-.04c.03-.03.07-.05.11-.09.03-.04.07-.09.11-.16l.01-.01c-.05.05-.13.13-.23.17-.06.02-.11.02-.16.03-.09 0-.17.01-.27.11-.15.17-.28.41-.28.41s-.04.08-.07.07c-.03-.01 0-.09 0-.09s.21-.45.38-.54c.08-.04.16-.09.23-.13.07-.04.13-.08.18-.12.09-.07.25-.24.34-.34l.04-.04.02-.02c.03-.04.11-.11.12-.14h.01c0-.01 0-.01.01-.02-.03.02-.06.03-.06.03h-.01s-.54.15-.88.66a.21.21 0 0 1-.04.06c-.01.01-.02.03-.03.04-.04.03-.05.09-.05.09l-.01.03-.03-.02v-.02s.02-.06.06-.11c.05-.08.12-.16.13-.18l.04-.17s.06-.25.19-.44c-.15.13-.4.41-.4.73 0 .05-.01.09-.04.13a.55.55 0 0 1-.09.14c-.04.06-.06.11-.08.16-.03.06-.04.12-.06.21l-.03.12c0 .04-.01.07-.02.1v.07c-.01.02-.02.02-.03.01h-.01c-.04-.01-.03-.08-.03-.08s.06-.35.09-.46c.04-.09.06-.15.06-.16 0-.04-.01-.27.04-.41.03-.09.1-.19.15-.26.02-.03.04-.06.04-.07.01-.02.04-.08.06-.16-.03.07-.06.11-.11.16-.02.02-.04.05-.06.08h-.01s-.23.17-.31.67c0 .02-.01.21-.03.49-.01.1-.02.2-.01.28 0 .11.01.2.03.27v.02c.01.01.01.02.01.02.01.01.01.02.01.02l.01.01c.01.02 0 .02-.02.03-.01.01-.02.02-.03-.01v-.03c-.01-.01-.01-.01-.01-.02a.527.527 0 0 1-.05-.15c-.01-.05-.01-.11-.01-.18 0-.26.02-.47.02-.48 0-.02.01-.32-.09-.52.01.03.01.05.02.07.02.11-.01.25-.03.33v.03c0 .02-.01.04-.02.07-.04.12-.1.34-.07.54 0 0 .08.39.2.62.01.02.02.04.04.06l.07.09zm.06-.64h.01-.01z"/>
  <path fill="#009B3A" fill-rule="nonzero" d="M22.29 12.89c.04.02.06.15.06.15v-.11c0-.04-.02-.17-.02-.17l-.04.02c-.04.04-.07.1-.07.1s.03 0 .07.01zm0 0L2.23.08l20.06 12.81z"/>
  <path fill-rule="nonzero" d="M22.3 12.87c.01 0 .02.01.02.02 0-.03 0-.06-.01-.09-.02.02-.04.04-.05.06.01 0 .03.01.04.01l-.01.02.01-.02zm.03.17s-.02-.11-.05-.12c-.03-.02-.06-.01-.06-.01h-.03l.01-.03c0-.01.03-.07.08-.11l.07-.06.01.04s.01.14.01.18c0 .03.01.1.01.1l-.05.01z"/>
  <path fill="#FEDF00" fill-rule="nonzero" d="m19.67 12.51.28.79.84.02-.67.51.24.8-.69-.48-.69.48.25-.8-.67-.51.84-.02z"/>
  <path fill="#CCC" fill-rule="nonzero" d="M2.23 0h34.89c.61 0 1.17.25 1.57.66.41.4.66.96.66 1.57v22.96c0 .61-.25 1.17-.66 1.57-.4.41-.96.66-1.57.66H2.23c-.61 0-1.17-.25-1.57-.65-.41-.41-.66-.97-.66-1.58V2.23C0 1.62.25 1.06.66.66 1.06.25 1.62 0 2.23 0zm34.89.15H2.23C1.66.15 1.14.39.76.76c-.37.38-.61.9-.61 1.47v22.96c0 .57.24 1.09.61 1.47.38.37.9.61 1.47.61h34.89c.57 0 1.09-.24 1.47-.61.37-.38.61-.9.61-1.47V2.23c0-.57-.24-1.09-.61-1.47-.38-.37-.9-.61-1.47-.61z"/>
</svg>
