<svg xmlns="http://www.w3.org/2000/svg" version="1.1" id="Layer_1" x="0" y="0" viewBox="0 0 55.68 38.88" style="enable-background:new 0 0 55.68 38.88" xml:space="preserve">
  <style>
    .st0{stroke-width:.0527;stroke-linejoin:round}.st0,.st1,.st2,.st3{fill:none;stroke:#20221d;stroke-miterlimit:22.926}.st1{stroke-width:.0408;stroke-linejoin:round}.st2{stroke-width:.0541}.st3{stroke-width:.1069}.st4{fill:#184275}.st6{stroke-width:.0519}.st10,.st12,.st6,.st7,.st8,.st9{fill:none;stroke:#20221d;stroke-miterlimit:22.926}.st7{stroke-width:.0507;stroke-linecap:round}.st8{stroke-width:.0496}.st9{stroke-width:.0539}.st10{stroke-width:.0394}.st12{stroke-width:.051}.st13{fill:#edb92b}.st14,.st15{fill:none;stroke:#20221d;stroke-miterlimit:22.926}.st14{stroke-width:.0539;stroke-linecap:round;stroke-linejoin:round}.st15{stroke-width:.0524}.st16{stroke-width:.0689;stroke-linecap:round}.st16,.st17,.st18,.st19{fill:none;stroke:#20221d;stroke-miterlimit:22.926}.st17{stroke-width:.053;stroke-linejoin:round}.st18{stroke-width:.0482}.st19{stroke-width:.049}.st20{fill:#20221d}.st22,.st23{fill:none;stroke:#20221d;stroke-miterlimit:22.926}.st22{stroke-width:.0533;stroke-linejoin:round}.st23{stroke-width:.053}.st24,.st25{stroke-linejoin:round}.st24{fill:none;stroke:#20221d;stroke-width:.0536;stroke-miterlimit:22.926}.st25{stroke-width:.0397}.st25,.st26,.st27,.st28{fill:none;stroke:#20221d;stroke-miterlimit:22.926}.st26{stroke-width:.0539;stroke-linejoin:round}.st27{stroke-width:.0507}.st28{stroke-width:.0527}.st29{fill:#c6363c}.st30,.st31{fill:none;stroke:#20221d;stroke-width:.055;stroke-miterlimit:22.926}.st31{stroke-width:.0485}.st33{fill:#fff}.st34{stroke-width:.0513}.st34,.st35,.st36,.st38{fill:none;stroke:#20221d;stroke-miterlimit:22.926}.st35{stroke-width:.0533}.st36,.st38{stroke-width:.0471}.st38{stroke-linejoin:round}.st39{stroke-width:.0539;stroke-linecap:round}.st39,.st40,.st42,.st43{fill:none;stroke:#20221d;stroke-miterlimit:22.926}.st40{stroke-width:.0533;stroke-linecap:round}.st42{stroke-width:.0536}.st43{stroke-width:.0524;stroke-linejoin:round}
  </style>
  <path class="st29" d="M3.27.24H52.4c1.67 0 3.03 1.36 3.03 3.03V35.6a3.04 3.04 0 0 1-3.03 3.03H3.27A3.04 3.04 0 0 1 .24 35.6V3.27C.24 1.6 1.6.24 3.27.24z"/>
  <path class="st4" d="M55.44 12.7H.24v22.91a3.04 3.04 0 0 0 3.03 3.03H52.4a3.04 3.04 0 0 0 3.03-3.03V12.7h.01z"/>
  <path class="st33" d="M55.44 26.12H.24v9.49a3.04 3.04 0 0 0 3.03 3.03H52.4a3.04 3.04 0 0 0 3.03-3.03v-9.49h.01z"/>
  <path class="st13" d="M24.48 8.86c.08-.18.02-.44-.01-.5-.01-.03.03-.09.05-.12.57-.81.58-.88.19-1.18-.36-.27-1.16-.54-1.74-.72-.12-.09-.2-.21-.3-.32 1.11.08 2.3.52 2.91 1.05.32.28-.07.83-.54 1.68-.31.23-.45.32-.56.11z"/>
  <path class="st23" d="M24.48 8.86c.08-.18.02-.44-.01-.5-.01-.03.03-.09.05-.12.57-.81.58-.88.19-1.18-.36-.27-1.16-.54-1.74-.72-.12-.09-.2-.21-.3-.32 1.11.08 2.3.52 2.91 1.05.32.28-.07.83-.54 1.68-.31.23-.45.32-.56.11z"/>
  <path class="st13" d="m24.65 8.93.06-.21c.02-.12.01-.24-.03-.36.13-.19.28-.39.39-.59.08-.14.14-.3.09-.46-.05-.17-.2-.29-.34-.4-.16-.13-.38-.24-.6-.33-.5-.2-.89-.3-1.18-.31l.18.17c.54.17 1.17.4 1.48.63.39.3.38.37-.19 1.18-.02.02-.06.09-.05.12.03.06.08.32-.01.51.06.09.13.04.2.05z"/>
  <path class="st35" d="m24.65 8.93.06-.21c.02-.12.01-.24-.03-.36.13-.19.28-.39.39-.59.08-.14.14-.3.09-.46-.05-.17-.2-.29-.34-.4-.16-.13-.38-.24-.6-.33-.5-.2-.89-.3-1.18-.31l.18.17c.54.17 1.17.4 1.48.63.39.3.38.37-.19 1.18-.02.02-.06.09-.05.12.03.06.08.32-.01.51.06.09.13.04.2.05z"/>
  <path class="st13" d="M19.81 5.34c-.01-.1 0-.08.02.07.02-.03.04-.05.06-.04.05 0 .07.07.08.23 0 .04-.01.08-.01.12 1.47-.03 2.34.19 2.56.61.18.35-.13.93-.6 1.59-.05.08-.05.08 0 .14.08.1.17.26.1.4.29.16.63.2.93.07.05-.13.16-.2.24-.26.02-.01.08-.04.09-.06.16-.5.31-.96.45-1.39.42-1.35-3.34-1.48-3.92-1.48z"/>
  <path class="st35" d="M19.81 5.34c-.01-.1 0-.08.02.07.02-.03.04-.05.06-.04.05 0 .07.07.08.23 0 .04-.01.08-.01.12 1.47-.03 2.34.19 2.56.61.18.35-.13.93-.6 1.59-.05.08-.05.08 0 .14.08.1.17.26.1.4.29.16.63.2.93.07.05-.13.16-.2.24-.26.02-.01.08-.04.09-.06.16-.5.31-.96.45-1.39.42-1.35-3.34-1.48-3.92-1.48z"/>
  <path class="st13" d="M23.69 11.16c.15-.29.3-.58.5-.82-.52.39-.79.33-.83-.17-.03-.01-.07-.01-.11-.01-.4.62-.79.53-1.16-.26-.51.81-.95.79-1.3-.05-.59.74-1.09.74-1.49.02v-.1c.02.01.01.01-.05.01l-.01-.02c-.02 0-.03.01-.04.01-.01 0-.03-.01-.04-.01l-.01.02c-.05.01-.07 0-.05-.01v.09c-.4.72-.9.72-1.49-.02-.35.84-.78.86-1.3.05-.38.79-.76.87-1.16.26-.04 0-.08 0-.11.01-.04.5-.31.56-.83.17.2.25.36.53.5.82 1.5-.06 3-.14 4.5-.22 1.48.09 2.98.17 4.48.23z"/>
  <path class="st22" d="M23.69 11.16c.15-.29.3-.58.5-.82-.52.39-.79.33-.83-.17-.03-.01-.07-.01-.11-.01-.4.62-.79.53-1.16-.26-.51.81-.95.79-1.3-.05-.59.74-1.09.74-1.49.02v-.1c.02.01.01.01-.05.01l-.01-.02c-.02 0-.03.01-.04.01-.01 0-.03-.01-.04-.01l-.01.02c-.05.01-.07 0-.05-.01v.09c-.4.72-.9.72-1.49-.02-.35.84-.78.86-1.3.05-.38.79-.76.87-1.16.26-.04 0-.08 0-.11.01-.04.5-.31.56-.83.17.2.25.36.53.5.82 1.5-.06 3-.14 4.5-.22 1.48.09 2.98.17 4.48.23z"/>
  <path class="st13" d="m24.3 9.95-.16-.03c-.31.77-.6.78-.65.06.07-.03.04-.15.12-.1.04.03.09-.05.06-.09-.09-.07-.17-.05-.25.02-.04-.12-.13-.17-.24-.12-.05.02-.03.11.02.1.08-.01.05.07.07.13-.56.73-.84.64-.77-.31-.13-.03-.29-.05-.43-.1-.51 1.03-.88 1.07-1.17.15.06-.05.05-.17.14-.13.05.02.1-.07.05-.11-.11-.09-.23-.06-.3.06-.06-.13-.18-.17-.29-.09-.05.03-.02.13.03.11.1-.03.06.11.14.16-.23.87-1.37.93-1.18-.36-.1 0-.2.01-.29.01-.09 0-.19-.01-.29-.01.19 1.28-.96 1.23-1.18.36.08-.05.03-.18.14-.16.05.02.09-.08.03-.11-.12-.08-.23-.03-.29.09-.08-.12-.2-.15-.3-.06-.05.04 0 .13.05.11.09-.04.07.08.14.13-.3.92-.66.88-1.17-.15-.14.05-.29.08-.43.1.07.95-.22 1.04-.77.31.02-.06-.01-.14.07-.13.05 0 .07-.08.02-.1-.11-.05-.2.01-.24.12-.08-.07-.16-.08-.25-.02-.03.04.02.11.06.09.08-.05.05.07.12.1-.05.73-.33.71-.65-.06l-.16.03c0 .18.06.37.17.51.47.6.82.46.83-.21.62.72 1.08.63 1.17-.13.52.96 1.35.5 1.37-.08.23.85 1.49.84 1.57-.13.08.97 1.35.98 1.57.13.02.58.85 1.04 1.37.08.08.76.55.85 1.17.13.01.67.36.8.83.21.09-.14.16-.33.15-.51z"/>
  <path class="st22" d="m24.3 9.95-.16-.03c-.31.77-.6.78-.65.06.07-.03.04-.15.12-.1.04.03.09-.05.06-.09-.09-.07-.17-.05-.25.02-.04-.12-.13-.17-.24-.12-.05.02-.03.11.02.1.08-.01.05.07.07.13-.56.73-.84.64-.77-.31-.13-.03-.29-.05-.43-.1-.51 1.03-.88 1.07-1.17.15.06-.05.05-.17.14-.13.05.02.1-.07.05-.11-.11-.09-.23-.06-.3.06-.06-.13-.18-.17-.29-.09-.05.03-.02.13.03.11.1-.03.06.11.14.16-.23.87-1.37.93-1.18-.36-.1 0-.2.01-.29.01-.09 0-.19-.01-.29-.01.19 1.28-.96 1.23-1.18.36.08-.05.03-.18.14-.16.05.02.09-.08.03-.11-.12-.08-.23-.03-.29.09-.08-.12-.2-.15-.3-.06-.05.04 0 .13.05.11.09-.04.07.08.14.13-.3.92-.66.88-1.17-.15-.14.05-.29.08-.43.1.07.95-.22 1.04-.77.31.02-.06-.01-.14.07-.13.05 0 .07-.08.02-.1-.11-.05-.2.01-.24.12-.08-.07-.16-.08-.25-.02-.03.04.02.11.06.09.08-.05.05.07.12.1-.05.73-.33.71-.65-.06l-.16.03c0 .18.06.37.17.51.47.6.82.46.83-.21.62.72 1.08.63 1.17-.13.52.96 1.35.5 1.37-.08.23.85 1.49.84 1.57-.13.08.97 1.35.98 1.57.13.02.58.85 1.04 1.37.08.08.76.55.85 1.17.13.01.67.36.8.83.21.09-.14.16-.33.15-.51z"/>
  <path class="st13" d="M20.25 8.97c-.07-.04-.08-.03-.11-.06-.03-.04-.03-.1-.02-.15.04-.23-.1-.2-.26-.1-.08.05-.16.17-.23.23s-.12.07-.14.09v.4c.02.02.07.03.14.09s.15.18.23.23c.16.1.3.14.26-.1-.01-.06-.01-.12.02-.15.02-.03.04-.02.11-.06a.24.24 0 0 0 .1-.1c.02-.04.01-.08.01-.12 0-.04.01-.08-.01-.12-.02-.02-.06-.05-.1-.08z"/>
  <path class="st35" d="M20.25 8.97c-.07-.04-.08-.03-.11-.06-.03-.04-.03-.1-.02-.15.04-.23-.1-.2-.26-.1-.08.05-.16.17-.23.23s-.12.07-.14.09v.4c.02.02.07.03.14.09s.15.18.23.23c.16.1.3.14.26-.1-.01-.06-.01-.12.02-.15.02-.03.04-.02.11-.06a.24.24 0 0 0 .1-.1c.02-.04.01-.08.01-.12 0-.04.01-.08-.01-.12-.02-.02-.06-.05-.1-.08z"/>
  <path class="st20" d="m19.49 9.22.01.04c.17.02.3.09.42.19-.08-.12-.25-.2-.43-.23zm0-.07.01-.04c.17-.02.3-.09.42-.19-.08.12-.25.2-.43.23z"/>
  <path class="st13" d="M20.12 8.65c-.05.02-.11.04-.15.09-.07.07-.02.18.07.29.03.03.04.1.04.16s-.01.12-.04.15c-.09.11-.14.22-.07.29.05.04.1.07.15.09v-.11c-.01-.06-.01-.12.02-.15.02-.03.04-.02.11-.06.04-.03.08-.06.1-.1.02-.04.01-.08.01-.12 0-.04.01-.08-.01-.12a.318.318 0 0 0-.1-.1c-.07-.04-.08-.03-.11-.06-.03-.04-.03-.1-.02-.15a.17.17 0 0 0 0-.1z"/>
  <path class="st35" d="M20.12 8.65c-.05.02-.11.04-.15.09-.07.07-.02.18.07.29.03.03.04.1.04.16s-.01.12-.04.15c-.09.11-.14.22-.07.29.05.04.1.07.15.09v-.11c-.01-.06-.01-.12.02-.15.02-.03.04-.02.11-.06.04-.03.08-.06.1-.1.02-.04.01-.08.01-.12 0-.04.01-.08-.01-.12a.318.318 0 0 0-.1-.1c-.07-.04-.08-.03-.11-.06-.03-.04-.03-.1-.02-.15a.17.17 0 0 0 0-.1z"/>
  <path class="st13" d="M13.91 8.86c-.08-.18-.02-.44.01-.5.01-.03-.03-.09-.05-.12-.57-.81-.58-.88-.19-1.18.36-.27 1.16-.54 1.74-.72.12-.09.2-.21.3-.32-1.11.08-2.3.53-2.91 1.05-.32.28.07.83.54 1.68.31.23.45.32.56.11z"/>
  <path class="st23" d="M13.91 8.86c-.08-.18-.02-.44.01-.5.01-.03-.03-.09-.05-.12-.57-.81-.58-.88-.19-1.18.36-.27 1.16-.54 1.74-.72.12-.09.2-.21.3-.32-1.11.08-2.3.53-2.91 1.05-.32.28.07.83.54 1.68.31.23.45.32.56.11z"/>
  <path class="st13" d="M13.73 8.93a.802.802 0 0 1-.05-.21.739.739 0 0 1 .03-.36c-.13-.19-.28-.39-.39-.59-.08-.14-.14-.3-.09-.46.05-.17.2-.29.34-.4.16-.13.38-.24.6-.33.5-.2.89-.3 1.18-.31l-.18.17c-.54.17-1.17.4-1.48.63-.4.3-.38.37.19 1.18.02.02.06.09.04.12-.03.06-.08.32.01.51-.05.09-.13.04-.2.05z"/>
  <path class="st35" d="M13.73 8.93a.802.802 0 0 1-.05-.21.739.739 0 0 1 .03-.36c-.13-.19-.28-.39-.39-.59-.08-.14-.14-.3-.09-.46.05-.17.2-.29.34-.4.16-.13.38-.24.6-.33.5-.2.89-.3 1.18-.31l-.18.17c-.54.17-1.17.4-1.48.63-.4.3-.38.37.19 1.18.02.02.06.09.04.12-.03.06-.08.32.01.51-.05.09-.13.04-.2.05z"/>
  <path class="st13" d="M18.57 5.34c0-.1 0-.08-.02.07-.02-.03-.04-.05-.06-.04-.05 0-.07.07-.08.23 0 .04.01.08.01.12-1.47-.03-2.34.19-2.56.61-.18.35.13.93.6 1.59.06.08.06.07 0 .14-.08.1-.17.26-.1.4-.29.16-.63.2-.93.07-.05-.13-.16-.19-.24-.25-.02-.01-.08-.04-.09-.06-.16-.5-.31-.96-.45-1.39-.42-1.36 3.34-1.49 3.92-1.49z"/>
  <path class="st35" d="M18.57 5.34c0-.1 0-.08-.02.07-.02-.03-.04-.05-.06-.04-.05 0-.07.07-.08.23 0 .04.01.08.01.12-1.47-.03-2.34.19-2.56.61-.18.35.13.93.6 1.59.06.08.06.07 0 .14-.08.1-.17.26-.1.4-.29.16-.63.2-.93.07-.05-.13-.16-.19-.24-.25-.02-.01-.08-.04-.09-.06-.16-.5-.31-.96-.45-1.39-.42-1.36 3.34-1.49 3.92-1.49z"/>
  <path class="st13" d="m18.83 10.94-.05 1.46c1.45.04 3.17.11 4.63.15l.29-1.37c-3.5-.22-5.11-.29-4.87-.24z"/>
  <path d="m18.83 10.94-.05 1.46c1.45.04 3.17.11 4.63.15l.29-1.37c-3.5-.22-5.11-.29-4.87-.24z" style="fill:none;stroke:#20221d;stroke-width:.0493;stroke-miterlimit:22.926"/>
  <path class="st13" d="M18.83 10.94c-.78.04-2.15.12-4.13.24l.29 1.37c1.32-.04 2.85-.09 4.21-.14 1.36.04 2.89.1 4.21.14l.29-1.37c-1.98-.13-3.36-.2-4.13-.24v-.01c.08-.02-.04-.02-.37-.01-.33 0-.45 0-.37.02z"/>
  <path class="st35" d="M18.83 10.94c-.78.04-2.15.12-4.13.24l.29 1.37c1.32-.04 2.85-.09 4.21-.14 1.36.04 2.89.1 4.21.14l.29-1.37c-1.98-.13-3.36-.2-4.13-.24v-.01c.08-.02-.04-.02-.37-.01-.33 0-.45 0-.37.02z"/>
  <path class="st13" d="M19.19 11.1h-1.78c-.09 0-.19.01-.28.01h-.01c-.14.01-.27.01-.41.02h-.03c-.27.02-.54.03-.81.05h-.01c-.39.03-.78.06-1.17.1-.22.02-.26-.24 0-.26a43.83 43.83 0 0 1 2.81-.19h.12c.23-.01.45-.01.68-.02h1.8c.23 0 .46.01.68.02h.13a46.133 46.133 0 0 1 2.81.19c.26.02.22.28 0 .26a42.5 42.5 0 0 0-1.17-.1h-.01c-.27-.02-.54-.04-.81-.05h-.03c-.14-.01-.27-.01-.41-.02h-.01c-.09 0-.19-.01-.28-.01h-1.81z"/>
  <path class="st35" d="M19.19 11.1h-1.78c-.09 0-.19.01-.28.01h-.01c-.14.01-.27.01-.41.02h-.03c-.27.02-.54.03-.81.05h-.01c-.39.03-.78.06-1.17.1-.22.02-.26-.24 0-.26a43.83 43.83 0 0 1 2.81-.19h.12c.23-.01.45-.01.68-.02h1.8c.23 0 .46.01.68.02h.13a46.133 46.133 0 0 1 2.81.19c.26.02.22.28 0 .26a42.5 42.5 0 0 0-1.17-.1h-.01c-.27-.02-.54-.04-.81-.05h-.03c-.14-.01-.27-.01-.41-.02h-.01c-.09 0-.19-.01-.28-.01h-1.81z"/>
  <path class="st33" d="M15.77 7.9a.28.28 0 1 1-.28.28c0-.16.12-.28.28-.28z"/>
  <path class="st35" d="M15.77 7.9a.28.28 0 1 1-.28.28c0-.16.12-.28.28-.28z"/>
  <path class="st33" d="M13.36 8.49c.15 0 .26.12.26.26 0 .15-.12.26-.26.26s-.26-.12-.26-.26.12-.26.26-.26z"/>
  <path class="st35" d="M13.36 8.49c.15 0 .26.12.26.26 0 .15-.12.26-.26.26s-.26-.12-.26-.26.12-.26.26-.26z"/>
  <path class="st33" d="M13.11 8.01c.15 0 .26.12.26.26s-.12.26-.26.26-.26-.12-.26-.26.12-.26.26-.26z"/>
  <path class="st35" d="M13.11 8.01c.15 0 .26.12.26.26s-.12.26-.26.26-.26-.12-.26-.26.12-.26.26-.26z"/>
  <path class="st33" d="M12.88 7.52c.15 0 .26.12.26.26 0 .15-.12.26-.26.26s-.26-.12-.26-.26c-.01-.14.11-.26.26-.26z"/>
  <path class="st35" d="M12.88 7.52c.15 0 .26.12.26.26 0 .15-.12.26-.26.26s-.26-.12-.26-.26c-.01-.14.11-.26.26-.26z"/>
  <path class="st13" d="M19.19 8.84c.19 0 .34.15.34.34 0 .19-.15.34-.34.34s-.34-.15-.34-.34c0-.18.15-.34.34-.34z"/>
  <path class="st35" d="M19.19 8.84c.19 0 .34.15.34.34 0 .19-.15.34-.34.34s-.34-.15-.34-.34c0-.18.15-.34.34-.34z"/>
  <path class="st13" d="M17.51 8.42c.15-.01.11.26.08.32-.04.08-.08.08-.12.01-.04-.05-.11-.32.04-.33z"/>
  <path class="st35" d="M17.51 8.42c.15-.01.11.26.08.32-.04.08-.08.08-.12.01-.04-.05-.11-.32.04-.33z"/>
  <path class="st33" d="M17.52 8.57c.36-.02.27.61.2.75-.09.19-.18.19-.29.02-.09-.13-.26-.75.09-.77z"/>
  <path class="st35" d="M17.52 8.57c.36-.02.27.61.2.75-.09.19-.18.19-.29.02-.09-.13-.26-.75.09-.77z"/>
  <path class="st13" d="M14.65 8.81c.14-.05.17.23.16.29-.02.09-.05.1-.12.04-.05-.05-.19-.29-.04-.33z"/>
  <path class="st12" d="M14.65 8.81c.14-.05.17.23.16.29-.02.09-.05.1-.12.04-.05-.05-.19-.29-.04-.33z"/>
  <path class="st33" d="M14.69 8.95c.34-.11.41.53.37.68-.05.2-.13.23-.28.09-.11-.11-.43-.67-.09-.77z"/>
  <path class="st27" d="M14.69 8.95c.34-.11.41.53.37.68-.05.2-.13.23-.28.09-.11-.11-.43-.67-.09-.77z"/>
  <path class="st13" d="M18.4 5.59c-.76-.07-1.55.01-2.32.32-.65.26-.59 1.02.21 2.06-.07.13-.11.3-.12.49h.22c-.06-.13.01-.28.08-.39.05-.07.06-.06 0-.14-.47-.66-.79-1.24-.6-1.59.22-.42 1.09-.65 2.56-.61 0-.04 0-.08-.01-.12l-.02-.02z"/>
  <path class="st22" d="M18.4 5.59c-.76-.07-1.55.01-2.32.32-.65.26-.59 1.02.21 2.06-.07.13-.11.3-.12.49h.22c-.06-.13.01-.28.08-.39.05-.07.06-.06 0-.14-.47-.66-.79-1.24-.6-1.59.22-.42 1.09-.65 2.56-.61 0-.04 0-.08-.01-.12l-.02-.02z"/>
  <path class="st33" d="M14.69 5.8c.15 0 .27.12.27.27 0 .15-.12.27-.27.27-.15 0-.27-.12-.27-.27-.01-.14.12-.27.27-.27z"/>
  <path class="st35" d="M14.69 5.8c.15 0 .27.12.27.27 0 .15-.12.27-.27.27-.15 0-.27-.12-.27-.27-.01-.14.12-.27.27-.27z"/>
  <path class="st33" d="M15.22 5.63c.15 0 .27.12.27.27 0 .15-.12.27-.27.27s-.27-.12-.27-.27c0-.15.12-.27.27-.27z"/>
  <path class="st35" d="M15.22 5.63c.15 0 .27.12.27.27 0 .15-.12.27-.27.27s-.27-.12-.27-.27c0-.15.12-.27.27-.27z"/>
  <path class="st13" d="m15.29 5.86.08.11c-.43.24-.61.49-.57.74.01.04.14.5.43 1.39.2.14.35.26.45.37-.01.01.03.05.02.06.03.14-.12.11-.23.07-.05-.13-.2-.27-.29-.33-.02-.01-.08-.04-.09-.06-.16-.5-.31-.96-.45-1.39-.12-.43.17-.74.65-.96z"/>
  <path class="st35" d="m15.29 5.86.08.11c-.43.24-.61.49-.57.74.01.04.14.5.43 1.39.2.14.35.26.45.37-.01.01.03.05.02.06.03.14-.12.11-.23.07-.05-.13-.2-.27-.29-.33-.02-.01-.08-.04-.09-.06-.16-.5-.31-.96-.45-1.39-.12-.43.17-.74.65-.96z"/>
  <path class="st13" d="m13.59 9.07-.02.09c-.13.03-.23.04-.32.02.15-.14.27-.17.34-.11z"/>
  <path class="st22" d="m13.59 9.07-.02.09c-.13.03-.23.04-.32.02.15-.14.27-.17.34-.11z"/>
  <path class="st13" d="M13.58 8.87c.08.02.09.03.12.04.04.01.1 0 .15-.03.17-.1.17.08.11.22-.05.1-.02.21.02.3.05.1.04.15 0 .17-.03.02-.05.03-.08.05-.05.05-.08.05-.09-.03-.17-.07-.23-.23-.28-.38-.06-.2-.33-.25.05-.34z"/>
  <path class="st42" d="M13.58 8.87c.08.02.09.03.12.04.04.01.1 0 .15-.03.17-.1.17.08.11.22-.05.1-.02.21.02.3.05.1.04.15 0 .17-.03.02-.05.03-.08.05-.05.05-.08.05-.09-.03-.17-.07-.23-.23-.28-.38-.06-.2-.33-.25.05-.34z"/>
  <path class="st13" d="M13.65 8.88c.15.05.16-.03.26-.03-.04.23-.08.34-.32.22-.13-.07-.3.03-.33.1-.01.03-.09-.03-.11-.09-.11-.24.3-.27.5-.2z"/>
  <path class="st35" d="M13.65 8.88c.15.05.16-.03.26-.03-.04.23-.08.34-.32.22-.13-.07-.3.03-.33.1-.01.03-.09-.03-.11-.09-.11-.24.3-.27.5-.2z"/>
  <path class="st33" d="M18.16 5c.15 0 .27.12.27.27s-.12.27-.27.27-.27-.12-.27-.27.12-.27.27-.27z"/>
  <path class="st35" d="M18.16 5c.15 0 .27.12.27.27s-.12.27-.27.27-.27-.12-.27-.27.12-.27.27-.27z"/>
  <path class="st33" d="M17.6 5c.15 0 .27.12.27.27s-.12.27-.27.27-.27-.12-.27-.27.12-.27.27-.27z"/>
  <path class="st35" d="M17.6 5c.15 0 .27.12.27.27s-.12.27-.27.27-.27-.12-.27-.27.12-.27.27-.27z"/>
  <path class="st33" d="M17.05 5.05c.15 0 .27.12.27.27 0 .15-.12.27-.27.27-.15 0-.27-.12-.27-.27 0-.15.12-.27.27-.27z"/>
  <path class="st35" d="M17.05 5.05c.15 0 .27.12.27.27 0 .15-.12.27-.27.27-.15 0-.27-.12-.27-.27 0-.15.12-.27.27-.27z"/>
  <path class="st33" d="M16.54 5.15c.15 0 .27.12.27.27s-.12.27-.27.27-.27-.12-.27-.27.12-.27.27-.27z"/>
  <path class="st35" d="M16.54 5.15c.15 0 .27.12.27.27s-.12.27-.27.27-.27-.12-.27-.27.12-.27.27-.27z"/>
  <path class="st33" d="M13.17 6.54c.15 0 .27.12.27.27 0 .15-.12.27-.27.27-.15 0-.27-.12-.27-.27-.01-.14.11-.27.27-.27z"/>
  <path class="st35" d="M13.17 6.54c.15 0 .27.12.27.27 0 .15-.12.27-.27.27-.15 0-.27-.12-.27-.27-.01-.14.11-.27.27-.27z"/>
  <path class="st33" d="M13.63 6.25c.15 0 .27.12.27.27s-.12.27-.27.27c-.15 0-.27-.12-.27-.27s.12-.27.27-.27z"/>
  <path class="st35" d="M13.63 6.25c.15 0 .27.12.27.27s-.12.27-.27.27c-.15 0-.27-.12-.27-.27s.12-.27.27-.27z"/>
  <path class="st33" d="M14.16 6c.15 0 .27.12.27.27 0 .15-.12.27-.27.27-.15 0-.27-.12-.27-.27 0-.15.12-.27.27-.27z"/>
  <path class="st35" d="M14.16 6c.15 0 .27.12.27.27 0 .15-.12.27-.27.27-.15 0-.27-.12-.27-.27 0-.15.12-.27.27-.27z"/>
  <path class="st33" d="M12.8 6.99c.15 0 .27.12.27.27 0 .15-.12.27-.27.27s-.27-.12-.27-.27c0-.15.12-.27.27-.27z"/>
  <path class="st35" d="M12.8 6.99c.15 0 .27.12.27.27 0 .15-.12.27-.27.27s-.27-.12-.27-.27c0-.15.12-.27.27-.27z"/>
  <path class="st13" d="m18.18 11.68 1.01-.5 1.01.5-1.01.51-1.01-.51z"/>
  <path class="st35" d="m18.18 11.68 1.01-.5 1.01.5-1.01.51-1.01-.51z"/>
  <path class="st4" d="M19.19 11.38c.25 0 .45.14.45.3s-.2.3-.45.3-.45-.14-.45-.3.2-.3.45-.3z"/>
  <path class="st35" d="M19.19 11.38c.25 0 .45.14.45.3s-.2.3-.45.3-.45-.14-.45-.3.2-.3.45-.3z"/>
  <path class="st13" d="m15.94 11.81.98-.56 1.04.44-.98.56-1.04-.44z"/>
  <path class="st35" d="m15.94 11.81.98-.56 1.04.44-.98.56-1.04-.44z"/>
  <path class="st29" d="M16.93 11.44c.25-.02.46.11.47.27.01.17-.18.31-.43.33-.25.02-.46-.11-.47-.27-.02-.17.18-.31.43-.33z"/>
  <path class="st35" d="M16.93 11.44c.25-.02.46.11.47.27.01.17-.18.31-.43.33-.25.02-.46-.11-.47-.27-.02-.17.18-.31.43-.33z"/>
  <path class="st13" d="m14.77 11.41 1.06.4-.87.58c-.24-.08-.41-.84-.19-.98z"/>
  <path class="st35" d="m14.77 11.41 1.06.4-.87.58c-.24-.08-.41-.84-.19-.98z"/>
  <path class="st4" d="M14.79 11.6c.25-.03.47.09.48.26.02.17-.17.32-.42.35-.16.02-.26-.13-.28-.28-.02-.15.05-.31.22-.33z"/>
  <path class="st35" d="M14.79 11.6c.25-.03.47.09.48.26.02.17-.17.32-.42.35-.16.02-.26-.13-.28-.28-.02-.15.05-.31.22-.33z"/>
  <path class="st33" d="M18.1 11.87c.08 0 .14.06.14.14 0 .08-.06.14-.14.14-.08 0-.14-.06-.14-.14 0-.08.06-.14.14-.14z"/>
  <path class="st35" d="M18.1 11.87c.08 0 .14.06.14.14 0 .08-.06.14-.14.14-.08 0-.14-.06-.14-.14 0-.08.06-.14.14-.14z"/>
  <path class="st33" d="M15.93 11.99c.08 0 .14.06.14.14 0 .08-.06.14-.14.14-.08 0-.14-.06-.14-.14 0-.08.07-.14.14-.14z"/>
  <path class="st35" d="M15.93 11.99c.08 0 .14.06.14.14 0 .08-.06.14-.14.14-.08 0-.14-.06-.14-.14 0-.08.07-.14.14-.14z"/>
  <path class="st33" d="M15.86 11.34c.08 0 .14.06.14.14 0 .08-.06.14-.14.14s-.14-.06-.14-.14c0-.08.06-.14.14-.14z"/>
  <path class="st35" d="M15.86 11.34c.08 0 .14.06.14.14 0 .08-.06.14-.14.14s-.14-.06-.14-.14c0-.08.06-.14.14-.14z"/>
  <path class="st33" d="M18.09 11.24c.08 0 .14.06.14.14 0 .08-.06.14-.14.14-.08 0-.14-.06-.14-.14 0-.07.06-.14.14-.14z"/>
  <path class="st35" d="M18.09 11.24c.08 0 .14.06.14.14 0 .08-.06.14-.14.14-.08 0-.14-.06-.14-.14 0-.07.06-.14.14-.14z"/>
  <path class="st13" d="M14.26 9.98c.11-.03.27.2.31.2.05-.14-.05-.46-.25-.72-.13-.04-.14-.13-.17-.32-.01-.06-.12-.02-.12.08s-.01.16.01.25c.01.04 0 .07-.04.1.22.09.27.18.26.41z"/>
  <path class="st42" d="M14.26 9.98c.11-.03.27.2.31.2.05-.14-.05-.46-.25-.72-.13-.04-.14-.13-.17-.32-.01-.06-.12-.02-.12.08s-.01.16.01.25c.01.04 0 .07-.04.1.22.09.27.18.26.41z"/>
  <path class="st13" d="M14.16 9.14c-.02.04-.02.08-.03.15 0 .05.02.1.05.14.03.04.08.08.13.11.03.02.07.07.1.13s.05.13.05.17c0 .16.03.3.11.32.05.02.07.02.1.01-.01-.03-.01-.07-.03-.11a.351.351 0 0 1-.06-.16c0-.04-.02-.07-.01-.14.01-.05.04-.07.04-.12-.01-.09-.08-.27-.19-.27-.1 0-.15-.01-.21-.15-.01-.03-.03-.05-.05-.08z"/>
  <path class="st24" d="M14.16 9.14c-.02.04-.02.08-.03.15 0 .05.02.1.05.14.03.04.08.08.13.11.03.02.07.07.1.13s.05.13.05.17c0 .16.03.3.11.32.05.02.07.02.1.01-.01-.03-.01-.07-.03-.11a.351.351 0 0 1-.06-.16c0-.04-.02-.07-.01-.14.01-.05.04-.07.04-.12-.01-.09-.08-.27-.19-.27-.1 0-.15-.01-.21-.15-.01-.03-.03-.05-.05-.08z"/>
  <path class="st13" d="M13.77 9.52c.03-.02.06-.04.1-.05.05-.02.11-.02.17-.01.25.08.36.51.09.62-.05.01-.1-.04-.15-.15a.978.978 0 0 0-.18-.3c-.05-.04-.05-.08-.03-.11z"/>
  <path class="st23" d="M13.77 9.52c.03-.02.06-.04.1-.05.05-.02.11-.02.17-.01.25.08.36.51.09.62-.05.01-.1-.04-.15-.15a.978.978 0 0 0-.18-.3c-.05-.04-.05-.08-.03-.11z"/>
  <path class="st13" d="M13.9 9.55c.24-.09.42.36.19.45-.12.05-.13-.1-.15-.19-.04-.11-.27-.17-.04-.26z"/>
  <path class="st23" d="M13.9 9.55c.24-.09.42.36.19.45-.12.05-.13-.1-.15-.19-.04-.11-.27-.17-.04-.26z"/>
  <path class="st4" d="M13.92 9.62c.12-.05.28.23.13.29-.1.04-.18-.01-.21-.09s0-.17.08-.2z"/>
  <path class="st28" d="M13.92 9.62c.12-.05.28.23.13.29-.1.04-.18-.01-.21-.09s0-.17.08-.2z"/>
  <path class="st13" d="m22.44 11.81-.97-.56-1.04.44.98.56 1.03-.44z"/>
  <path class="st35" d="m22.44 11.81-.97-.56-1.04.44.98.56 1.03-.44z"/>
  <path class="st29" d="M21.46 11.44c-.25-.02-.46.11-.47.27-.01.17.18.31.44.33.25.02.46-.11.47-.27 0-.17-.19-.31-.44-.33z"/>
  <path class="st35" d="M21.46 11.44c-.25-.02-.46.11-.47.27-.01.17.18.31.44.33.25.02.46-.11.47-.27 0-.17-.19-.31-.44-.33z"/>
  <path class="st13" d="m23.62 11.41-1.05.4.87.58c.22-.08.4-.84.18-.98z"/>
  <path class="st35" d="m23.62 11.41-1.05.4.87.58c.22-.08.4-.84.18-.98z"/>
  <path class="st4" d="M23.6 11.6c-.25-.03-.47.09-.48.26-.02.17.17.32.42.35.16.02.26-.13.28-.28.01-.15-.05-.31-.22-.33z"/>
  <path class="st35" d="M23.6 11.6c-.25-.03-.47.09-.48.26-.02.17.17.32.42.35.16.02.26-.13.28-.28.01-.15-.05-.31-.22-.33z"/>
  <path class="st33" d="M20.29 11.87c-.08 0-.14.06-.14.14 0 .08.06.14.14.14s.14-.06.14-.14c0-.08-.06-.14-.14-.14z"/>
  <path class="st35" d="M20.29 11.87c-.08 0-.14.06-.14.14 0 .08.06.14.14.14s.14-.06.14-.14c0-.08-.06-.14-.14-.14z"/>
  <path class="st33" d="M22.45 11.99c-.08 0-.14.06-.14.14 0 .08.06.14.14.14s.14-.06.14-.14c0-.08-.06-.14-.14-.14z"/>
  <path class="st35" d="M22.45 11.99c-.08 0-.14.06-.14.14 0 .08.06.14.14.14s.14-.06.14-.14c0-.08-.06-.14-.14-.14z"/>
  <path class="st33" d="M22.53 11.34c-.08 0-.14.06-.14.14 0 .08.06.14.14.14.08 0 .14-.06.14-.14 0-.08-.07-.14-.14-.14z"/>
  <path class="st35" d="M22.53 11.34c-.08 0-.14.06-.14.14 0 .08.06.14.14.14.08 0 .14-.06.14-.14 0-.08-.07-.14-.14-.14z"/>
  <path class="st33" d="M20.29 11.24c-.08 0-.14.06-.14.14 0 .08.06.14.14.14s.14-.06.14-.14c0-.07-.06-.14-.14-.14z"/>
  <path class="st35" d="M20.29 11.24c-.08 0-.14.06-.14.14 0 .08.06.14.14.14s.14-.06.14-.14c0-.07-.06-.14-.14-.14z"/>
  <path class="st33" d="M15.55 7.43a.28.28 0 1 1 0 .56.28.28 0 0 1-.28-.28c0-.15.13-.28.28-.28z"/>
  <path class="st35" d="M15.55 7.43a.28.28 0 1 1 0 .56.28.28 0 0 1-.28-.28c0-.15.13-.28.28-.28z"/>
  <path class="st33" d="M15.35 6.96a.28.28 0 1 1 0 .56.28.28 0 0 1-.28-.28c-.01-.15.12-.28.28-.28z"/>
  <path class="st35" d="M15.35 6.96a.28.28 0 1 1 0 .56.28.28 0 0 1-.28-.28c-.01-.15.12-.28.28-.28z"/>
  <path class="st33" d="M16.02 5.31c.15 0 .27.12.27.27 0 .15-.12.27-.27.27-.15 0-.27-.12-.27-.27 0-.15.12-.27.27-.27z"/>
  <path class="st35" d="M16.02 5.31c.15 0 .27.12.27.27 0 .15-.12.27-.27.27-.15 0-.27-.12-.27-.27 0-.15.12-.27.27-.27z"/>
  <path class="st33" d="M15.56 5.52a.28.28 0 1 1 0 .56.28.28 0 0 1-.28-.28c0-.15.13-.28.28-.28z"/>
  <path class="st35" d="M15.56 5.52a.28.28 0 1 1 0 .56.28.28 0 0 1-.28-.28c0-.15.13-.28.28-.28z"/>
  <path class="st33" d="M15.23 5.92a.28.28 0 1 1-.28.28c-.01-.16.12-.28.28-.28z"/>
  <path class="st35" d="M15.23 5.92a.28.28 0 1 1-.28.28c-.01-.16.12-.28.28-.28z"/>
  <path class="st33" d="M15.17 6.42c.16 0 .28.13.28.28s-.13.28-.28.28c-.16 0-.28-.13-.28-.28s.13-.28.28-.28z"/>
  <path class="st35" d="M15.17 6.42c.16 0 .28.13.28.28s-.13.28-.28.28c-.16 0-.28-.13-.28-.28s.13-.28.28-.28z"/>
  <path class="st13" d="M19.33 3.26c.07 0 .13-.06.13-.14s-.06-.14-.13-.14c0-.08-.06-.14-.14-.14-.08 0-.14.06-.14.14-.07 0-.13.06-.13.14s.06.14.13.14v.28h-.24c0-.08-.06-.14-.14-.14-.08 0-.14.06-.14.13-.08 0-.14.06-.14.14 0 .08.06.14.14.14 0 .07.06.14.14.14.07 0 .13-.06.14-.13h.24v.94h.28v-.94h.24c0 .07.06.13.14.13.07 0 .14-.06.14-.14.08 0 .14-.06.14-.14 0-.08-.06-.14-.14-.14 0-.08-.06-.13-.14-.13-.08 0-.14.06-.14.14h-.24v-.28z"/>
  <path class="st35" d="M19.33 3.26c.07 0 .13-.06.13-.14s-.06-.14-.13-.14c0-.08-.06-.14-.14-.14-.08 0-.14.06-.14.14-.07 0-.13.06-.13.14s.06.14.13.14v.28h-.24c0-.08-.06-.14-.14-.14-.08 0-.14.06-.14.13-.08 0-.14.06-.14.14 0 .08.06.14.14.14 0 .07.06.14.14.14.07 0 .13-.06.14-.13h.24v.94h.28v-.94h.24c0 .07.06.13.14.13.07 0 .14-.06.14-.14.08 0 .14-.06.14-.14 0-.08-.06-.14-.14-.14 0-.08-.06-.13-.14-.13-.08 0-.14.06-.14.14h-.24v-.28z"/>
  <path class="st4" d="M19.19 4.15a.76.76 0 1 1 0 1.52.76.76 0 0 1 0-1.52z"/>
  <path class="st35" d="M19.19 4.15a.76.76 0 1 1 0 1.52.76.76 0 0 1 0-1.52z"/>
  <path class="st13" d="M19.19 4.15c.05 0 .09 0 .14.01v.6h-.28v-.6c.05-.01.1-.01.14-.01z"/>
  <path class="st35" d="M19.19 4.15c.05 0 .09 0 .14.01v.6h-.28v-.6c.05-.01.1-.01.14-.01z"/>
  <path class="st13" d="M19.94 4.76c.01.05.02.1.02.15 0 .04 0 .07-.01.11-.25-.01-.51-.02-.76-.02s-.5.01-.75.01c0-.04-.01-.07-.01-.11 0-.05.01-.1.02-.15.25-.01.5-.01.75-.01.24 0 .49.01.74.02z"/>
  <path class="st35" d="M19.94 4.76c.01.05.02.1.02.15 0 .04 0 .07-.01.11-.25-.01-.51-.02-.76-.02s-.5.01-.75.01c0-.04-.01-.07-.01-.11 0-.05.01-.1.02-.15.25-.01.5-.01.75-.01.24 0 .49.01.74.02z"/>
  <path class="st13" d="M18.6 5.39c-.16-.1-.19.06-.19.21.02.58.13 1.14-.03 1.85-.06.29-.16.45-.07.5.25.14.37.27.33.34.07.14.26.11.54.07.28.04.47.07.54-.07-.04-.07.08-.2.33-.34.1-.06 0-.22-.07-.5-.16-.71-.05-1.27-.03-1.85 0-.15-.02-.31-.19-.21-.29.19-.84.19-1.16 0z"/>
  <path class="st22" d="M18.6 5.39c-.16-.1-.19.06-.19.21.02.58.13 1.14-.03 1.85-.06.29-.16.45-.07.5.25.14.37.27.33.34.07.14.26.11.54.07.28.04.47.07.54-.07-.04-.07.08-.2.33-.34.1-.06 0-.22-.07-.5-.16-.71-.05-1.27-.03-1.85 0-.15-.02-.31-.19-.21-.29.19-.84.19-1.16 0z"/>
  <path class="st33" d="M19.19 7.58c.17 0 .3.14.3.3 0 .17-.14.3-.3.3s-.3-.14-.3-.3c0-.16.14-.3.3-.3z"/>
  <path class="st35" d="M19.19 7.58c.17 0 .3.14.3.3 0 .17-.14.3-.3.3s-.3-.14-.3-.3c0-.16.14-.3.3-.3z"/>
  <path class="st33" d="M19.19 7.06c.17 0 .3.14.3.3 0 .17-.14.3-.3.3s-.3-.14-.3-.3c0-.17.14-.3.3-.3z"/>
  <path class="st35" d="M19.19 7.06c.17 0 .3.14.3.3 0 .17-.14.3-.3.3s-.3-.14-.3-.3c0-.17.14-.3.3-.3z"/>
  <path class="st33" d="M19.19 6.55c.17 0 .3.14.3.3s-.14.3-.3.3-.3-.14-.3-.3.14-.3.3-.3z"/>
  <path class="st35" d="M19.19 6.55c.17 0 .3.14.3.3s-.14.3-.3.3-.3-.14-.3-.3.14-.3.3-.3z"/>
  <path class="st33" d="M19.19 5.12c.17 0 .3.14.3.3 0 .17-.14.3-.3.3s-.3-.14-.3-.3c0-.17.14-.3.3-.3z"/>
  <path class="st35" d="M19.19 5.12c.17 0 .3.14.3.3 0 .17-.14.3-.3.3s-.3-.14-.3-.3c0-.17.14-.3.3-.3z"/>
  <path class="st33" d="M19.19 5.56c.17 0 .3.14.3.3 0 .17-.14.3-.3.3s-.3-.14-.3-.3c0-.16.14-.3.3-.3z"/>
  <path class="st35" d="M19.19 5.56c.17 0 .3.14.3.3 0 .17-.14.3-.3.3s-.3-.14-.3-.3c0-.16.14-.3.3-.3z"/>
  <path class="st33" d="M19.19 6.05c.17 0 .3.14.3.3s-.14.3-.3.3-.3-.14-.3-.3.14-.3.3-.3z"/>
  <path class="st35" d="M19.19 6.05c.17 0 .3.14.3.3s-.14.3-.3.3-.3-.14-.3-.3.14-.3.3-.3z"/>
  <path class="st13" d="M18.85 8.24c-.12-.22-.25-.36-.38-.43.19-.58.23-1.33.12-2.25-.01-.14-.05-.2-.1-.2s-.07.07-.08.23c.03.51.08.95.05 1.33-.02.34-.1.62-.19.93-.01.04.02.08.17.16.11.06.18.14.21.22.03-.01.05-.01.07 0 .11.04.16.04.13.01z"/>
  <path class="st25" d="M18.85 8.24c-.12-.22-.25-.36-.38-.43.19-.58.23-1.33.12-2.25-.01-.14-.05-.2-.1-.2s-.07.07-.08.23c.03.51.08.95.05 1.33-.02.34-.1.62-.19.93-.01.04.02.08.17.16.11.06.18.14.21.22.03-.01.05-.01.07 0 .11.04.16.04.13.01z"/>
  <path class="st13" d="M19.54 8.24c.12-.22.25-.36.38-.43-.19-.58-.23-1.33-.12-2.25.01-.14.05-.2.1-.2s.07.07.08.23c-.03.51-.07.95-.05 1.33.02.34.1.62.19.93.01.04-.02.08-.17.16a.44.44 0 0 0-.21.22c-.03-.01-.05-.01-.07 0-.12.04-.16.04-.13.01z"/>
  <path class="st25" d="M19.54 8.24c.12-.22.25-.36.38-.43-.19-.58-.23-1.33-.12-2.25.01-.14.05-.2.1-.2s.07.07.08.23c-.03.51-.07.95-.05 1.33.02.34.1.62.19.93.01.04-.02.08-.17.16a.44.44 0 0 0-.21.22c-.03-.01-.05-.01-.07 0-.12.04-.16.04-.13.01z"/>
  <path class="st13" d="M19.41 8.13c.04.07.03.08.06.11.04.03.1.03.15.02.23-.04.2.1.1.26-.05.08-.17.16-.23.23s-.07.12-.09.14H19c-.02-.02-.03-.07-.09-.14s-.18-.15-.23-.23c-.1-.16-.14-.3.1-.26.06.01.12.01.15-.02.03-.02.02-.04.06-.11.03-.04.06-.08.1-.1.04-.02.08-.01.12-.01.04 0 .08-.01.12.01.02.02.05.06.08.1z"/>
  <path class="st35" d="M19.41 8.13c.04.07.03.08.06.11.04.03.1.03.15.02.23-.04.2.1.1.26-.05.08-.17.16-.23.23s-.07.12-.09.14H19c-.02-.02-.03-.07-.09-.14s-.18-.15-.23-.23c-.1-.16-.14-.3.1-.26.06.01.12.01.15-.02.03-.02.02-.04.06-.11.03-.04.06-.08.1-.1.04-.02.08-.01.12-.01.04 0 .08-.01.12.01.02.02.05.06.08.1z"/>
  <path class="st20" d="m19.16 8.89-.04-.01a.775.775 0 0 0-.19-.42c.11.08.2.25.23.43zm.07 0 .04-.01c.02-.17.09-.3.19-.42-.12.08-.21.25-.23.43z"/>
  <path class="st13" d="M19.73 8.25c-.02.05-.04.11-.09.15-.07.07-.18.02-.29-.07-.03-.03-.1-.04-.16-.04s-.12.01-.16.04c-.11.09-.22.14-.29.07a.597.597 0 0 1-.09-.15h.11c.06.01.12.01.15-.02.03-.02.02-.04.06-.1.03-.04.06-.08.1-.1.04-.02.08-.01.12-.01.04 0 .08-.01.12.01.04.02.07.06.1.1.04.07.03.08.06.1.04.03.1.03.15.02h.11z"/>
  <path class="st35" d="M19.73 8.25c-.02.05-.04.11-.09.15-.07.07-.18.02-.29-.07-.03-.03-.1-.04-.16-.04s-.12.01-.16.04c-.11.09-.22.14-.29.07a.597.597 0 0 1-.09-.15h.11c.06.01.12.01.15-.02.03-.02.02-.04.06-.1.03-.04.06-.08.1-.1.04-.02.08-.01.12-.01.04 0 .08-.01.12.01.04.02.07.06.1.1.04.07.03.08.06.1.04.03.1.03.15.02h.11z"/>
  <path class="st13" d="M18.14 8.97c.07-.04.08-.03.11-.06.03-.04.03-.1.02-.15-.04-.23.1-.2.26-.1.08.05.16.17.23.23s.12.07.14.09v.4c-.02.02-.07.03-.14.09s-.15.18-.23.23c-.16.1-.3.14-.26-.1.01-.06.01-.12-.02-.15-.02-.03-.04-.02-.11-.06a.24.24 0 0 1-.1-.1c-.02-.04-.01-.08-.01-.12 0-.04-.01-.08.01-.12.02-.02.05-.05.1-.08z"/>
  <path class="st35" d="M18.14 8.97c.07-.04.08-.03.11-.06.03-.04.03-.1.02-.15-.04-.23.1-.2.26-.1.08.05.16.17.23.23s.12.07.14.09v.4c-.02.02-.07.03-.14.09s-.15.18-.23.23c-.16.1-.3.14-.26-.1.01-.06.01-.12-.02-.15-.02-.03-.04-.02-.11-.06a.24.24 0 0 1-.1-.1c-.02-.04-.01-.08-.01-.12 0-.04-.01-.08.01-.12.02-.02.05-.05.1-.08z"/>
  <path class="st20" d="m18.9 9.22-.01.04c-.17.02-.3.09-.42.19.08-.12.25-.2.43-.23zm0-.07-.01-.04a.775.775 0 0 1-.42-.19c.08.12.25.2.43.23z"/>
  <path class="st13" d="M18.26 8.65c.05.02.11.04.15.09.07.07.02.18-.07.29-.03.03-.04.1-.04.16s.01.12.04.15c.09.11.14.22.07.29-.05.04-.1.07-.15.09v-.11c.01-.06.01-.12-.02-.15-.02-.03-.04-.02-.11-.06a.24.24 0 0 1-.1-.1c-.02-.04-.01-.08-.01-.12 0-.04-.01-.08.01-.12.02-.04.06-.07.1-.1.07-.04.08-.03.11-.06.03-.04.03-.1.02-.15v-.1z"/>
  <path class="st35" d="M18.26 8.65c.05.02.11.04.15.09.07.07.02.18-.07.29-.03.03-.04.1-.04.16s.01.12.04.15c.09.11.14.22.07.29-.05.04-.1.07-.15.09v-.11c.01-.06.01-.12-.02-.15-.02-.03-.04-.02-.11-.06a.24.24 0 0 1-.1-.1c-.02-.04-.01-.08-.01-.12 0-.04-.01-.08.01-.12.02-.04.06-.07.1-.1.07-.04.08-.03.11-.06.03-.04.03-.1.02-.15v-.1z"/>
  <path class="st13" d="M20.25 9.4c-.07.04-.08.03-.11.06-.03.04-.03.1-.02.15.04.23-.1.2-.26.1-.08-.05-.16-.17-.23-.23s-.12-.07-.14-.09v-.4c.02-.02.07-.03.14-.09s.15-.18.23-.23c.16-.1.3-.14.26.1-.01.06-.01.12.02.15.02.03.04.02.11.06.05.03.08.06.1.1s.01.08.01.12c0 .04.01.08-.01.12-.02.02-.06.05-.1.08z"/>
  <path class="st35" d="M20.25 9.4c-.07.04-.08.03-.11.06-.03.04-.03.1-.02.15.04.23-.1.2-.26.1-.08-.05-.16-.17-.23-.23s-.12-.07-.14-.09v-.4c.02-.02.07-.03.14-.09s.15-.18.23-.23c.16-.1.3-.14.26.1-.01.06-.01.12.02.15.02.03.04.02.11.06.05.03.08.06.1.1s.01.08.01.12c0 .04.01.08-.01.12-.02.02-.06.05-.1.08z"/>
  <path class="st20" d="m19.49 9.15.01-.04c.17-.02.3-.09.42-.19-.08.12-.25.2-.43.23zm0 .07.01.04c.17.02.3.09.42.19-.08-.12-.25-.2-.43-.23z"/>
  <path class="st13" d="M20.12 9.72c-.05-.02-.11-.04-.15-.09-.07-.07-.02-.18.07-.29.03-.03.04-.1.04-.16s-.01-.12-.04-.16c-.09-.11-.14-.22-.07-.29.05-.04.1-.07.15-.09v.1c-.01.06-.01.12.02.15.02.03.04.02.11.06.04.03.08.06.1.1s.01.08.01.12c0 .04.01.08-.01.12-.02.04-.06.07-.1.1-.07.04-.08.03-.11.06-.03.04-.03.1-.02.15.01.06.01.09 0 .12z"/>
  <path class="st35" d="M20.12 9.72c-.05-.02-.11-.04-.15-.09-.07-.07-.02-.18.07-.29.03-.03.04-.1.04-.16s-.01-.12-.04-.16c-.09-.11-.14-.22-.07-.29.05-.04.1-.07.15-.09v.1c-.01.06-.01.12.02.15.02.03.04.02.11.06.04.03.08.06.1.1s.01.08.01.12c0 .04.01.08-.01.12-.02.04-.06.07-.1.1-.07.04-.08.03-.11.06-.03.04-.03.1-.02.15.01.06.01.09 0 .12z"/>
  <path class="st13" d="M19.19 8.84c.19 0 .34.15.34.34 0 .19-.15.34-.34.34s-.34-.15-.34-.34c0-.18.15-.34.34-.34z"/>
  <path class="st35" d="M19.19 8.84c.19 0 .34.15.34.34 0 .19-.15.34-.34.34s-.34-.15-.34-.34c0-.18.15-.34.34-.34z"/>
  <path class="st13" d="M19.19 8.93c.14 0 .25.11.25.25s-.11.25-.25.25-.25-.11-.25-.25c0-.13.11-.25.25-.25z"/>
  <path class="st35" d="M19.19 8.93c.14 0 .25.11.25.25s-.11.25-.25.25-.25-.11-.25-.25c0-.13.11-.25.25-.25z"/>
  <path class="st4" d="M19.19 9.03c.09 0 .16.07.16.16s-.07.16-.16.16-.16-.07-.16-.16.07-.16.16-.16z"/>
  <path class="st35" d="M19.19 9.03c.09 0 .16.07.16.16s-.07.16-.16.16-.16-.07-.16-.16.07-.16.16-.16z"/>
  <path class="st20" d="m13.82 9.49.03-.01a.326.326 0 0 1-.06-.28c-.06.07-.04.18.03.29z"/>
  <path class="st13" d="M16.02 8.33c.06.07.05.09.08.11.04.03.1.02.15 0 .22-.08.22.09.15.28-.03.09-.12.2-.16.28-.04.08-.03.14-.05.16-.08.01-.15.02-.18.03-.03 0-.1.01-.17.02-.02-.01-.04-.07-.12-.13-.07-.06-.2-.13-.26-.2-.14-.15-.21-.3.01-.29.05 0 .11-.01.13-.05.02-.03 0-.04.02-.13.01-.06.03-.1.06-.13s.07-.03.1-.03c.04-.01.07-.03.11-.01.05 0 .1.04.13.09z"/>
  <path class="st35" d="M16.02 8.33c.06.07.05.09.08.11.04.03.1.02.15 0 .22-.08.22.09.15.28-.03.09-.12.2-.16.28-.04.08-.03.14-.05.16-.08.01-.15.02-.18.03-.03 0-.1.01-.17.02-.02-.01-.04-.07-.12-.13-.07-.06-.2-.13-.26-.2-.14-.15-.21-.3.01-.29.05 0 .11-.01.13-.05.02-.03 0-.04.02-.13.01-.06.03-.1.06-.13s.07-.03.1-.03c.04-.01.07-.03.11-.01.05 0 .1.04.13.09z"/>
  <path class="st20" d="M15.99 9.19h-.04c-.06-.17-.16-.31-.28-.42.13.06.26.23.32.42zm.07-.01c.01 0 .02-.01.03-.01-.02-.18 0-.33.07-.48-.09.1-.13.3-.1.49z"/>
  <path class="st13" d="M16.36 8.42c-.01.06-.02.13-.05.19-.05.09-.16.06-.29-.03-.04-.03-.1-.03-.15-.02-.06.01-.11.04-.13.07-.07.12-.16.18-.24.12a.566.566 0 0 1-.12-.15c.02-.01.05-.01.09-.01.05 0 .11-.01.13-.05.02-.03 0-.04.02-.13.01-.06.03-.1.06-.13s.07-.03.1-.03c.04-.01.07-.03.11-.01.04.02.08.05.12.1.06.07.05.09.08.11.04.03.1.02.15 0 .06-.03.09-.03.12-.03z"/>
  <path class="st35" d="M16.36 8.42c-.01.06-.02.13-.05.19-.05.09-.16.06-.29-.03-.04-.03-.1-.03-.15-.02-.06.01-.11.04-.13.07-.07.12-.16.18-.24.12a.566.566 0 0 1-.12-.15c.02-.01.05-.01.09-.01.05 0 .11-.01.13-.05.02-.03 0-.04.02-.13.01-.06.03-.1.06-.13s.07-.03.1-.03c.04-.01.07-.03.11-.01.04.02.08.05.12.1.06.07.05.09.08.11.04.03.1.02.15 0 .06-.03.09-.03.12-.03z"/>
  <path class="st13" d="M15.18 9.26c.03-.04.05-.03.06-.06.01-.03-.01-.09-.04-.14-.1-.2.01-.18.16-.1.04.02.08.06.13.09a.9.9 0 0 0 .12.1c.07.05.12.05.14.08.03.08.06.15.07.18.01.03.04.1.07.18 0 .02-.05.03-.08.09s-.06.16-.09.21c-.06.07-.11.12-.15.11-.05 0-.07-.06-.08-.18 0-.05-.03-.1-.07-.13-.03-.02-.03-.01-.1-.05a.272.272 0 0 1-.1-.08c-.03-.03-.03-.06-.04-.1-.01-.03-.03-.07-.03-.1 0-.04.01-.07.03-.1z"/>
  <path class="st2" d="M15.18 9.26c.03-.04.05-.03.06-.06.01-.03-.01-.09-.04-.14-.1-.2.01-.18.16-.1.04.02.08.06.13.09a.9.9 0 0 0 .12.1c.07.05.12.05.14.08.03.08.06.15.07.18.01.03.04.1.07.18 0 .02-.05.03-.08.09s-.06.16-.09.21c-.06.07-.11.12-.15.11-.05 0-.07-.06-.08-.18 0-.05-.03-.1-.07-.13-.03-.02-.03-.01-.1-.05a.272.272 0 0 1-.1-.08c-.03-.03-.03-.06-.04-.1-.01-.03-.03-.07-.03-.1 0-.04.01-.07.03-.1z"/>
  <path class="st20" d="M15.84 9.48c0 .01.01.03.01.04-.06.02-.12.04-.16.08-.04.04-.08.08-.11.14a.26.26 0 0 1 .09-.16c.04-.05.1-.08.17-.1zm-.03-.07c-.01-.01-.01-.03-.02-.04a.802.802 0 0 1-.21-.05 1.06 1.06 0 0 1-.2-.12c.05.06.12.11.19.14.08.03.16.06.24.07z"/>
  <path class="st13" d="M15.17 8.94c.04.02.07.04.12.08.04.03.06.08.07.13.01.05 0 .11-.01.17-.01.04 0 .1.02.16s.05.12.09.15c.11.11.18.22.15.29-.02.05-.03.06-.07.08-.01-.03-.04-.05-.05-.09a.3.3 0 0 0-.07-.15c-.03-.03-.03-.06-.1-.1-.04-.03-.08-.01-.11-.05-.06-.07-.13-.24-.06-.31.07-.08.1-.12.04-.25-.02-.05-.02-.09-.02-.11z"/>
  <path class="st22" d="M15.17 8.94c.04.02.07.04.12.08.04.03.06.08.07.13.01.05 0 .11-.01.17-.01.04 0 .1.02.16s.05.12.09.15c.11.11.18.22.15.29-.02.05-.03.06-.07.08-.01-.03-.04-.05-.05-.09a.3.3 0 0 0-.07-.15c-.03-.03-.03-.06-.1-.1-.04-.03-.08-.01-.11-.05-.06-.07-.13-.24-.06-.31.07-.08.1-.12.04-.25-.02-.05-.02-.09-.02-.11z"/>
  <path class="st13" d="M17.06 9.48c-.06.05-.07.04-.09.07-.02.04-.01.09.01.15.07.21-.06.19-.21.11-.08-.04-.17-.14-.24-.19-.07-.05-.12-.05-.14-.07-.02-.08-.04-.16-.04-.19-.01-.03-.02-.11-.04-.19.01-.03.06-.04.11-.11s.1-.2.16-.27c.13-.13.26-.19.26.07 0 .06.01.12.05.16.03.03.04.01.11.05.05.02.08.05.11.09.03.03.02.08.03.12.01.04.02.08.01.12-.03.02-.05.05-.09.08z"/>
  <path class="st27" d="M17.06 9.48c-.06.05-.07.04-.09.07-.02.04-.01.09.01.15.07.21-.06.19-.21.11-.08-.04-.17-.14-.24-.19-.07-.05-.12-.05-.14-.07-.02-.08-.04-.16-.04-.19-.01-.03-.02-.11-.04-.19.01-.03.06-.04.11-.11s.1-.2.16-.27c.13-.13.26-.19.26.07 0 .06.01.12.05.16.03.03.04.01.11.05.05.02.08.05.11.09.03.03.02.08.03.12.01.04.02.08.01.12-.03.02-.05.05-.09.08z"/>
  <path class="st20" d="M16.34 9.32v-.04a.63.63 0 0 0 .34-.24.51.51 0 0 1-.34.28zm.02.07c0 .01.01.02.01.04a.7.7 0 0 1 .41.14c-.09-.11-.26-.17-.42-.18z"/>
  <path class="st13" d="M17 9.8a.34.34 0 0 1-.15-.07c-.07-.06-.05-.17.01-.28.02-.04.02-.1.01-.16s-.03-.12-.07-.15c-.1-.1-.17-.21-.11-.29.04-.05.08-.08.13-.11.01.03.02.06.02.11 0 .06.01.12.05.16.03.03.04.01.11.05.05.02.08.05.11.09.03.03.02.08.03.12.01.04.02.08.01.12-.02.04-.04.07-.08.11-.07.03-.08.02-.1.05-.02.04-.01.09.01.15.01.04.02.07.02.1z"/>
  <path class="st2" d="M17 9.8a.34.34 0 0 1-.15-.07c-.07-.06-.05-.17.01-.28.02-.04.02-.1.01-.16s-.03-.12-.07-.15c-.1-.1-.17-.21-.11-.29.04-.05.08-.08.13-.11.01.03.02.06.02.11 0 .06.01.12.05.16.03.03.04.01.11.05.05.02.08.05.11.09.03.03.02.08.03.12.01.04.02.08.01.12-.02.04-.04.07-.08.11-.07.03-.08.02-.1.05-.02.04-.01.09.01.15.01.04.02.07.02.1z"/>
  <path class="st13" d="M16.02 9.05c.18-.01.35.15.38.34.02.19-.1.34-.27.34s-.33-.14-.36-.32c-.04-.18.07-.35.25-.36z"/>
  <path class="st35" d="M16.02 9.05c.18-.01.35.15.38.34.02.19-.1.34-.27.34s-.33-.14-.36-.32c-.04-.18.07-.35.25-.36z"/>
  <path class="st13" d="M16.03 9.15c.13-.01.26.11.27.25s-.07.25-.2.25-.24-.1-.27-.24c-.01-.14.07-.26.2-.26z"/>
  <path class="st35" d="M16.03 9.15c.13-.01.26.11.27.25s-.07.25-.2.25-.24-.1-.27-.24c-.01-.14.07-.26.2-.26z"/>
  <path class="st4" d="M16.05 9.24c.08 0 .16.07.17.15.01.09-.04.16-.12.16-.08 0-.16-.06-.17-.15-.02-.08.03-.15.12-.16z"/>
  <path class="st35" d="M16.05 9.24c.08 0 .16.07.17.15.01.09-.04.16-.12.16-.08 0-.16-.06-.17-.15-.02-.08.03-.15.12-.16z"/>
  <path class="st33" d="M22.62 7.9a.28.28 0 1 0 0 .56.28.28 0 1 0 0-.56z"/>
  <path class="st35" d="M22.62 7.9a.28.28 0 1 0 0 .56.28.28 0 1 0 0-.56z"/>
  <path class="st33" d="M25.02 8.49c-.15 0-.26.12-.26.26 0 .15.12.26.26.26s.26-.12.26-.26-.11-.26-.26-.26z"/>
  <path class="st35" d="M25.02 8.49c-.15 0-.26.12-.26.26 0 .15.12.26.26.26s.26-.12.26-.26-.11-.26-.26-.26z"/>
  <path class="st33" d="M25.27 8.01c-.15 0-.26.12-.26.26s.12.26.26.26.26-.12.26-.26-.11-.26-.26-.26z"/>
  <path class="st35" d="M25.27 8.01c-.15 0-.26.12-.26.26s.12.26.26.26.26-.12.26-.26-.11-.26-.26-.26z"/>
  <path class="st33" d="M25.51 7.52c-.14 0-.26.12-.26.26 0 .15.12.26.26.26.15 0 .26-.12.26-.26s-.12-.26-.26-.26z"/>
  <path class="st35" d="M25.51 7.52c-.14 0-.26.12-.26.26 0 .15.12.26.26.26.15 0 .26-.12.26-.26s-.12-.26-.26-.26z"/>
  <path class="st13" d="M20.87 8.42c-.15-.01-.11.26-.08.32.04.08.08.08.12.01.04-.05.11-.32-.04-.33z"/>
  <path class="st35" d="M20.87 8.42c-.15-.01-.11.26-.08.32.04.08.08.08.12.01.04-.05.11-.32-.04-.33z"/>
  <path class="st33" d="M20.86 8.57c-.36-.02-.27.61-.2.75.09.18.18.19.29.02.1-.13.27-.75-.09-.77z"/>
  <path class="st35" d="M20.86 8.57c-.36-.02-.27.61-.2.75.09.18.18.19.29.02.1-.13.27-.75-.09-.77z"/>
  <path class="st13" d="M23.74 8.81c-.15-.05-.17.23-.16.29.02.09.05.1.12.04.05-.05.18-.29.04-.33z"/>
  <path class="st12" d="M23.74 8.81c-.15-.05-.17.23-.16.29.02.09.05.1.12.04.05-.05.18-.29.04-.33z"/>
  <path class="st33" d="M23.69 8.95c-.34-.11-.41.53-.37.68.05.2.13.23.28.09.12-.11.43-.67.09-.77z"/>
  <path class="st27" d="M23.69 8.95c-.34-.11-.41.53-.37.68.05.2.13.23.28.09.12-.11.43-.67.09-.77z"/>
  <path class="st13" d="M19.99 5.59c.76-.07 1.55.01 2.32.32.65.26.59 1.02-.21 2.06.07.13.11.3.12.49H22c.06-.13-.01-.28-.08-.39-.05-.07-.06-.06 0-.14.47-.66.79-1.24.6-1.59-.22-.42-1.09-.65-2.56-.61 0-.04.01-.08.01-.12.01-.01.01-.02.02-.02z"/>
  <path class="st22" d="M19.99 5.59c.76-.07 1.55.01 2.32.32.65.26.59 1.02-.21 2.06.07.13.11.3.12.49H22c.06-.13-.01-.28-.08-.39-.05-.07-.06-.06 0-.14.47-.66.79-1.24.6-1.59-.22-.42-1.09-.65-2.56-.61 0-.04.01-.08.01-.12.01-.01.01-.02.02-.02z"/>
  <path class="st33" d="M23.7 5.8c-.15 0-.27.12-.27.27 0 .15.12.27.27.27.15 0 .27-.12.27-.27 0-.14-.12-.27-.27-.27z"/>
  <path class="st35" d="M23.7 5.8c-.15 0-.27.12-.27.27 0 .15.12.27.27.27.15 0 .27-.12.27-.27 0-.14-.12-.27-.27-.27z"/>
  <path class="st33" d="M23.16 5.63c-.15 0-.27.12-.27.27 0 .15.12.27.27.27.15 0 .27-.12.27-.27.01-.15-.12-.27-.27-.27z"/>
  <path class="st35" d="M23.16 5.63c-.15 0-.27.12-.27.27 0 .15.12.27.27.27.15 0 .27-.12.27-.27.01-.15-.12-.27-.27-.27z"/>
  <path class="st13" d="m23.09 5.86-.08.11c.43.24.61.49.57.74-.01.04-.14.5-.43 1.39-.2.14-.35.26-.45.37.01.01-.03.05-.02.06-.03.14.12.11.23.07.05-.13.2-.27.29-.33.02-.01.08-.04.09-.06.16-.5.31-.96.45-1.39.13-.43-.17-.74-.65-.96z"/>
  <path class="st35" d="m23.09 5.86-.08.11c.43.24.61.49.57.74-.01.04-.14.5-.43 1.39-.2.14-.35.26-.45.37.01.01-.03.05-.02.06-.03.14.12.11.23.07.05-.13.2-.27.29-.33.02-.01.08-.04.09-.06.16-.5.31-.96.45-1.39.13-.43-.17-.74-.65-.96z"/>
  <path class="st13" d="m24.79 9.07.02.09c.13.03.23.04.32.02-.15-.14-.26-.17-.34-.11z"/>
  <path class="st22" d="m24.79 9.07.02.09c.13.03.23.04.32.02-.15-.14-.26-.17-.34-.11z"/>
  <path class="st13" d="M24.81 8.87c-.08.02-.09.03-.12.04-.04.01-.1 0-.15-.03-.17-.1-.17.08-.11.22.05.1.02.21-.02.3-.05.1-.04.15 0 .17.03.02.05.03.07.05.05.05.08.05.09-.03.17-.07.23-.23.28-.38.07-.2.34-.25-.04-.34z"/>
  <path class="st42" d="M24.81 8.87c-.08.02-.09.03-.12.04-.04.01-.1 0-.15-.03-.17-.1-.17.08-.11.22.05.1.02.21-.02.3-.05.1-.04.15 0 .17.03.02.05.03.07.05.05.05.08.05.09-.03.17-.07.23-.23.28-.38.07-.2.34-.25-.04-.34z"/>
  <path class="st13" d="M24.74 8.88c-.15.05-.16-.03-.26-.03.04.23.08.34.32.22.13-.07.3.03.33.1.01.03.09-.03.11-.09.11-.24-.3-.27-.5-.2z"/>
  <path class="st35" d="M24.74 8.88c-.15.05-.16-.03-.26-.03.04.23.08.34.32.22.13-.07.3.03.33.1.01.03.09-.03.11-.09.11-.24-.3-.27-.5-.2z"/>
  <path class="st33" d="M20.23 5c-.15 0-.27.12-.27.27s.12.27.27.27.27-.12.27-.27-.12-.27-.27-.27z"/>
  <path class="st35" d="M20.23 5c-.15 0-.27.12-.27.27s.12.27.27.27.27-.12.27-.27-.12-.27-.27-.27z"/>
  <path class="st33" d="M20.78 5c-.15 0-.27.12-.27.27s.12.27.27.27.27-.12.27-.27-.12-.27-.27-.27z"/>
  <path class="st35" d="M20.78 5c-.15 0-.27.12-.27.27s.12.27.27.27.27-.12.27-.27-.12-.27-.27-.27z"/>
  <path class="st33" d="M21.34 5.05c-.15 0-.27.12-.27.27 0 .15.12.27.27.27s.27-.12.27-.27c0-.15-.12-.27-.27-.27z"/>
  <path class="st35" d="M21.34 5.05c-.15 0-.27.12-.27.27 0 .15.12.27.27.27s.27-.12.27-.27c0-.15-.12-.27-.27-.27z"/>
  <path class="st33" d="M21.85 5.15c-.15 0-.27.12-.27.27s.12.27.27.27c.15 0 .27-.12.27-.27s-.12-.27-.27-.27z"/>
  <path class="st35" d="M21.85 5.15c-.15 0-.27.12-.27.27s.12.27.27.27c.15 0 .27-.12.27-.27s-.12-.27-.27-.27z"/>
  <path class="st33" d="M25.22 6.54c-.15 0-.27.12-.27.27 0 .15.12.27.27.27.15 0 .27-.12.27-.27 0-.14-.12-.27-.27-.27z"/>
  <path class="st35" d="M25.22 6.54c-.15 0-.27.12-.27.27 0 .15.12.27.27.27.15 0 .27-.12.27-.27 0-.14-.12-.27-.27-.27z"/>
  <path class="st33" d="M24.75 6.25c-.15 0-.27.12-.27.27s.12.27.27.27.27-.12.27-.27-.12-.27-.27-.27z"/>
  <path class="st35" d="M24.75 6.25c-.15 0-.27.12-.27.27s.12.27.27.27.27-.12.27-.27-.12-.27-.27-.27z"/>
  <path class="st33" d="M24.22 6c-.15 0-.27.12-.27.27 0 .15.12.27.27.27.15 0 .27-.12.27-.27 0-.15-.12-.27-.27-.27z"/>
  <path class="st35" d="M24.22 6c-.15 0-.27.12-.27.27 0 .15.12.27.27.27.15 0 .27-.12.27-.27 0-.15-.12-.27-.27-.27z"/>
  <path class="st33" d="M25.58 6.99c-.15 0-.27.12-.27.27 0 .15.12.27.27.27.15 0 .27-.12.27-.27 0-.15-.12-.27-.27-.27z"/>
  <path class="st35" d="M25.58 6.99c-.15 0-.27.12-.27.27 0 .15.12.27.27.27.15 0 .27-.12.27-.27 0-.15-.12-.27-.27-.27z"/>
  <path class="st13" d="M24.13 9.98c-.11-.03-.27.2-.31.2-.05-.14.05-.46.25-.72.13-.04.14-.13.17-.32.01-.06.12-.02.12.08s.01.16-.01.25c-.01.04 0 .07.04.1-.22.09-.27.18-.26.41z"/>
  <path class="st42" d="M24.13 9.98c-.11-.03-.27.2-.31.2-.05-.14.05-.46.25-.72.13-.04.14-.13.17-.32.01-.06.12-.02.12.08s.01.16-.01.25c-.01.04 0 .07.04.1-.22.09-.27.18-.26.41z"/>
  <path class="st13" d="M24.22 9.14c.02.04.02.08.03.15 0 .05-.02.1-.05.14-.03.04-.08.08-.13.11-.03.02-.07.07-.1.13a.45.45 0 0 0-.05.17c0 .16-.04.3-.11.32-.05.02-.07.02-.1.01.01-.03.01-.07.03-.11.03-.05.06-.11.06-.16 0-.04.02-.07.01-.14-.01-.05-.04-.07-.04-.12.01-.09.08-.27.19-.27.1 0 .15-.01.21-.15.01-.03.04-.05.05-.08z"/>
  <path class="st24" d="M24.22 9.14c.02.04.02.08.03.15 0 .05-.02.1-.05.14-.03.04-.08.08-.13.11-.03.02-.07.07-.1.13a.45.45 0 0 0-.05.17c0 .16-.04.3-.11.32-.05.02-.07.02-.1.01.01-.03.01-.07.03-.11.03-.05.06-.11.06-.16 0-.04.02-.07.01-.14-.01-.05-.04-.07-.04-.12.01-.09.08-.27.19-.27.1 0 .15-.01.21-.15.01-.03.04-.05.05-.08z"/>
  <path class="st13" d="M24.61 9.52c-.03-.02-.06-.04-.1-.05a.322.322 0 0 0-.17-.01c-.25.07-.36.51-.09.62.05.01.1-.04.15-.15.06-.14.12-.24.18-.3.06-.04.06-.08.03-.11z"/>
  <path class="st23" d="M24.61 9.52c-.03-.02-.06-.04-.1-.05a.322.322 0 0 0-.17-.01c-.25.07-.36.51-.09.62.05.01.1-.04.15-.15.06-.14.12-.24.18-.3.06-.04.06-.08.03-.11z"/>
  <path class="st13" d="M24.49 9.55c-.24-.09-.42.36-.19.45.12.05.13-.1.15-.19.03-.11.27-.17.04-.26z"/>
  <path class="st23" d="M24.49 9.55c-.24-.09-.42.36-.19.45.12.05.13-.1.15-.19.03-.11.27-.17.04-.26z"/>
  <path class="st4" d="M24.46 9.62c-.12-.05-.28.23-.13.29.1.04.18-.01.21-.09.03-.09 0-.17-.08-.2z"/>
  <path class="st28" d="M24.46 9.62c-.12-.05-.28.23-.13.29.1.04.18-.01.21-.09.03-.09 0-.17-.08-.2z"/>
  <path class="st33" d="M22.83 7.43a.28.28 0 1 0 0 .56c.16 0 .28-.13.28-.28.01-.15-.12-.28-.28-.28z"/>
  <path class="st35" d="M22.83 7.43a.28.28 0 1 0 0 .56c.16 0 .28-.13.28-.28.01-.15-.12-.28-.28-.28z"/>
  <path class="st33" d="M23.04 6.96a.28.28 0 1 0 0 .56.28.28 0 1 0 0-.56z"/>
  <path class="st35" d="M23.04 6.96a.28.28 0 1 0 0 .56.28.28 0 1 0 0-.56z"/>
  <path class="st33" d="M22.36 5.31c-.15 0-.27.12-.27.27 0 .15.12.27.27.27s.27-.12.27-.27c.01-.15-.12-.27-.27-.27z"/>
  <path class="st35" d="M22.36 5.31c-.15 0-.27.12-.27.27 0 .15.12.27.27.27s.27-.12.27-.27c.01-.15-.12-.27-.27-.27z"/>
  <path class="st33" d="M22.82 5.52a.28.28 0 1 0 0 .56.28.28 0 1 0 0-.56z"/>
  <path class="st35" d="M22.82 5.52a.28.28 0 1 0 0 .56.28.28 0 1 0 0-.56z"/>
  <path class="st33" d="M23.16 5.92a.28.28 0 1 0 0 .56.28.28 0 1 0 0-.56z"/>
  <path class="st35" d="M23.16 5.92a.28.28 0 1 0 0 .56.28.28 0 1 0 0-.56z"/>
  <path class="st33" d="M23.21 6.42c-.16 0-.28.13-.28.28s.13.28.28.28a.28.28 0 1 0 0-.56z"/>
  <path class="st35" d="M23.21 6.42c-.16 0-.28.13-.28.28s.13.28.28.28a.28.28 0 1 0 0-.56z"/>
  <path class="st20" d="m24.57 9.49-.03-.01c.07-.09.08-.19.06-.28.05.07.04.18-.03.29z"/>
  <path class="st13" d="M22.36 8.33c-.06.07-.05.09-.08.11-.04.03-.1.02-.15 0-.22-.08-.22.09-.15.28.02.09.11.2.16.28.04.08.03.14.05.16.08.01.15.02.18.03.03 0 .1.01.17.02.03-.01.04-.07.12-.13.07-.06.2-.13.26-.2.14-.15.21-.3-.01-.29-.05 0-.11-.01-.13-.05-.02-.03 0-.04-.02-.13a.226.226 0 0 0-.06-.13c-.03-.03-.07-.03-.1-.03-.04-.01-.07-.03-.11-.01-.05 0-.09.04-.13.09z"/>
  <path class="st35" d="M22.36 8.33c-.06.07-.05.09-.08.11-.04.03-.1.02-.15 0-.22-.08-.22.09-.15.28.02.09.11.2.16.28.04.08.03.14.05.16.08.01.15.02.18.03.03 0 .1.01.17.02.03-.01.04-.07.12-.13.07-.06.2-.13.26-.2.14-.15.21-.3-.01-.29-.05 0-.11-.01-.13-.05-.02-.03 0-.04-.02-.13a.226.226 0 0 0-.06-.13c-.03-.03-.07-.03-.1-.03-.04-.01-.07-.03-.11-.01-.05 0-.09.04-.13.09z"/>
  <path class="st20" d="M22.39 9.19h.04c.06-.17.16-.31.28-.42-.13.06-.25.23-.32.42zm-.06-.01c-.01 0-.02-.01-.03-.01.02-.18 0-.33-.07-.48.09.1.12.3.1.49z"/>
  <path class="st13" d="M22.02 8.42c.01.06.02.13.05.19.05.09.16.06.29-.03.04-.03.1-.03.15-.02.05.01.11.04.13.07.07.12.16.18.24.12.05-.04.09-.1.12-.15-.02-.01-.05-.01-.09-.01-.05 0-.11-.01-.13-.05-.02-.03 0-.04-.02-.13a.226.226 0 0 0-.06-.13c-.03-.03-.07-.03-.1-.03-.04-.01-.07-.03-.11-.01-.04.02-.08.05-.12.1-.06.07-.05.09-.08.11-.04.03-.1.02-.15 0-.06-.03-.09-.03-.12-.03z"/>
  <path class="st35" d="M22.02 8.42c.01.06.02.13.05.19.05.09.16.06.29-.03.04-.03.1-.03.15-.02.05.01.11.04.13.07.07.12.16.18.24.12.05-.04.09-.1.12-.15-.02-.01-.05-.01-.09-.01-.05 0-.11-.01-.13-.05-.02-.03 0-.04-.02-.13a.226.226 0 0 0-.06-.13c-.03-.03-.07-.03-.1-.03-.04-.01-.07-.03-.11-.01-.04.02-.08.05-.12.1-.06.07-.05.09-.08.11-.04.03-.1.02-.15 0-.06-.03-.09-.03-.12-.03z"/>
  <path class="st13" d="M23.2 9.26c-.03-.04-.05-.03-.05-.06-.01-.03.01-.09.04-.14.1-.2-.01-.18-.16-.1-.04.02-.08.06-.13.09a.9.9 0 0 1-.12.1c-.07.05-.12.05-.14.08-.03.08-.06.15-.07.18-.01.03-.04.1-.07.18 0 .02.05.03.08.09s.06.16.09.21c.06.07.11.12.15.11.04-.01.07-.06.08-.19 0-.05.03-.1.07-.13.03-.02.03-.01.1-.05.04-.02.08-.05.1-.08.03-.03.03-.06.04-.1.01-.03.03-.07.03-.1s-.02-.06-.04-.09z"/>
  <path class="st2" d="M23.2 9.26c-.03-.04-.05-.03-.05-.06-.01-.03.01-.09.04-.14.1-.2-.01-.18-.16-.1-.04.02-.08.06-.13.09a.9.9 0 0 1-.12.1c-.07.05-.12.05-.14.08-.03.08-.06.15-.07.18-.01.03-.04.1-.07.18 0 .02.05.03.08.09s.06.16.09.21c.06.07.11.12.15.11.04-.01.07-.06.08-.19 0-.05.03-.1.07-.13.03-.02.03-.01.1-.05.04-.02.08-.05.1-.08.03-.03.03-.06.04-.1.01-.03.03-.07.03-.1s-.02-.06-.04-.09z"/>
  <path class="st20" d="M22.55 9.48c0 .01-.01.03-.01.04.06.02.12.04.16.08.04.04.08.08.11.14a.26.26 0 0 0-.09-.16.323.323 0 0 0-.17-.1zm.02-.07c.01-.01.01-.03.02-.04.07-.01.14-.02.21-.05.07-.03.13-.07.2-.12-.05.06-.12.11-.19.14-.08.03-.16.06-.24.07z"/>
  <path class="st13" d="M23.22 8.94a.62.62 0 0 0-.12.08.21.21 0 0 0-.07.13c-.01.05 0 .11.01.17.01.04 0 .1-.02.16s-.05.12-.09.15c-.11.11-.18.22-.15.29.02.05.04.06.07.08.01-.03.04-.05.05-.09a.3.3 0 0 1 .07-.15c.03-.03.03-.06.1-.1.04-.03.08-.01.11-.05.06-.07.13-.24.06-.31-.07-.08-.1-.12-.04-.25.01-.05.01-.09.02-.11z"/>
  <path class="st22" d="M23.22 8.94a.62.62 0 0 0-.12.08.21.21 0 0 0-.07.13c-.01.05 0 .11.01.17.01.04 0 .1-.02.16s-.05.12-.09.15c-.11.11-.18.22-.15.29.02.05.04.06.07.08.01-.03.04-.05.05-.09a.3.3 0 0 1 .07-.15c.03-.03.03-.06.1-.1.04-.03.08-.01.11-.05.06-.07.13-.24.06-.31-.07-.08-.1-.12-.04-.25.01-.05.01-.09.02-.11z"/>
  <path class="st13" d="M21.33 9.48c.06.05.07.04.09.07.02.04.01.09-.01.15-.07.21.06.19.21.11.08-.04.17-.14.24-.19.07-.05.12-.05.14-.07.02-.08.03-.16.04-.19.01-.03.02-.11.04-.19-.01-.03-.06-.04-.1-.11-.05-.07-.1-.2-.16-.27-.13-.13-.26-.19-.26.06 0 .06-.01.12-.05.16-.03.03-.04.01-.11.05-.05.02-.09.05-.11.09-.03.03-.02.08-.03.12-.01.04-.02.08-.01.12.01.03.04.06.08.09z"/>
  <path class="st27" d="M21.33 9.48c.06.05.07.04.09.07.02.04.01.09-.01.15-.07.21.06.19.21.11.08-.04.17-.14.24-.19.07-.05.12-.05.14-.07.02-.08.03-.16.04-.19.01-.03.02-.11.04-.19-.01-.03-.06-.04-.1-.11-.05-.07-.1-.2-.16-.27-.13-.13-.26-.19-.26.06 0 .06-.01.12-.05.16-.03.03-.04.01-.11.05-.05.02-.09.05-.11.09-.03.03-.02.08-.03.12-.01.04-.02.08-.01.12.01.03.04.06.08.09z"/>
  <path class="st20" d="M22.04 9.32v-.04a.63.63 0 0 1-.34-.24c.05.13.19.24.34.28zm-.01.07c0 .01-.01.02-.01.04a.7.7 0 0 0-.41.14c.09-.11.26-.17.42-.18z"/>
  <path class="st13" d="M21.39 9.8c.05-.01.1-.03.15-.07.07-.06.05-.17-.01-.28a.279.279 0 0 1-.01-.16c.01-.06.03-.12.07-.15.1-.1.17-.21.11-.29a.449.449 0 0 0-.13-.11c-.01.03-.02.06-.02.11 0 .06-.01.12-.05.16-.03.03-.04.01-.11.05-.05.02-.08.05-.11.09-.03.03-.02.08-.03.12-.01.04-.02.08-.01.12.02.04.04.07.08.11.06.05.07.04.09.07.02.04.01.09-.01.15-.01.02-.01.05-.01.08z"/>
  <path class="st2" d="M21.39 9.8c.05-.01.1-.03.15-.07.07-.06.05-.17-.01-.28a.279.279 0 0 1-.01-.16c.01-.06.03-.12.07-.15.1-.1.17-.21.11-.29a.449.449 0 0 0-.13-.11c-.01.03-.02.06-.02.11 0 .06-.01.12-.05.16-.03.03-.04.01-.11.05-.05.02-.08.05-.11.09-.03.03-.02.08-.03.12-.01.04-.02.08-.01.12.02.04.04.07.08.11.06.05.07.04.09.07.02.04.01.09-.01.15-.01.02-.01.05-.01.08z"/>
  <path class="st13" d="M22.37 9.05c-.18-.01-.35.15-.38.34-.03.19.1.34.27.34s.33-.14.36-.32c.04-.18-.07-.35-.25-.36z"/>
  <path class="st35" d="M22.37 9.05c-.18-.01-.35.15-.38.34-.03.19.1.34.27.34s.33-.14.36-.32c.04-.18-.07-.35-.25-.36z"/>
  <path class="st13" d="M22.35 9.15c-.13-.01-.26.11-.28.25-.02.14.07.25.2.25s.24-.1.27-.24c.03-.14-.06-.26-.19-.26z"/>
  <path class="st35" d="M22.35 9.15c-.13-.01-.26.11-.28.25-.02.14.07.25.2.25s.24-.1.27-.24c.03-.14-.06-.26-.19-.26z"/>
  <path class="st4" d="M22.34 9.24c-.08 0-.16.07-.17.15-.01.09.04.16.12.16.08 0 .15-.06.17-.15.01-.08-.04-.15-.12-.16z"/>
  <path class="st35" d="M22.34 9.24c-.08 0-.16.07-.17.15-.01.09.04.16.12.16.08 0 .15-.06.17-.15.01-.08-.04-.15-.12-.16z"/>
  <path class="st13" d="M23.4 12.45c.09.01.14.07.13.13 0 .06-.04.11-.13.13-.02.01-.04.01-.07.01-2.7.23-5.58.23-8.28 0-.02 0-.05-.01-.07-.01-.09-.01-.14-.07-.13-.13 0-.06.04-.11.13-.13.02-.01.04-.01.07-.01 2.7-.23 5.58-.23 8.28 0 .03 0 .05 0 .07.01z"/>
  <path class="st35" d="M23.4 12.45c.09.01.14.07.13.13 0 .06-.04.11-.13.13-.02.01-.04.01-.07.01-2.7.23-5.58.23-8.28 0-.02 0-.05-.01-.07-.01-.09-.01-.14-.07-.13-.13 0-.06.04-.11.13-.13.02-.01.04-.01.07-.01 2.7-.23 5.58-.23 8.28 0 .03 0 .05 0 .07.01z"/>
  <path d="M16.09 12.63c.34-.02.69-.04 1.03-.05l1.03-.03c.34-.01.69-.01 1.04-.01.34 0 .69 0 1.03.01l1.04.03c.34.01.69.03 1.03.05m-1.03.06c.34-.01.69-.03 1.03-.05m-6.2 0c.34.02.69.04 1.03.05" style="fill:none;stroke:#20221d;stroke-width:.0536;stroke-linecap:round;stroke-miterlimit:22.926"/>
  <path class="st29" d="M11.63 12.75v12.23c0 2.19.85 4.18 2.22 5.62 1.37 1.44 3.26 2.33 5.35 2.33 2.08 0 3.98-.89 5.35-2.33a8.14 8.14 0 0 0 2.22-5.62V12.75H11.63z"/>
  <path d="M11.63 12.75v12.23c0 2.19.85 4.18 2.22 5.62 1.37 1.44 3.26 2.33 5.35 2.33 2.08 0 3.98-.89 5.35-2.33a8.14 8.14 0 0 0 2.22-5.62V12.75H11.63z" style="fill:none;stroke:#fff;stroke-width:.1069;stroke-miterlimit:22.926"/>
  <path class="st33" d="M19.26 32.3c.07-.01.18 0 .26-.06.11-.09.07-.44.06-.67-.05-1.14-.1-3.07-.16-5.77a.882.882 0 0 0-.23 0c-.07-.01-.14-.02-.23 0-.06 2.7-.1 4.63-.16 5.77-.01.22-.05.58.06.67.08.07.19.05.26.06h.14z"/>
  <path class="st35" d="M19.26 32.3c.07-.01.18 0 .26-.06.11-.09.07-.44.06-.67-.05-1.14-.1-3.07-.16-5.77a.882.882 0 0 0-.23 0c-.07-.01-.14-.02-.23 0-.06 2.7-.1 4.63-.16 5.77-.01.22-.05.58.06.67.08.07.19.05.26.06h.14z"/>
  <path class="st33" d="M19.98 32.27c-.07 0-.18.02-.27-.04-.12-.08-.13-.44-.14-.66-.05-1.14-.16-3.06-.35-5.75.09-.02.16-.02.23-.02.01 0 .02 0 .03-.01.43 2.67.59 4.56.89 5.7.04.16.13.55-.01.68-.08.07-.19.07-.25.09l-.13.01z"/>
  <path class="st35" d="M19.98 32.27c-.07 0-.18.02-.27-.04-.12-.08-.13-.44-.14-.66-.05-1.14-.16-3.06-.35-5.75.09-.02.16-.02.23-.02.01 0 .02 0 .03-.01.43 2.67.59 4.56.89 5.7.04.16.13.55-.01.68-.08.07-.19.07-.25.09l-.13.01z"/>
  <path class="st33" d="M20.82 32.15c-.07 0-.17.03-.27-.02-.13-.07-.12-.43-.18-.64-.29-1.14-.46-3.03-.89-5.7.09-.03.16-.04.23-.04h.01c.68 2.59.89 4.42 1.42 5.55.05.16.18.57.05.72-.07.08-.18.09-.24.11l-.13.02z"/>
  <path class="st35" d="M20.82 32.15c-.07 0-.17.03-.27-.02-.13-.07-.12-.43-.18-.64-.29-1.14-.46-3.03-.89-5.7.09-.03.16-.04.23-.04h.01c.68 2.59.89 4.42 1.42 5.55.05.16.18.57.05.72-.07.08-.18.09-.24.11l-.13.02z"/>
  <path class="st33" d="M21.67 31.91c-.07.01-.18.07-.28.03-.13-.05-.15-.44-.25-.64-.53-1.13-.74-2.97-1.43-5.59.09-.04.16-.05.22-.06.06-.03.05-.04.14-.06.8 2.58 1.06 4.38 1.82 5.49.12.18.21.54.13.66-.06.09-.17.1-.23.13l-.12.04z"/>
  <path class="st34" d="M21.67 31.91c-.07.01-.18.07-.28.03-.13-.05-.15-.44-.25-.64-.53-1.13-.74-2.97-1.43-5.59.09-.04.16-.05.22-.06.06-.03.05-.04.14-.06.8 2.58 1.06 4.38 1.82 5.49.12.18.21.54.13.66-.06.09-.17.1-.23.13l-.12.04z"/>
  <path class="st33" d="M18.41 32.27c.07 0 .18.02.26-.04.12-.08.13-.44.14-.66.05-1.14.16-3.06.35-5.75-.09-.02-.16-.02-.23-.02-.01 0-.02 0-.03-.01-.43 2.67-.59 4.56-.89 5.7-.04.16-.13.55.01.68.08.07.19.07.25.09l.14.01z"/>
  <path class="st35" d="M18.41 32.27c.07 0 .18.02.26-.04.12-.08.13-.44.14-.66.05-1.14.16-3.06.35-5.75-.09-.02-.16-.02-.23-.02-.01 0-.02 0-.03-.01-.43 2.67-.59 4.56-.89 5.7-.04.16-.13.55.01.68.08.07.19.07.25.09l.14.01z"/>
  <path class="st33" d="M17.56 32.15c.07 0 .17.03.27-.02.13-.07.12-.43.18-.64.29-1.14.46-3.03.89-5.7a.696.696 0 0 0-.23-.04h-.01c-.68 2.59-.89 4.42-1.42 5.55-.05.16-.18.57-.06.72.07.08.18.09.24.11l.14.02z"/>
  <path class="st35" d="M17.56 32.15c.07 0 .17.03.27-.02.13-.07.12-.43.18-.64.29-1.14.46-3.03.89-5.7a.696.696 0 0 0-.23-.04h-.01c-.68 2.59-.89 4.42-1.42 5.55-.05.16-.18.57-.06.72.07.08.18.09.24.11l.14.02z"/>
  <path class="st33" d="M16.72 31.91c.07.01.18.07.28.03.13-.05.15-.44.25-.64.53-1.13.74-2.97 1.43-5.59-.09-.04-.16-.05-.22-.06-.06-.03-.05-.04-.14-.06-.8 2.58-1.06 4.38-1.82 5.49-.12.18-.21.54-.13.66.06.09.17.1.23.13l.12.04z"/>
  <path class="st34" d="M16.72 31.91c.07.01.18.07.28.03.13-.05.15-.44.25-.64.53-1.13.74-2.97 1.43-5.59-.09-.04-.16-.05-.22-.06-.06-.03-.05-.04-.14-.06-.8 2.58-1.06 4.38-1.82 5.49-.12.18-.21.54-.13.66.06.09.17.1.23.13l.12.04z"/>
  <path class="st33" d="M21.22 29.96c-.06 0-.15.04-.25 0-.13-.06-.21-.41-.28-.63-.54-1.06-1.03-2.95-1.83-5.57.08-.03.14-.04.2-.04.05-.02.11-.04.2-.05.87 2.59 1.26 4.47 2.1 5.5.14.17.24.54.18.65-.05.08-.15.09-.2.12l-.12.02z"/>
  <path class="st31" d="M21.22 29.96c-.06 0-.15.04-.25 0-.13-.06-.21-.41-.28-.63-.54-1.06-1.03-2.95-1.83-5.57.08-.03.14-.04.2-.04.05-.02.11-.04.2-.05.87 2.59 1.26 4.47 2.1 5.5.14.17.24.54.18.65-.05.08-.15.09-.2.12l-.12.02z"/>
  <path class="st33" d="M20.53 30.09c-.06 0-.16.03-.25-.02-.12-.07-.16-.42-.2-.64-.22-1.13-.62-3.03-1.19-5.69.08-.03.14-.03.2-.03.06-.02.12-.04.2-.04.67 2.64.83 4.62 1.46 5.64.12.19.18.56.1.66-.06.08-.16.08-.22.1l-.1.02z"/>
  <path class="st12" d="M20.53 30.09c-.06 0-.16.03-.25-.02-.12-.07-.16-.42-.2-.64-.22-1.13-.62-3.03-1.19-5.69.08-.03.14-.03.2-.03.06-.02.12-.04.2-.04.67 2.64.83 4.62 1.46 5.64.12.19.18.56.1.66-.06.08-.16.08-.22.1l-.1.02z"/>
  <path class="st33" d="M19.83 30.17c-.06-.01-.16.02-.24-.04-.11-.08-.11-.43-.13-.66-.09-1.14-.27-3.06-.52-5.75a.51.51 0 0 1 .21-.01c.06-.01.12-.03.21-.02.36 2.68.58 4.63.81 5.73.05.22.12.57.03.67-.07.07-.17.07-.23.08h-.14z"/>
  <path class="st28" d="M19.83 30.17c-.06-.01-.16.02-.24-.04-.11-.08-.11-.43-.13-.66-.09-1.14-.27-3.06-.52-5.75a.51.51 0 0 1 .21-.01c.06-.01.12-.03.21-.02.36 2.68.58 4.63.81 5.73.05.22.12.57.03.67-.07.07-.17.07-.23.08h-.14z"/>
  <path class="st33" d="M17.16 29.96c.06 0 .15.04.25 0 .13-.06.21-.41.28-.63.54-1.06 1.03-2.95 1.83-5.57a.544.544 0 0 0-.2-.04.721.721 0 0 0-.2-.05c-.87 2.59-1.26 4.47-2.11 5.5-.14.17-.24.54-.18.65.05.08.15.09.2.12l.13.02z"/>
  <path class="st31" d="M17.16 29.96c.06 0 .15.04.25 0 .13-.06.21-.41.28-.63.54-1.06 1.03-2.95 1.83-5.57a.544.544 0 0 0-.2-.04.721.721 0 0 0-.2-.05c-.87 2.59-1.26 4.47-2.11 5.5-.14.17-.24.54-.18.65.05.08.15.09.2.12l.13.02z"/>
  <path class="st33" d="M17.85 30.09c.06 0 .16.03.25-.02.12-.07.16-.42.2-.64.22-1.13.62-3.02 1.19-5.69-.08-.03-.14-.03-.2-.03-.06-.02-.11-.04-.2-.04-.67 2.64-.83 4.62-1.46 5.64-.12.18-.18.56-.1.66.06.08.16.08.22.1l.1.02z"/>
  <path class="st12" d="M17.85 30.09c.06 0 .16.03.25-.02.12-.07.16-.42.2-.64.22-1.13.62-3.02 1.19-5.69-.08-.03-.14-.03-.2-.03-.06-.02-.11-.04-.2-.04-.67 2.64-.83 4.62-1.46 5.64-.12.18-.18.56-.1.66.06.08.16.08.22.1l.1.02z"/>
  <path class="st33" d="M18.55 30.17c.06-.01.16.02.24-.04.11-.08.11-.43.13-.66.09-1.14.27-3.06.52-5.75a.51.51 0 0 0-.21-.01c-.06-.01-.12-.03-.21-.02-.36 2.68-.58 4.63-.81 5.73-.05.22-.12.57-.03.67.07.07.17.07.23.08h.14z"/>
  <path class="st28" d="M18.55 30.17c.06-.01.16.02.24-.04.11-.08.11-.43.13-.66.09-1.14.27-3.06.52-5.75a.51.51 0 0 0-.21-.01c-.06-.01-.12-.03-.21-.02-.36 2.68-.58 4.63-.81 5.73-.05.22-.12.57-.03.67.07.07.17.07.23.08h.14z"/>
  <path class="st33" d="M19.25 30.2c.06-.01.16 0 .23-.06.1-.09.06-.44.05-.67-.05-1.14-.09-3.07-.14-5.77a.73.73 0 0 0-.21 0 .49.49 0 0 0-.21 0c-.05 2.7-.09 4.63-.14 5.77-.01.22-.05.58.05.67.08.07.18.05.23.06h.14z"/>
  <path class="st35" d="M19.25 30.2c.06-.01.16 0 .23-.06.1-.09.06-.44.05-.67-.05-1.14-.09-3.07-.14-5.77a.73.73 0 0 0-.21 0 .49.49 0 0 0-.21 0c-.05 2.7-.09 4.63-.14 5.77-.01.22-.05.58.05.67.08.07.18.05.23.06h.14z"/>
  <path class="st33" d="M20.75 28.39c-.05 0-.12.04-.19 0-.1-.06-.16-.41-.21-.63-.41-1.06-.79-2.95-1.4-5.57.06-.03.11-.04.15-.04.04-.02.08-.04.15-.05.66 2.59.96 4.47 1.61 5.5.11.17.19.54.14.65-.04.08-.12.09-.16.12l-.09.02z"/>
  <path class="st6" d="M20.75 28.39c-.05 0-.12.04-.19 0-.1-.06-.16-.41-.21-.63-.41-1.06-.79-2.95-1.4-5.57.06-.03.11-.04.15-.04.04-.02.08-.04.15-.05.66 2.59.96 4.47 1.61 5.5.11.17.19.54.14.65-.04.08-.12.09-.16.12l-.09.02z"/>
  <path class="st33" d="M20.22 28.52c-.05 0-.12.03-.19-.02-.09-.07-.12-.42-.16-.64-.17-1.13-.47-3.02-.91-5.69.06-.03.11-.03.16-.03a.34.34 0 0 1 .16-.04c.51 2.64.63 4.62 1.12 5.64.09.18.14.56.08.66-.05.08-.12.08-.17.1l-.09.02z"/>
  <path class="st28" d="M20.22 28.52c-.05 0-.12.03-.19-.02-.09-.07-.12-.42-.16-.64-.17-1.13-.47-3.02-.91-5.69.06-.03.11-.03.16-.03a.34.34 0 0 1 .16-.04c.51 2.64.63 4.62 1.12 5.64.09.18.14.56.08.66-.05.08-.12.08-.17.1l-.09.02z"/>
  <path class="st33" d="M19.69 28.6c-.05-.01-.12.02-.18-.04-.08-.08-.09-.43-.1-.66-.07-1.14-.2-3.06-.4-5.75.06-.02.11-.02.16-.01.04-.01.09-.03.16-.02.28 2.69.44 4.63.62 5.73.04.22.09.57.02.67-.05.07-.13.07-.17.08h-.11z"/>
  <path class="st35" d="M19.69 28.6c-.05-.01-.12.02-.18-.04-.08-.08-.09-.43-.1-.66-.07-1.14-.2-3.06-.4-5.75.06-.02.11-.02.16-.01.04-.01.09-.03.16-.02.28 2.69.44 4.63.62 5.73.04.22.09.57.02.67-.05.07-.13.07-.17.08h-.11z"/>
  <path class="st33" d="M17.64 28.39c.05 0 .12.04.19 0 .1-.06.16-.41.21-.63.41-1.06.79-2.95 1.41-5.56-.06-.03-.11-.04-.15-.05a.437.437 0 0 0-.15-.05c-.67 2.59-.96 4.47-1.61 5.5-.11.17-.19.54-.14.65.04.08.12.09.16.12l.08.02z"/>
  <path class="st6" d="M17.64 28.39c.05 0 .12.04.19 0 .1-.06.16-.41.21-.63.41-1.06.79-2.95 1.41-5.56-.06-.03-.11-.04-.15-.05a.437.437 0 0 0-.15-.05c-.67 2.59-.96 4.47-1.61 5.5-.11.17-.19.54-.14.65.04.08.12.09.16.12l.08.02z"/>
  <path class="st33" d="M18.16 28.52c.05 0 .12.03.19-.02.09-.07.12-.42.16-.64.17-1.13.47-3.03.91-5.69-.06-.03-.11-.03-.16-.03a.34.34 0 0 0-.16-.04c-.51 2.64-.63 4.62-1.12 5.64-.09.19-.14.56-.08.66.05.08.12.08.17.1l.09.02z"/>
  <path class="st28" d="M18.16 28.52c.05 0 .12.03.19-.02.09-.07.12-.42.16-.64.17-1.13.47-3.03.91-5.69-.06-.03-.11-.03-.16-.03a.34.34 0 0 0-.16-.04c-.51 2.64-.63 4.62-1.12 5.64-.09.19-.14.56-.08.66.05.08.12.08.17.1l.09.02z"/>
  <path class="st33" d="M18.7 28.6c.05-.01.12.02.18-.04.08-.08.09-.43.1-.66.07-1.14.2-3.06.4-5.75a.297.297 0 0 0-.16-.01c-.04-.01-.09-.03-.16-.02-.28 2.69-.44 4.63-.62 5.73-.04.22-.09.57-.02.67.05.07.13.07.17.08h.11z"/>
  <path class="st35" d="M18.7 28.6c.05-.01.12.02.18-.04.08-.08.09-.43.1-.66.07-1.14.2-3.06.4-5.75a.297.297 0 0 0-.16-.01c-.04-.01-.09-.03-.16-.02-.28 2.69-.44 4.63-.62 5.73-.04.22-.09.57-.02.67.05.07.13.07.17.08h.11z"/>
  <path class="st33" d="M19.24 28.63c.04-.01.12 0 .18-.06.08-.09.05-.44.04-.67-.04-1.14-.07-3.07-.11-5.77a.427.427 0 0 0-.16 0c-.05-.01-.09-.02-.16 0-.04 2.7-.07 4.63-.11 5.77-.01.22-.04.58.04.67.06.07.13.05.18.06h.1z"/>
  <path class="st35" d="M19.24 28.63c.04-.01.12 0 .18-.06.08-.09.05-.44.04-.67-.04-1.14-.07-3.07-.11-5.77a.427.427 0 0 0-.16 0c-.05-.01-.09-.02-.16 0-.04 2.7-.07 4.63-.11 5.77-.01.22-.04.58.04.67.06.07.13.05.18.06h.1z"/>
  <path class="st13" d="M16.03 25.53c-.14.01-.32.09-.84.54-.23.46-.45.93-.77 1.33-.11.07-.19.12-.28.15-.09.03-.74.01-.76-.02-.2-.18-.51-.05-.41.14-.08.08.1.36.24.24.13-.11.59-.01.74-.06-.06.14-.47.23-.76.25-.26.01-.25.27-.14.48.12.08.02-.02.07.04.12.17.37.15.38-.02.01-.18.62-.41.71-.54-.11.27-.37.52-.5.78-.14.14-.22.17-.04.45.2-.02.21-.08.33.04.27-.03.32-.11.27-.33-.05-.23.14-.64.21-.75.06-.11.07-.22.13-.29.1-.12.57-.35.69-.29.22.12.39.05.42-.17-.07-.06-.02-.36-.17-.37-.13-.01-.2.03-.31.12-.18.15-.27.23-.33.21-.14-.04.26-.23.62-.71.49-.67.52-1 .5-1.22z"/>
  <path class="st17" d="M16.03 25.53c-.14.01-.32.09-.84.54-.23.46-.45.93-.77 1.33-.11.07-.19.12-.28.15-.09.03-.74.01-.76-.02-.2-.18-.51-.05-.41.14-.08.08.1.36.24.24.13-.11.59-.01.74-.06-.06.14-.47.23-.76.25-.26.01-.25.27-.14.48.12.08.02-.02.07.04.12.17.37.15.38-.02.01-.18.62-.41.71-.54-.11.27-.37.52-.5.78-.14.14-.22.17-.04.45.2-.02.21-.08.33.04.27-.03.32-.11.27-.33-.05-.23.14-.64.21-.75.06-.11.07-.22.13-.29.1-.12.57-.35.69-.29.22.12.39.05.42-.17-.07-.06-.02-.36-.17-.37-.13-.01-.2.03-.31.12-.18.15-.27.23-.33.21-.14-.04.26-.23.62-.71.49-.67.52-1 .5-1.22z"/>
  <path class="st13" d="M13.01 27.78c-.18-.11-.29-.1-.36-.02-.04.04-.09.02-.06-.05.12-.28.31-.32.49-.19.05.04.09.08.13.12-.04.05-.18.11-.2.14z"/>
  <path class="st28" d="M13.01 27.78c-.18-.11-.29-.1-.36-.02-.04.04-.09.02-.06-.05.12-.28.31-.32.49-.19.05.04.09.08.13.12-.04.05-.18.11-.2.14z"/>
  <path class="st13" d="M15.6 27.53c.19-.13.37-.16.47-.08.05.04.11.01.06-.06-.2-.28-.43-.29-.61-.14-.05.05-.09.1-.12.14.06.07.19.14.2.14z"/>
  <path class="st6" d="M15.6 27.53c.19-.13.37-.16.47-.08.05.04.11.01.06-.06-.2-.28-.43-.29-.61-.14-.05.05-.09.1-.12.14.06.07.19.14.2.14z"/>
  <path class="st13" d="M14.09 29.13c-.12.23-.18.39-.13.52.03.07 0 .14-.08.08-.3-.26-.3-.55-.11-.75.06-.07.13-.11.19-.16.08.07.13.3.13.31z"/>
  <path class="st28" d="M14.09 29.13c-.12.23-.18.39-.13.52.03.07 0 .14-.08.08-.3-.26-.3-.55-.11-.75.06-.07.13-.11.19-.16.08.07.13.3.13.31z"/>
  <path class="st13" d="M13.34 28.52c-.18.07-.24.17-.23.29 0 .07-.04.09-.07.01-.22-.51.01-.6.34-.58.01.09-.03.28-.04.28z"/>
  <path class="st19" d="M13.34 28.52c-.18.07-.24.17-.23.29 0 .07-.04.09-.07.01-.22-.51.01-.6.34-.58.01.09-.03.28-.04.28z"/>
  <path class="st10" d="M14.88 27.39c-.12-.07-.12-.14-.09-.2.07-.11.13-.06.25.04m-.01 0c-.12-.07-.12-.14-.09-.2.07-.11.13-.06.25.04"/>
  <path class="st9" d="M15.2 27.07c-.13-.09-.14-.19-.1-.25.07-.14.14-.07.28.06"/>
  <path class="st2" d="M15.38 26.87c-.14-.1-.15-.21-.11-.29.08-.16.15-.08.3.06"/>
  <path class="st42" d="M15.58 26.66c-.13-.11-.17-.21-.11-.31.09-.14.15-.09.3.07"/>
  <path class="st13" d="M17.32 15.26c-.09.08-.4.08-.81.11-.67.02-1.06-.18-1.14-.61.25.3.55.45.89.36.46-.11.72-.19.83-.18.06.04.16.16.23.32z"/>
  <path class="st43" d="M17.32 15.26c-.09.08-.4.08-.81.11-.67.02-1.06-.18-1.14-.61.25.3.55.45.89.36.46-.11.72-.19.83-.18.06.04.16.16.23.32z"/>
  <path class="st33" d="M18.86 24.38c0 .19-.01.41-.01.63l-.48.1c0 .22.54 2.5.82 2.5.28 0 .82-2.28.82-2.5l-.48-.1c0-.22 0-.44-.01-.63-.1.08-.21.23-.33.36-.11-.13-.23-.27-.33-.36z"/>
  <path class="st35" d="M18.86 24.38c0 .19-.01.41-.01.63l-.48.1c0 .22.54 2.5.82 2.5.28 0 .82-2.28.82-2.5l-.48-.1c0-.22 0-.44-.01-.63-.1.08-.21.23-.33.36-.11-.13-.23-.27-.33-.36z"/>
  <path class="st33" d="m18.31 25.35-.43-.24c-.18.13-.31.61-.01 1 .38.49.54.84.63 1.24.28-.36.38-.73.2-1.1-.23-.5-.39-.78-.39-.9z"/>
  <path class="st22" d="m18.31 25.35-.43-.24c-.18.13-.31.61-.01 1 .38.49.54.84.63 1.24.28-.36.38-.73.2-1.1-.23-.5-.39-.78-.39-.9z"/>
  <path class="st33" d="m18.66 25.01-.43-.24c-.18.13-.56.59-.25.99.38.49.78.86.88 1.25.28-.36.4-.73.22-1.1-.24-.5-.42-.78-.42-.9z"/>
  <path class="st22" d="m18.66 25.01-.43-.24c-.18.13-.56.59-.25.99.38.49.78.86.88 1.25.28-.36.4-.73.22-1.1-.24-.5-.42-.78-.42-.9z"/>
  <path class="st33" d="m20.07 25.35.43-.24c.18.13.31.61.01 1-.38.49-.54.84-.63 1.24-.28-.36-.38-.73-.2-1.1.24-.5.39-.78.39-.9z"/>
  <path class="st22" d="m20.07 25.35.43-.24c.18.13.31.61.01 1-.38.49-.54.84-.63 1.24-.28-.36-.38-.73-.2-1.1.24-.5.39-.78.39-.9z"/>
  <path class="st33" d="m19.72 25.01.43-.24c.18.13.56.59.25.99-.38.49-.78.86-.88 1.25-.28-.36-.4-.73-.22-1.1.24-.5.42-.78.42-.9z"/>
  <path class="st22" d="m19.72 25.01.43-.24c.18.13.56.59.25.99-.38.49-.78.86-.88 1.25-.28-.36-.4-.73-.22-1.1.24-.5.42-.78.42-.9z"/>
  <path class="st33" d="m17.71 24.83-.43-.24c-.18.13-.31.61 0 1 .38.49.54.84.63 1.24.28-.36.38-.73.2-1.1-.24-.49-.39-.77-.4-.9z"/>
  <path class="st22" d="m17.71 24.83-.43-.24c-.18.13-.31.61 0 1 .38.49.54.84.63 1.24.28-.36.38-.73.2-1.1-.24-.49-.39-.77-.4-.9z"/>
  <path class="st33" d="m20.67 24.83.43-.24c.18.13.31.61.01 1-.38.49-.54.84-.63 1.24-.28-.36-.38-.73-.2-1.1.23-.49.39-.77.39-.9z"/>
  <path class="st22" d="m20.67 24.83.43-.24c.18.13.31.61.01 1-.38.49-.54.84-.63 1.24-.28-.36-.38-.73-.2-1.1.23-.49.39-.77.39-.9z"/>
  <path class="st33" d="M15.73 20.32c.01.39-.06 3-.08 3.37-.02.37-.19.62-.36.76-.16-.22-.25-.51-.28-.86-.01-.18.02-2.65.03-3.16.3-.77.52-.8.69-.11z"/>
  <path class="st35" d="M15.73 20.32c.01.39-.06 3-.08 3.37-.02.37-.19.62-.36.76-.16-.22-.25-.51-.28-.86-.01-.18.02-2.65.03-3.16.3-.77.52-.8.69-.11z"/>
  <path class="st33" d="m14.03 19.68-.11 3.59c-.04.32.38 2.21.61 2.59.56-.24.68-1.52.57-2.78-.11-1.25.02-2.33.1-2.56.01-.28-.04-.58-.04-.87-.35.02-.77.01-1.13.03z"/>
  <path class="st35" d="m14.03 19.68-.11 3.59c-.04.32.38 2.21.61 2.59.56-.24.68-1.52.57-2.78-.11-1.25.02-2.33.1-2.56.01-.28-.04-.58-.04-.87-.35.02-.77.01-1.13.03z"/>
  <path class="st33" d="m13.37 20.27.08 3.59c-.02.32.5 2.19.74 2.55.57-.44.46-2.25.37-2.79-.17-1.09-.15-2.35-.08-2.55-.01-.28-.01-.62-.03-.92-.37.04-.73.08-1.08.12z"/>
  <path class="st35" d="m13.37 20.27.08 3.59c-.02.32.5 2.19.74 2.55.57-.44.46-2.25.37-2.79-.17-1.09-.15-2.35-.08-2.55-.01-.28-.01-.62-.03-.92-.37.04-.73.08-1.08.12z"/>
  <path class="st33" d="m12.87 21.12.94-.02c-.08.39-.02 1.61.15 2.53.15.87.37 3.12-.54 3.66-.56-1.19-.13-2.34-.42-3.38-.21-1.09-.26-2.01-.13-2.79z"/>
  <path class="st35" d="m12.87 21.12.94-.02c-.08.39-.02 1.61.15 2.53.15.87.37 3.12-.54 3.66-.56-1.19-.13-2.34-.42-3.38-.21-1.09-.26-2.01-.13-2.79z"/>
  <path class="st33" d="M16.48 19.66c0 .39-.15 3-.19 3.37-.03.37-.2.61-.38.75-.15-.22-.24-.52-.25-.87-.01-.18.1-2.65.13-3.15.32-.77.54-.8.69-.1z"/>
  <path class="st35" d="M16.48 19.66c0 .39-.15 3-.19 3.37-.03.37-.2.61-.38.75-.15-.22-.24-.52-.25-.87-.01-.18.1-2.65.13-3.15.32-.77.54-.8.69-.1z"/>
  <path class="st33" d="M14.81 17.54c-.02.84-.04 2.66-.03 2.82.01.35.15.8.3 1.02.18-.14.35-.38.38-.75.03-.3.04-1.78.04-2.52-.19-.12-.39-.27-.55-.44l-.14-.13z"/>
  <path class="st35" d="M14.81 17.54c-.02.84-.04 2.66-.03 2.82.01.35.15.8.3 1.02.18-.14.35-.38.38-.75.03-.3.04-1.78.04-2.52-.19-.12-.39-.27-.55-.44l-.14-.13z"/>
  <path class="st33" d="M15.48 18.08a62.8 62.8 0 0 0 0 2.45c.01.35.1.65.25.87.18-.14.37-.39.4-.76.02-.23.08-1.19.09-1.93-.24-.08-.55-.47-.74-.63z"/>
  <path class="st35" d="M15.48 18.08a62.8 62.8 0 0 0 0 2.45c.01.35.1.65.25.87.18-.14.37-.39.4-.76.02-.23.08-1.19.09-1.93-.24-.08-.55-.47-.74-.63z"/>
  <path class="st33" d="m14.9 17.46-.64-.93c-.13.46-.29 3.73-.1 4 .01.35.14.65.29.87.18-.14.44-.39.37-.76-.08-.36 0-2.8.08-3.18z"/>
  <path class="st35" d="m14.9 17.46-.64-.93c-.13.46-.29 3.73-.1 4 .01.35.14.65.29.87.18-.14.44-.39.37-.76-.08-.36 0-2.8.08-3.18z"/>
  <path class="st33" d="M13.58 19.52c-.03.51-.05.85-.04 1.03.01.35.1.65.25.87.18-.14.4-.38.38-.75-.09-1.42.07-2.75.25-4.04-.15-.11-.41-.23-.56-.34-.31 1.73-.41 2.8-.28 3.23z"/>
  <path class="st35" d="M13.58 19.52c-.03.51-.05.85-.04 1.03.01.35.1.65.25.87.18-.14.4-.38.38-.75-.09-1.42.07-2.75.25-4.04-.15-.11-.41-.23-.56-.34-.31 1.73-.41 2.8-.28 3.23z"/>
  <path class="st33" d="m12.94 20.45.17.66c.01.35.23.64.38.86.18-.14.34-.37.29-.73-.26-2.09-.17-3.48.27-5.19-.98.68-1.45 2.11-1.11 4.4z"/>
  <path class="st22" d="m12.94 20.45.17.66c.01.35.23.64.38.86.18-.14.34-.37.29-.73-.26-2.09-.17-3.48.27-5.19-.98.68-1.45 2.11-1.11 4.4z"/>
  <path class="st33" d="m12.99 21.1-.91-.3c-.12.91.06 2.06.31 3.57.21 1.3.1 2.32-.06 2.98.97-.13 1.39-1.39.9-3.75-.14-.62-.27-1.41-.24-2.5z"/>
  <path class="st35" d="m12.99 21.1-.91-.3c-.12.91.06 2.06.31 3.57.21 1.3.1 2.32-.06 2.98.97-.13 1.39-1.39.9-3.75-.14-.62-.27-1.41-.24-2.5z"/>
  <path class="st40" d="M12.96 25.51c.02-.6-.08-1.26-.19-1.82-.16-.76-.24-1.49-.24-2.26"/>
  <path class="st33" d="m12.95 15.73.6.1c-.03.13-.18.92-.21 1.05-.22 1.09-.37 2.38-.2 3.8.06.52.17.95.34 1.29-.66-.08-1.08-.72-1.02-1.83-.11-1.31-.06-2.34.15-3.12.05-.24.25-1.1.34-1.29z"/>
  <path class="st22" d="m12.95 15.73.6.1c-.03.13-.18.92-.21 1.05-.22 1.09-.37 2.38-.2 3.8.06.52.17.95.34 1.29-.66-.08-1.08-.72-1.02-1.83-.11-1.31-.06-2.34.15-3.12.05-.24.25-1.1.34-1.29z"/>
  <path class="st33" d="m12.59 15.88.29.33c-.08.06.06.32-.02.82-.05.28-.22.62-.25.98-.12 1.2-.12 2.7.24 3.66-.66-.07-.88-.67-.9-1.79-.02-.93-.02-2.02.21-3.28.05-.29.19-.53.43-.72z"/>
  <path class="st35" d="m12.59 15.88.29.33c-.08.06.06.32-.02.82-.05.28-.22.62-.25.98-.12 1.2-.12 2.7.24 3.66-.66-.07-.88-.67-.9-1.79-.02-.93-.02-2.02.21-3.28.05-.29.19-.53.43-.72z"/>
  <path class="st33" d="m14.23 16.76-.61-.07c-.11.57-.2.98-.22 1.18-.04.4.08.77.22 1.04.22-.13.33-.43.42-.84.1-.42.13-.87.19-1.31z"/>
  <path class="st36" d="m14.23 16.76-.61-.07c-.11.57-.2.98-.22 1.18-.04.4.08.77.22 1.04.22-.13.33-.43.42-.84.1-.42.13-.87.19-1.31z"/>
  <path class="st33" d="m15.81 18.05-.54.01c-.02.49-.03.83-.02 1 .02.34.1.63.25.85.16-.14.32-.38.34-.73.02-.37-.03-.75-.03-1.13z"/>
  <path class="st35" d="m15.81 18.05-.54.01c-.02.49-.03.83-.02 1 .02.34.1.63.25.85.16-.14.32-.38.34-.73.02-.37-.03-.75-.03-1.13z"/>
  <path class="st33" d="m16.39 18.3-.54.02c0 .49 0 .83.01 1 .03.34.12.63.28.84.16-.14.31-.39.32-.75.01-.35-.06-.73-.07-1.11z"/>
  <path class="st23" d="m16.39 18.3-.54.02c0 .49 0 .83.01 1 .03.34.12.63.28.84.16-.14.31-.39.32-.75.01-.35-.06-.73-.07-1.11z"/>
  <path class="st33" d="m15.26 17.77-.54-.04c-.06.49-.1.82-.1 1-.01.34.05.64.18.86.17-.12.35-.35.4-.7.05-.35.03-.74.06-1.12z"/>
  <path class="st35" d="m15.26 17.77-.54-.04c-.06.49-.1.82-.1 1-.01.34.05.64.18.86.17-.12.35-.35.4-.7.05-.35.03-.74.06-1.12z"/>
  <path class="st33" d="m14.75 17.19-.59-.24c-.1.4-.24 1.71.01 2.26.2-.13.39-.38.46-.78s.09-.82.12-1.24z"/>
  <path class="st35" d="m14.75 17.19-.59-.24c-.1.4-.24 1.71.01 2.26.2-.13.39-.38.46-.78s.09-.82.12-1.24z"/>
  <path class="st33" d="m13.98 16.54-.94.08a6.76 6.76 0 0 0-.43 1.45c.44-.08.75-.29.87-.68.15-.52.42-.76.5-.85z"/>
  <path class="st14" d="m13.98 16.54-.94.08a6.76 6.76 0 0 0-.43 1.45c.44-.08.75-.29.87-.68.15-.52.42-.76.5-.85h0z"/>
  <path class="st13" d="M14.93 30.79c.36.29.69-.37.37-1.24-.24-.64-1.39-.39-.75.47.03.04.07.02.07-.03-.04-.18.08-.28.25-.25.48.09.49 1-.03.79-.09 0-.01.18.09.26z"/>
  <path class="st23" d="M14.93 30.79c.36.29.69-.37.37-1.24-.24-.64-1.39-.39-.75.47.03.04.07.02.07-.03-.04-.18.08-.28.25-.25.48.09.49 1-.03.79-.09 0-.01.18.09.26z"/>
  <path class="st13" d="M16.11 30.79c-.36.29-.69-.37-.37-1.24.24-.64 1.39-.39.75.47-.03.04-.07.02-.07-.03.04-.18-.08-.28-.25-.25-.48.09-.49 1 .03.79.09 0 0 .18-.09.26z"/>
  <path class="st23" d="M16.11 30.79c-.36.29-.69-.37-.37-1.24.24-.64 1.39-.39.75.47-.03.04-.07.02-.07-.03.04-.18-.08-.28-.25-.25-.48.09-.49 1 .03.79.09 0 0 .18-.09.26z"/>
  <path class="st13" d="M15.49 27.99c-.05.16-.22.34-.36.49-.21.22-.16.55-.02.73.16.19.23.41.26.58.02.1.07.34.04.7-.02.18-.12.27-.22.35-.05.04.02.14.19.26.02.01.07.05.09.14.01.02.09.02.1 0 .02-.09.08-.12.09-.14.17-.13.24-.22.19-.26-.1-.08-.21-.17-.22-.35-.03-.36.01-.59.04-.7.03-.17.1-.38.26-.58.15-.18.2-.51-.02-.73-.14-.14-.31-.33-.36-.48v-.01c0-.03-.02-.04-.03-.04-.02 0-.03.01-.03.04z"/>
  <path class="st23" d="M15.49 27.99c-.05.16-.22.34-.36.49-.21.22-.16.55-.02.73.16.19.23.41.26.58.02.1.07.34.04.7-.02.18-.12.27-.22.35-.05.04.02.14.19.26.02.01.07.05.09.14.01.02.09.02.1 0 .02-.09.08-.12.09-.14.17-.13.24-.22.19-.26-.1-.08-.21-.17-.22-.35-.03-.36.01-.59.04-.7.03-.17.1-.38.26-.58.15-.18.2-.51-.02-.73-.14-.14-.31-.33-.36-.48v-.01c0-.03-.02-.04-.03-.04-.02 0-.03.01-.03.04z"/>
  <path class="st13" d="M15.26 30.08h.52c.09 0 .16.07.16.16s-.07.16-.16.16h-.52c-.09 0-.16-.07-.16-.16s.07-.16.16-.16z"/>
  <path class="st35" d="M15.26 30.08h.52c.09 0 .16.07.16.16s-.07.16-.16.16h-.52c-.09 0-.16-.07-.16-.16s.07-.16.16-.16z"/>
  <path class="st13" d="M22.27 30.79c.36.29.69-.37.37-1.24-.24-.64-1.39-.39-.75.47.03.04.07.02.07-.03-.04-.18.08-.28.25-.25.48.09.49 1-.03.79-.09 0 0 .18.09.26z"/>
  <path class="st23" d="M22.27 30.79c.36.29.69-.37.37-1.24-.24-.64-1.39-.39-.75.47.03.04.07.02.07-.03-.04-.18.08-.28.25-.25.48.09.49 1-.03.79-.09 0 0 .18.09.26z"/>
  <path class="st13" d="M23.46 30.79c-.36.29-.69-.37-.37-1.24.24-.64 1.39-.39.75.47-.03.04-.07.02-.07-.03.04-.18-.08-.28-.25-.25-.48.09-.49 1 .03.79.08 0 0 .18-.09.26z"/>
  <path class="st23" d="M23.46 30.79c-.36.29-.69-.37-.37-1.24.24-.64 1.39-.39.75.47-.03.04-.07.02-.07-.03.04-.18-.08-.28-.25-.25-.48.09-.49 1 .03.79.08 0 0 .18-.09.26z"/>
  <path class="st13" d="M22.83 27.99c-.05.16-.22.34-.36.49-.21.22-.16.55-.02.73.16.19.23.41.26.58.02.1.07.34.04.7-.02.18-.12.27-.22.35-.05.04.02.14.19.26.02.01.07.05.09.14.01.02.09.02.1 0 .02-.09.08-.12.09-.14.17-.13.24-.22.19-.26-.1-.08-.21-.17-.22-.35-.03-.36.01-.59.04-.7.03-.17.1-.38.26-.58.15-.18.19-.51-.02-.73-.14-.14-.31-.33-.36-.48v-.01c0-.03-.02-.04-.04-.04 0 0-.02.01-.02.04z"/>
  <path class="st23" d="M22.83 27.99c-.05.16-.22.34-.36.49-.21.22-.16.55-.02.73.16.19.23.41.26.58.02.1.07.34.04.7-.02.18-.12.27-.22.35-.05.04.02.14.19.26.02.01.07.05.09.14.01.02.09.02.1 0 .02-.09.08-.12.09-.14.17-.13.24-.22.19-.26-.1-.08-.21-.17-.22-.35-.03-.36.01-.59.04-.7.03-.17.1-.38.26-.58.15-.18.19-.51-.02-.73-.14-.14-.31-.33-.36-.48v-.01c0-.03-.02-.04-.04-.04 0 0-.02.01-.02.04z"/>
  <path class="st13" d="M22.61 30.08h.52c.09 0 .16.07.16.16s-.07.16-.16.16h-.52c-.09 0-.16-.07-.16-.16s.07-.16.16-.16z"/>
  <path class="st35" d="M22.61 30.08h.52c.09 0 .16.07.16.16s-.07.16-.16.16h-.52c-.09 0-.16-.07-.16-.16s.07-.16.16-.16z"/>
  <path class="st33" d="M22.65 20.32c-.01.39.06 3 .08 3.37.02.37.19.62.36.76.16-.22.25-.51.28-.86.01-.18-.02-2.65-.03-3.16-.3-.77-.51-.8-.69-.11z"/>
  <path class="st35" d="M22.65 20.32c-.01.39.06 3 .08 3.37.02.37.19.62.36.76.16-.22.25-.51.28-.86.01-.18-.02-2.65-.03-3.16-.3-.77-.51-.8-.69-.11z"/>
  <path class="st33" d="m24.35 19.68.11 3.59c.04.32-.38 2.21-.61 2.59-.56-.24-.68-1.52-.57-2.78.11-1.25-.02-2.33-.1-2.56-.01-.28.04-.58.04-.87.36.02.78.01 1.13.03z"/>
  <path class="st35" d="m24.35 19.68.11 3.59c.04.32-.38 2.21-.61 2.59-.56-.24-.68-1.52-.57-2.78.11-1.25-.02-2.33-.1-2.56-.01-.28.04-.58.04-.87.36.02.78.01 1.13.03z"/>
  <path class="st33" d="m25.02 20.27-.08 3.59c.02.32-.49 2.19-.74 2.55-.57-.44-.46-2.25-.37-2.79.17-1.09.14-2.35.08-2.55.01-.28.01-.62.03-.92.37.04.72.08 1.08.12z"/>
  <path class="st35" d="m25.02 20.27-.08 3.59c.02.32-.49 2.19-.74 2.55-.57-.44-.46-2.25-.37-2.79.17-1.09.14-2.35.08-2.55.01-.28.01-.62.03-.92.37.04.72.08 1.08.12z"/>
  <path class="st33" d="m25.51 21.12-.94-.02c.08.39.02 1.61-.15 2.53-.15.87-.37 3.12.54 3.66.56-1.19.13-2.34.42-3.38.22-1.09.26-2.01.13-2.79z"/>
  <path class="st35" d="m25.51 21.12-.94-.02c.08.39.02 1.61-.15 2.53-.15.87-.37 3.12.54 3.66.56-1.19.13-2.34.42-3.38.22-1.09.26-2.01.13-2.79z"/>
  <path class="st33" d="M21.9 19.66c0 .39.15 3 .19 3.37.03.37.2.61.38.75.15-.22.24-.52.25-.87.01-.18-.1-2.65-.13-3.15-.32-.77-.54-.8-.69-.1z"/>
  <path class="st35" d="M21.9 19.66c0 .39.15 3 .19 3.37.03.37.2.61.38.75.15-.22.24-.52.25-.87.01-.18-.1-2.65-.13-3.15-.32-.77-.54-.8-.69-.1z"/>
  <path class="st33" d="M23.58 17.54c.02.84.04 2.66.03 2.82-.01.35-.15.8-.3 1.02-.18-.14-.35-.38-.38-.75-.03-.3-.04-1.78-.04-2.52.19-.12.39-.27.55-.44-.01 0 .13-.13.14-.13z"/>
  <path class="st35" d="M23.58 17.54c.02.84.04 2.66.03 2.82-.01.35-.15.8-.3 1.02-.18-.14-.35-.38-.38-.75-.03-.3-.04-1.78-.04-2.52.19-.12.39-.27.55-.44-.01 0 .13-.13.14-.13z"/>
  <path class="st33" d="M22.9 18.08c.02.91.01 2.33 0 2.45-.01.35-.1.65-.25.87-.18-.14-.37-.39-.4-.76-.02-.23-.08-1.19-.09-1.93.25-.08.55-.47.74-.63z"/>
  <path class="st35" d="M22.9 18.08c.02.91.01 2.33 0 2.45-.01.35-.1.65-.25.87-.18-.14-.37-.39-.4-.76-.02-.23-.08-1.19-.09-1.93.25-.08.55-.47.74-.63z"/>
  <path class="st33" d="m23.49 17.46.64-.93c.13.46.29 3.73.1 4-.01.35-.14.65-.29.87-.18-.14-.44-.39-.37-.76.08-.36-.01-2.8-.08-3.18z"/>
  <path class="st35" d="m23.49 17.46.64-.93c.13.46.29 3.73.1 4-.01.35-.14.65-.29.87-.18-.14-.44-.39-.37-.76.08-.36-.01-2.8-.08-3.18z"/>
  <path class="st33" d="M24.8 19.52c.03.51.05.85.04 1.03-.01.35-.1.65-.25.87-.18-.14-.4-.38-.38-.75.09-1.42-.07-2.75-.25-4.04.15-.11.41-.23.56-.34.32 1.73.42 2.8.28 3.23z"/>
  <path class="st35" d="M24.8 19.52c.03.51.05.85.04 1.03-.01.35-.1.65-.25.87-.18-.14-.4-.38-.38-.75.09-1.42-.07-2.75-.25-4.04.15-.11.41-.23.56-.34.32 1.73.42 2.8.28 3.23z"/>
  <path class="st33" d="m25.45 20.45-.17.66c-.01.35-.23.64-.38.86a.745.745 0 0 1-.29-.73c.26-2.09.17-3.48-.27-5.19.98.68 1.44 2.11 1.11 4.4z"/>
  <path class="st22" d="m25.45 20.45-.17.66c-.01.35-.23.64-.38.86a.745.745 0 0 1-.29-.73c.26-2.09.17-3.48-.27-5.19.98.68 1.44 2.11 1.11 4.4z"/>
  <path class="st33" d="m25.4 21.1.91-.3c.12.91-.06 2.06-.31 3.57-.21 1.3-.1 2.32.06 2.98-.97-.13-1.39-1.39-.9-3.75.13-.62.26-1.41.24-2.5z"/>
  <path class="st35" d="m25.4 21.1.91-.3c.12.91-.06 2.06-.31 3.57-.21 1.3-.1 2.32.06 2.98-.97-.13-1.39-1.39-.9-3.75.13-.62.26-1.41.24-2.5z"/>
  <path class="st40" d="M25.42 25.51c-.02-.6.08-1.26.19-1.82.16-.76.24-1.49.24-2.26"/>
  <path class="st33" d="m25.43 15.73-.6.1c.03.13.18.92.21 1.05.22 1.09.37 2.38.2 3.8-.06.52-.17.95-.34 1.29.66-.08 1.08-.72 1.02-1.83.11-1.31.06-2.34-.15-3.12-.05-.24-.25-1.1-.34-1.29z"/>
  <path class="st22" d="m25.43 15.73-.6.1c.03.13.18.92.21 1.05.22 1.09.37 2.38.2 3.8-.06.52-.17.95-.34 1.29.66-.08 1.08-.72 1.02-1.83.11-1.31.06-2.34-.15-3.12-.05-.24-.25-1.1-.34-1.29z"/>
  <path class="st33" d="m25.8 15.88-.29.33c.08.06-.06.32.02.82.05.28.22.62.25.98.12 1.2.12 2.7-.24 3.66.66-.07.88-.67.9-1.79.02-.93.02-2.02-.21-3.28-.06-.29-.2-.53-.43-.72z"/>
  <path class="st35" d="m25.8 15.88-.29.33c.08.06-.06.32.02.82.05.28.22.62.25.98.12 1.2.12 2.7-.24 3.66.66-.07.88-.67.9-1.79.02-.93.02-2.02-.21-3.28-.06-.29-.2-.53-.43-.72z"/>
  <path class="st33" d="m24.15 16.76.61-.07c.11.57.2.98.22 1.18.04.4-.08.77-.22 1.04-.22-.13-.33-.43-.42-.84-.1-.42-.12-.87-.19-1.31z"/>
  <path class="st36" d="m24.15 16.76.61-.07c.11.57.2.98.22 1.18.04.4-.08.77-.22 1.04-.22-.13-.33-.43-.42-.84-.1-.42-.12-.87-.19-1.31z"/>
  <path class="st33" d="m22.58 18.05.54.01c.02.49.03.83.02 1-.02.34-.1.63-.25.85a1.03 1.03 0 0 1-.34-.73c-.03-.37.03-.75.03-1.13z"/>
  <path class="st35" d="m22.58 18.05.54.01c.02.49.03.83.02 1-.02.34-.1.63-.25.85a1.03 1.03 0 0 1-.34-.73c-.03-.37.03-.75.03-1.13z"/>
  <path class="st33" d="m22 18.3.54.02c0 .49 0 .83-.01 1-.03.34-.12.63-.28.84-.16-.14-.3-.39-.32-.74-.01-.36.05-.74.07-1.12z"/>
  <path class="st23" d="m22 18.3.54.02c0 .49 0 .83-.01 1-.03.34-.12.63-.28.84-.16-.14-.3-.39-.32-.74-.01-.36.05-.74.07-1.12z"/>
  <path class="st33" d="m23.13 17.77.54-.04c.06.49.1.82.1 1 .01.34-.05.64-.18.86-.17-.12-.35-.35-.4-.7-.05-.36-.04-.74-.06-1.12z"/>
  <path class="st35" d="m23.13 17.77.54-.04c.06.49.1.82.1 1 .01.34-.05.64-.18.86-.17-.12-.35-.35-.4-.7-.05-.36-.04-.74-.06-1.12z"/>
  <path class="st33" d="m23.63 17.19.59-.24c.1.4.24 1.71-.01 2.26-.2-.13-.39-.38-.46-.78-.06-.4-.08-.82-.12-1.24z"/>
  <path class="st35" d="m23.63 17.19.59-.24c.1.4.24 1.71-.01 2.26-.2-.13-.39-.38-.46-.78-.06-.4-.08-.82-.12-1.24z"/>
  <path class="st33" d="m24.41 16.54.94.08c.22.54.36 1.02.43 1.45-.44-.08-.75-.29-.87-.68-.15-.52-.42-.76-.5-.85z"/>
  <path class="st14" d="m24.41 16.54.94.08c.22.54.36 1.02.43 1.45-.44-.08-.75-.29-.87-.68-.15-.52-.42-.76-.5-.85h0z"/>
  <path class="st33" d="m21.64 17.88.22-.06c-.35-.22-.63-.48-.97-1-.35-.53.15-1.49.36-1.99.43-.32.83-.78.96-1.4.05-.33-.86-.21-1.49.08-.77.36-.87.26-1.15.32-.1.47.11.51.3.49-.42.68-.6 1.35-.68 2.32-.08-.97-.26-1.64-.68-2.32.2.02.4-.02.3-.49-.27-.06-.38.04-1.15-.32-.63-.3-1.54-.42-1.49-.08.13.61.53 1.08.96 1.4.21.5.71 1.46.36 1.99-.34.52-.63.78-.97 1 .07.03.15.05.22.06-.05.07-.5.21-.55.17-.34-.24-.68-.81-.97-1.14-.82-.93-1.23-1.65-1.09-2.24.21-.63.94-1.33-.03-1.21-.98.12-1.79 1.46-2.05 3.07-.1.6-.15 1.1-.22 1.51.53-.19.77-.38.91-.61-.06.22-.11.43-.14.64.44-.08.75-.29.87-.68.05-.16.1-.29.16-.4.13.05.31.04.52-.01.08.19.68.86 1 1.35.37.56.91.98 1.09 1 .09.01.12-.19.1-.47.95.01 1.91.01 2.84-.02.94.03 1.89.03 2.84.02-.02.28.01.48.1.47.18-.02.73-.45 1.09-1 .32-.49.92-1.16 1-1.35.21.05.39.05.52.01.06.11.12.24.16.4.11.39.43.6.87.68-.03-.2-.08-.41-.14-.64.14.23.38.42.91.61-.07-.41-.12-.91-.22-1.51-.26-1.61-1.07-2.95-2.05-3.07-.98-.12-.24.58-.03 1.21.15.58-.27 1.3-1.09 2.24-.29.33-.62.9-.97 1.14-.03.04-.48-.1-.53-.17z"/>
  <path class="st22" d="m21.64 17.88.22-.06c-.35-.22-.63-.48-.97-1-.35-.53.15-1.49.36-1.99.43-.32.83-.78.96-1.4.05-.33-.86-.21-1.49.08-.77.36-.87.26-1.15.32-.1.47.11.51.3.49-.42.68-.6 1.35-.68 2.32-.08-.97-.26-1.64-.68-2.32.2.02.4-.02.3-.49-.27-.06-.38.04-1.15-.32-.63-.3-1.54-.42-1.49-.08.13.61.53 1.08.96 1.4.21.5.71 1.46.36 1.99-.34.52-.63.78-.97 1 .07.03.15.05.22.06-.05.07-.5.21-.55.17-.34-.24-.68-.81-.97-1.14-.82-.93-1.23-1.65-1.09-2.24.21-.63.94-1.33-.03-1.21-.98.12-1.79 1.46-2.05 3.07-.1.6-.15 1.1-.22 1.51.53-.19.77-.38.91-.61-.06.22-.11.43-.14.64.44-.08.75-.29.87-.68.05-.16.1-.29.16-.4.13.05.31.04.52-.01.08.19.68.86 1 1.35.37.56.91.98 1.09 1 .09.01.12-.19.1-.47.95.01 1.91.01 2.84-.02.94.03 1.89.03 2.84.02-.02.28.01.48.1.47.18-.02.73-.45 1.09-1 .32-.49.92-1.16 1-1.35.21.05.39.05.52.01.06.11.12.24.16.4.11.39.43.6.87.68-.03-.2-.08-.41-.14-.64.14.23.38.42.91.61-.07-.41-.12-.91-.22-1.51-.26-1.61-1.07-2.95-2.05-3.07-.98-.12-.24.58-.03 1.21.15.58-.27 1.3-1.09 2.24-.29.33-.62.9-.97 1.14-.03.04-.48-.1-.53-.17z"/>
  <path class="st13" d="M21.07 15.26c.09.08.4.08.81.11.67.02 1.06-.18 1.14-.61-.25.3-.55.45-.89.36-.46-.11-.72-.2-.83-.17-.06.03-.17.15-.23.31z"/>
  <path class="st43" d="M21.07 15.26c.09.08.4.08.81.11.67.02 1.06-.18 1.14-.61-.25.3-.55.45-.89.36-.46-.11-.72-.2-.83-.17-.06.03-.17.15-.23.31z"/>
  <path class="st13" d="M22.64 13.5c.75.08.71.57.01 1.26-.13.13-.18.13-.21-.01-.05-.24-.32-.38-.46-.2-.1.12-.07.2-.39.15-.4.34-.73.57-.2.55.23-.01.41.13.71.11-.09.17-.11.19-.15.21-.29.06-.6-.12-.89-.07-.65.12 1.03-1.74 1.01-1.81-.06-.18.4-.51.57-.19z"/>
  <path class="st9" d="M22.64 13.5c.75.08.71.57.01 1.26-.13.13-.18.13-.21-.01-.05-.24-.32-.38-.46-.2-.1.12-.07.2-.39.15-.4.34-.73.57-.2.55.23-.01.41.13.71.11-.09.17-.11.19-.15.21-.29.06-.6-.12-.89-.07-.65.12 1.03-1.74 1.01-1.81-.06-.18.4-.51.57-.19z"/>
  <path class="st39" d="M22.62 13.49c-.06.18-.18.34-.36.49"/>
  <path class="st20" d="M22.78 13.85c0-.03-.04-.06-.07-.05-.03 0-.06.03-.05.07 0 .03.04.06.07.05.03-.01.05-.04.05-.07z"/>
  <path class="st16" d="M16.37 13.69c.2-.01.41.08.68.17.08.03.34.13.42.12"/>
  <path class="st7" d="M18.52 14.33c-.22-.04-.34-.06-.44-.09"/>
  <path class="st30" d="M16.53 13.71c.08.15.19.36.36.46.13.07.28-.04.39-.25"/>
  <path class="st20" d="m16.82 14.1-.1-.1c-.05-.06-.02-.14.08-.24.08.03.14.06.2.08-.04.13-.1.22-.18.26z"/>
  <path class="st30" d="M21.86 13.71c-.08.15-.19.36-.36.46-.13.08-.28-.04-.39-.25"/>
  <path class="st20" d="m21.56 14.1.1-.1c.05-.06.02-.14-.08-.24-.08.03-.14.06-.2.08.04.13.1.22.18.26z"/>
  <path class="st16" d="M22.02 13.69c-.2-.01-.41.08-.68.17-.08.03-.34.13-.42.12"/>
  <path class="st7" d="M19.86 14.33c.22-.04.34-.06.44-.09"/>
  <path d="M16.52 17.82c.43.15.81.12 1.1-.17.05-.04.09-.09.13-.13m.06-.26c-.04.29-.11.52-.22.75.3-.08.54-.22.69-.42m.91.56c-.23-.29-.38-.62-.4-.99m-.57.06c.03.29.11.54.24.73.15-.11.29-.29.35-.55m3.05.42c-.43.15-.82.12-1.11-.17-.05-.04-.09-.09-.13-.13m-.05-.26c.04.29.11.52.22.75-.3-.08-.54-.22-.69-.42m.06-.37c-.03.29-.11.54-.24.73a.928.928 0 0 1-.35-.55m-.37.75c.23-.29.38-.62.4-.99" style="fill:none;stroke:#20221d;stroke-width:.0533;stroke-linecap:round;stroke-linejoin:round;stroke-miterlimit:22.926"/>
  <path class="st40" d="M13.62 15.54c-.34.24-.96 2-1.01 2.51-.11 1.19-.11 2.66.25 3.61m11.9-6.12c.34.24.96 2 1.01 2.51.11 1.19.11 2.66-.25 3.61"/>
  <path class="st13" d="M15.75 13.5c-.75.08-.71.57-.01 1.26.13.13.18.13.21-.01.05-.24.32-.38.46-.2.1.12.07.2.39.15.4.34.73.57.2.55-.23-.01-.41.13-.71.11.09.17.11.19.15.21.29.06.6-.12.89-.07.65.12-1.03-1.74-1.01-1.81.06-.18-.4-.51-.57-.19z"/>
  <path class="st26" d="M15.75 13.5c-.75.08-.71.57-.01 1.26.13.13.18.13.21-.01.05-.24.32-.38.46-.2.1.12.07.2.39.15.4.34.73.57.2.55-.23-.01-.41.13-.71.11.09.17.11.19.15.21.29.06.6-.12.89-.07.65.12-1.03-1.74-1.01-1.81.06-.18-.4-.51-.57-.19z"/>
  <path class="st39" d="M15.77 13.49c.06.18.18.34.36.49"/>
  <path class="st20" d="M15.61 13.85c.01-.03.04-.06.07-.05.03 0 .06.03.05.07 0 .03-.04.06-.07.05-.03-.01-.06-.04-.05-.07z"/>
  <path class="st33" d="m16.26 25.29.02-.49c-.2-.1-.68 0-.89.46-.26.57-.5.87-.81 1.13.45.08.82 0 1.07-.33.32-.45.5-.71.61-.77z"/>
  <path class="st38" d="m16.26 25.29.02-.49c-.2-.1-.68 0-.89.46-.26.57-.5.87-.81 1.13.45.08.82 0 1.07-.33.32-.45.5-.71.61-.77z"/>
  <path class="st33" d="m16.62 25.35-.53-.22c-.22.44-.37.74-.43.91-.12.32-.15.62-.1.88.22-.05.47-.21.63-.52.17-.33.28-.7.43-1.05z"/>
  <path class="st18" d="m16.62 25.35-.53-.22c-.22.44-.37.74-.43.91-.12.32-.15.62-.1.88.22-.05.47-.21.63-.52.17-.33.28-.7.43-1.05z"/>
  <path class="st33" d="m16.77 25.35-.57-.09c-.1.49-.17.81-.19.99-.04.34 0 .64.12.88.2-.11.4-.32.49-.66.08-.36.09-.74.15-1.12z"/>
  <path class="st15" d="m16.77 25.35-.57-.09c-.1.49-.17.81-.19.99-.04.34 0 .64.12.88.2-.11.4-.32.49-.66.08-.36.09-.74.15-1.12z"/>
  <path class="st33" d="M16.86 24.58h.34c.2.1.41.55.17.99-.3.54-.4.92-.43 1.32-.33-.31-.49-.66-.37-1.05.15-.54.3-1.14.29-1.26z"/>
  <path class="st0" d="M16.86 24.58h.34c.2.1.41.55.17.99-.3.54-.4.92-.43 1.32-.33-.31-.49-.66-.37-1.05.15-.54.3-1.14.29-1.26z"/>
  <path class="st33" d="m17.01 24.34-.54-.19c-.19.46-.32.76-.38.93-.1.33-.12.63-.05.88.21-.07.48-.21.63-.53.15-.33.21-.73.34-1.09z"/>
  <path class="st8" d="m17.01 24.34-.54-.19c-.19.46-.32.76-.38.93-.1.33-.12.63-.05.88.21-.07.48-.21.63-.53.15-.33.21-.73.34-1.09z"/>
  <path class="st33" d="m16.64 23.96-.12-.74c-.13-.03-.29.26-.45.43-.04.04-.08.08-.11.13-.07.1-.12.22-.15.36-.14.61-.33.92-.58 1.25.45-.01.81-.17.98-.54.22-.51.33-.81.43-.89z"/>
  <path class="st1" d="m16.64 23.96-.12-.74c-.13-.03-.29.26-.45.43-.04.04-.08.08-.11.13-.07.1-.12.22-.15.36-.14.61-.33.92-.58 1.25.45-.01.81-.17.98-.54.22-.51.33-.81.43-.89z"/>
  <path class="st13" d="M22.35 25.53c.14.01.32.09.84.54.23.46.45.93.77 1.33.11.07.19.12.28.15.09.03.74.01.76-.02.2-.18.51-.05.41.14.08.08-.1.36-.24.24-.13-.11-.59-.01-.74-.06.06.14.47.23.76.25.26.01.25.27.14.47-.12.08-.02-.02-.07.04-.12.17-.37.15-.38-.02-.01-.18-.62-.41-.71-.54.11.27.37.52.5.78.14.14.22.17.04.45-.2-.02-.21-.08-.33.04-.27-.03-.32-.11-.27-.33.05-.23-.14-.64-.21-.75-.06-.11-.07-.22-.13-.29-.1-.12-.57-.35-.69-.29-.22.12-.39.05-.42-.17.07-.05.02-.36.17-.37.13-.01.2.03.31.12.18.15.27.23.33.21.14-.04-.26-.23-.62-.71-.48-.66-.52-.99-.5-1.21z"/>
  <path class="st17" d="M22.35 25.53c.14.01.32.09.84.54.23.46.45.93.77 1.33.11.07.19.12.28.15.09.03.74.01.76-.02.2-.18.51-.05.41.14.08.08-.1.36-.24.24-.13-.11-.59-.01-.74-.06.06.14.47.23.76.25.26.01.25.27.14.47-.12.08-.02-.02-.07.04-.12.17-.37.15-.38-.02-.01-.18-.62-.41-.71-.54.11.27.37.52.5.78.14.14.22.17.04.45-.2-.02-.21-.08-.33.04-.27-.03-.32-.11-.27-.33.05-.23-.14-.64-.21-.75-.06-.11-.07-.22-.13-.29-.1-.12-.57-.35-.69-.29-.22.12-.39.05-.42-.17.07-.05.02-.36.17-.37.13-.01.2.03.31.12.18.15.27.23.33.21.14-.04-.26-.23-.62-.71-.48-.66-.52-.99-.5-1.21z"/>
  <path class="st13" d="M25.38 27.78c.18-.11.29-.1.36-.02.04.04.09.02.06-.05-.12-.28-.31-.32-.49-.19-.05.04-.09.08-.13.12.03.05.17.11.2.14z"/>
  <path class="st28" d="M25.38 27.78c.18-.11.29-.1.36-.02.04.04.09.02.06-.05-.12-.28-.31-.32-.49-.19-.05.04-.09.08-.13.12.03.05.17.11.2.14z"/>
  <path class="st13" d="M22.78 27.53c-.19-.13-.37-.16-.47-.08-.05.04-.11.01-.06-.06.2-.28.43-.29.61-.14.05.05.09.1.12.14-.06.07-.19.14-.2.14z"/>
  <path class="st6" d="M22.78 27.53c-.19-.13-.37-.16-.47-.08-.05.04-.11.01-.06-.06.2-.28.43-.29.61-.14.05.05.09.1.12.14-.06.07-.19.14-.2.14z"/>
  <path class="st13" d="M24.3 29.13c.12.23.18.39.13.52-.03.07 0 .14.08.08.3-.26.3-.55.11-.75-.06-.07-.13-.11-.19-.16-.09.07-.14.3-.13.31z"/>
  <path class="st28" d="M24.3 29.13c.12.23.18.39.13.52-.03.07 0 .14.08.08.3-.26.3-.55.11-.75-.06-.07-.13-.11-.19-.16-.09.07-.14.3-.13.31z"/>
  <path class="st13" d="M25.05 28.52c.18.07.24.17.23.29 0 .07.04.09.07.01.22-.51-.01-.6-.34-.58-.02.09.03.28.04.28z"/>
  <path class="st19" d="M25.05 28.52c.18.07.24.17.23.29 0 .07.04.09.07.01.22-.51-.01-.6-.34-.58-.02.09.03.28.04.28z"/>
  <path class="st10" d="M23.51 27.39c.12-.07.12-.14.09-.2-.07-.11-.13-.06-.25.04m.01 0c.12-.07.12-.14.09-.2-.07-.11-.13-.06-.25.04"/>
  <path class="st9" d="M23.19 27.07c.13-.09.14-.19.1-.25-.07-.14-.15-.07-.28.06"/>
  <path class="st2" d="M23 26.87c.14-.1.15-.21.11-.29-.08-.16-.15-.08-.3.06"/>
  <path class="st42" d="M22.81 26.66c.13-.11.17-.21.11-.31-.09-.14-.15-.09-.3.07"/>
  <path class="st33" d="m22.13 25.29-.02-.49c.2-.1.69 0 .89.46.26.57.5.87.81 1.13-.45.08-.82 0-1.07-.33-.33-.45-.5-.71-.61-.77z"/>
  <path class="st38" d="m22.13 25.29-.02-.49c.2-.1.69 0 .89.46.26.57.5.87.81 1.13-.45.08-.82 0-1.07-.33-.33-.45-.5-.71-.61-.77z"/>
  <path class="st33" d="m21.77 25.35.53-.22c.22.44.37.74.43.91.12.32.15.62.1.88a.985.985 0 0 1-.63-.53c-.18-.32-.28-.69-.43-1.04z"/>
  <path class="st18" d="m21.77 25.35.53-.22c.22.44.37.74.43.91.12.32.15.62.1.88a.985.985 0 0 1-.63-.53c-.18-.32-.28-.69-.43-1.04z"/>
  <path class="st33" d="m21.61 25.35.57-.09c.1.48.17.81.19.99.04.34 0 .64-.12.88-.2-.11-.4-.32-.49-.67-.08-.35-.09-.73-.15-1.11z"/>
  <path class="st15" d="m21.61 25.35.57-.09c.1.48.17.81.19.99.04.34 0 .64-.12.88-.2-.11-.4-.32-.49-.67-.08-.35-.09-.73-.15-1.11z"/>
  <path class="st33" d="M21.53 24.58h-.34c-.2.1-.41.55-.17.99.3.54.4.92.43 1.33.33-.31.49-.66.37-1.05-.16-.55-.31-1.15-.29-1.27z"/>
  <path class="st0" d="M21.53 24.58h-.34c-.2.1-.41.55-.17.99.3.54.4.92.43 1.33.33-.31.49-.66.37-1.05-.16-.55-.31-1.15-.29-1.27z"/>
  <path class="st33" d="m21.38 24.34.54-.19c.19.46.32.76.38.93.1.33.12.63.05.88-.21-.07-.48-.21-.63-.53-.16-.33-.21-.73-.34-1.09z"/>
  <path class="st8" d="m21.38 24.34.54-.19c.19.46.32.76.38.93.1.33.12.63.05.88-.21-.07-.48-.21-.63-.53-.16-.33-.21-.73-.34-1.09z"/>
  <path class="st33" d="m21.75 23.96.12-.74c.13-.03.29.26.45.43.04.04.08.08.11.13.07.1.12.22.15.36.14.61.33.92.58 1.25-.45-.01-.81-.17-.98-.54-.22-.51-.34-.81-.43-.89z"/>
  <path class="st1" d="m21.75 23.96.12-.74c.13-.03.29.26.45.43.04.04.08.08.11.13.07.1.12.22.15.36.14.61.33.92.58 1.25-.45-.01-.81-.17-.98-.54-.22-.51-.34-.81-.43-.89z"/>
  <path class="st29" d="M22.22 18.2v4.89c0 .88-.34 1.67-.89 2.25-.55.58-1.3.93-2.14.93-.83 0-1.59-.36-2.14-.93-.55-.58-.89-1.37-.89-2.25V18.2h6.06z"/>
  <path class="st3" d="M22.22 18.2v4.89c0 .88-.34 1.67-.89 2.25-.55.58-1.3.93-2.14.93-.83 0-1.59-.36-2.14-.93-.55-.58-.89-1.37-.89-2.25V18.2h6.06z"/>
  <path class="st33" d="M22.22 21.2v1.26h-2.4v3.74c-.2.05-.41.07-.63.07-.22 0-.43-.02-.63-.07v-3.74h-2.4V21.2h2.4v-3h1.26v3h2.4z"/>
  <path class="st35" d="M22.22 21.2v1.26h-2.4v3.74c-.2.05-.41.07-.63.07-.22 0-.43-.02-.63-.07v-3.74h-2.4V21.2h2.4v-3h1.26v3h2.4z"/>
  <path class="st33" d="M18.15 18.92v1.77c-.39.1-1.33.48-1.38-.34-.02-.38.47-.63.6-.29.06.16-.01.27-.1.31-.1.04-.2-.04-.17-.16-.4.21.36.65.7.08.1-.17-.17-.34-.17-.47 0-.12.26-.31.17-.47-.35-.58-1.1-.13-.7.07-.03-.12.07-.2.17-.16.09.04.16.15.1.31-.13.33-.63.08-.6-.29.06-.84 1-.47 1.38-.36z"/>
  <path d="M18.15 18.92v1.77c-.39.1-1.33.48-1.38-.34-.02-.38.47-.63.6-.29.06.16-.01.27-.1.31-.1.04-.2-.04-.17-.16-.4.21.36.65.7.08.1-.17-.17-.34-.17-.47 0-.12.26-.31.17-.47-.35-.58-1.1-.13-.7.07-.03-.12.07-.2.17-.16.09.04.16.15.1.31-.13.33-.63.08-.6-.29.06-.84 1-.47 1.38-.36z" style="fill:none;stroke:#20221d;stroke-width:.0541;stroke-linejoin:round;stroke-miterlimit:22.926"/>
  <path class="st33" d="M20.23 18.92v1.77c.39.1 1.33.48 1.38-.34.02-.38-.47-.63-.6-.29-.06.16.01.27.1.31.1.04.2-.04.17-.16.4.21-.36.65-.7.08-.1-.17.17-.34.17-.47 0-.12-.26-.31-.17-.47.35-.58 1.1-.13.7.07.03-.12-.07-.2-.17-.16-.09.04-.16.15-.1.31.13.33.63.08.6-.29-.05-.84-.99-.47-1.38-.36z"/>
  <path class="st26" d="M20.23 18.92v1.77c.39.1 1.33.48 1.38-.34.02-.38-.47-.63-.6-.29-.06.16.01.27.1.31.1.04.2-.04.17-.16.4.21-.36.65-.7.08-.1-.17.17-.34.17-.47 0-.12-.26-.31-.17-.47.35-.58 1.1-.13.7.07.03-.12-.07-.2-.17-.16-.09.04-.16.15-.1.31.13.33.63.08.6-.29-.05-.84-.99-.47-1.38-.36z"/>
  <path class="st33" d="M18.15 24.75v-1.77c-.39-.1-1.33-.48-1.38.34-.02.38.47.63.6.29.06-.16-.01-.27-.1-.31-.1-.04-.2.04-.17.16-.4-.21.36-.65.7-.08.1.17-.17.34-.17.47 0 .12.26.31.17.47-.35.58-1.1.13-.7-.08-.03.12.07.2.17.16.09-.04.16-.15.1-.31-.13-.34-.63-.08-.6.29.06.85 1 .48 1.38.37z"/>
  <path class="st26" d="M18.15 24.75v-1.77c-.39-.1-1.33-.48-1.38.34-.02.38.47.63.6.29.06-.16-.01-.27-.1-.31-.1-.04-.2.04-.17.16-.4-.21.36-.65.7-.08.1.17-.17.34-.17.47 0 .12.26.31.17.47-.35.58-1.1.13-.7-.08-.03.12.07.2.17.16.09-.04.16-.15.1-.31-.13-.34-.63-.08-.6.29.06.85 1 .48 1.38.37z"/>
  <path class="st33" d="M20.23 24.75v-1.77c.39-.1 1.33-.48 1.38.34.02.38-.47.63-.6.29-.06-.16.01-.27.1-.31.1-.04.2.04.17.16.4-.21-.36-.65-.7-.08-.1.17.17.34.17.47 0 .12-.26.31-.17.47.35.58 1.1.13.7-.08.03.12-.07.2-.17.16-.09-.04-.16-.15-.1-.31.13-.34.63-.08.6.29-.05.85-.99.48-1.38.37z"/>
  <path class="st26" d="M20.23 24.75v-1.77c.39-.1 1.33-.48 1.38.34.02.38-.47.63-.6.29-.06-.16.01-.27.1-.31.1-.04.2.04.17.16.4-.21-.36-.65-.7-.08-.1.17.17.34.17.47 0 .12-.26.31-.17.47.35.58 1.1.13.7-.08.03.12-.07.2-.17.16-.09-.04-.16-.15-.1-.31.13-.34.63-.08.6.29-.05.85-.99.48-1.38.37z"/>
  <path class="st3" d="M22.22 18.2v4.89c0 .88-.34 1.67-.89 2.25-.55.58-1.3.93-2.14.93-.83 0-1.59-.36-2.14-.93-.55-.58-.89-1.37-.89-2.25V18.2h6.06z"/>
  <path d="M3.27.24H52.4c1.67 0 3.03 1.36 3.03 3.03V35.6a3.04 3.04 0 0 1-3.03 3.03H3.27A3.04 3.04 0 0 1 .24 35.6V3.27C.24 1.6 1.6.24 3.27.24z" style="fill:none;stroke:#ccc;stroke-width:.4799;stroke-miterlimit:22.9256"/>
</svg>
