<svg xmlns="http://www.w3.org/2000/svg" version="1.1" id="Layer_1" x="0" y="0" viewBox="0 0 55.2 38.4" style="enable-background:new 0 0 55.2 38.4" xml:space="preserve">
  <style>
    .st3{fill:#e5be01}
  </style>
  <path d="M3.01 0h49.17c1.66.01 3.01 1.37 3.01 3.03v32.33c0 1.67-1.36 3.03-3.03 3.03H3.01C1.35 38.39 0 37.03 0 35.37V3.03C0 1.37 1.35.01 3.01 0z" style="fill:#20603d"/>
  <path d="M3.01 0h49.17c1.66.01 3.01 1.37 3.01 3.03V28.8H0V3.03C0 1.37 1.35.01 3.01 0z" style="fill:#fad201"/>
  <path d="M3.01 0h49.17c1.66.01 3.01 1.37 3.01 3.03V19.2H0V3.03C0 1.37 1.35.01 3.01 0z" style="fill:#00a1de"/>
  <path class="st3" d="m52.27 10.03-4.29.25 4.08 1.35-4.21-.86 3.59 2.36-3.84-1.93 2.86 3.21-3.21-2.85 1.93 3.83-2.37-3.58.87 4.2-1.35-4.07-.25 4.28-.05-6.24 6.24.05z"/>
  <path class="st3" d="m52.27 10.03-4.29-.25 4.08-1.35-4.21.87 3.59-2.36-3.84 1.92 2.86-3.21-3.21 2.86 1.93-3.84-2.37 3.59.87-4.21-1.35 4.08-.25-4.29-.05 6.25 6.24-.06z"/>
  <path class="st3" d="m39.89 10.03 4.29.25-4.08 1.35 4.21-.86-3.59 2.36 3.84-1.93-2.86 3.21 3.21-2.85-1.93 3.83 2.36-3.58-.86 4.2 1.35-4.07.25 4.28.05-6.24-6.24.05z"/>
  <path class="st3" d="m39.89 10.03 4.29-.25-4.08-1.35 4.21.87-3.59-2.36 3.84 1.92-2.86-3.21 3.21 2.86-1.93-3.84 2.36 3.59-.86-4.21 1.35 4.08.25-4.29.05 6.25-6.24-.06z"/>
  <path d="M47.91 10.03a1.83 1.83 0 1 0-3.662.002 1.83 1.83 0 0 0 3.662-.002z" style="fill:#e5be01;stroke:#00a1de;stroke-width:.3869;stroke-miterlimit:2.6131"/>
</svg>
