<svg xmlns="http://www.w3.org/2000/svg" version="1.1" id="Layer_1" x="0" y="0" viewBox="0 0 55.32 38.52" style="enable-background:new 0 0 55.32 38.52" xml:space="preserve">
  <style>
    .st0{fill:#ed2939}.st1{fill:#fff}
  </style>
  <path class="st0" d="M.06 19.26h55.2V3.09c0-1.66-1.35-3.02-3.01-3.03H3.07A3.037 3.037 0 0 0 .06 3.09v16.17z"/>
  <path class="st1" d="M3.07 38.46h49.17a3.037 3.037 0 0 0 3.01-3.03V19.26H.06v16.17c0 1.66 1.35 3.02 3.01 3.03zm15.55-28.8c0 3.99-3.23 7.22-7.22 7.22-3.99 0-7.22-3.23-7.22-7.22 0-3.99 3.23-7.22 7.22-7.22 3.98 0 7.22 3.23 7.22 7.22z"/>
  <path class="st0" d="M20.88 9.66c0 3.77-3.06 6.82-6.82 6.82-3.77 0-6.82-3.06-6.82-6.82 0-3.77 3.06-6.82 6.82-6.82 3.77 0 6.82 3.05 6.82 6.82z"/>
  <path class="st1" d="m12.29 9.83-.98-.75-.98.75.38-1.21-.99-.75 1.22.01.37-1.22.37 1.22 1.21-.01-.98.75.38 1.21zm7.69 0L19 9.08l-.98.75.38-1.21-.98-.75 1.21.01.37-1.22.38 1.22 1.21-.01-.98.75.37 1.21zm-3.84-2.85-.98-.75-.98.75.38-1.21-.99-.75h1.22l.37-1.21.37 1.21h1.22l-.99.74.38 1.22zm-2.41 7.42-.98-.75-.98.75.38-1.21-.99-.75 1.22.01.37-1.22.37 1.22 1.21-.01-.98.75.38 1.21zm4.81 0-.98-.75-.98.75.38-1.21-.98-.75 1.21.01.37-1.22.38 1.22 1.21-.01-.98.75.37 1.21z"/>
  <path d="M3.09.06h49.13c1.67 0 3.03 1.36 3.03 3.03v32.33c0 1.67-1.36 3.03-3.03 3.03H3.09a3.04 3.04 0 0 1-3.03-3.03V3.09C.06 1.42 1.42.06 3.09.06z" style="fill:none;stroke:#ccc;stroke-width:.1199;stroke-miterlimit:2.6131"/>
</svg>
