<svg xmlns="http://www.w3.org/2000/svg" data-name="Layer 1" viewBox="0 0 123.36 85.96">
  <path d="M7 .24h109.37A6.77 6.77 0 0 1 123.12 7v72a6.77 6.77 0 0 1-6.75 6.75H7A6.77 6.77 0 0 1 .24 79V7A6.77 6.77 0 0 1 7 .24Z" style="fill:red"/>
  <path d="M123.12 57.49H.24V7A6.77 6.77 0 0 1 7 .24h109.37A6.77 6.77 0 0 1 123.12 7v50.5Z" style="fill:#005ce5"/>
  <path d="M123.12 28.47H.24V7A6.77 6.77 0 0 1 7 .24h109.37A6.77 6.77 0 0 1 123.12 7v21.47Z" style="fill:#fff"/>
  <path d="M18.14 14.72h-.58A25.57 25.57 0 0 0 7.73 17l-.8.34.86 13.56a14.28 14.28 0 0 0 10.36 12.84A14.29 14.29 0 0 0 28.5 30.9l.86-13.52a8.49 8.49 0 0 0-.8-.39 25.43 25.43 0 0 0-10.41-2.26Z" style="fill-rule:evenodd;fill:#005ce5"/>
  <path d="m18.15 24.1-2.54 4.95L14 26.92l-4.3 5.66c.07.35.16.69.26 1a3.22 3.22 0 0 0 2.58 1.73c.93 0 1.87-.75 2.8-.75s1.87.75 2.81.75 1.87-.75 2.8-.75 1.87.75 2.81.75a3.21 3.21 0 0 0 2.56-1.71q.15-.51.27-1l-4.27-5.65-1.64 2.13-2.53-4.98Zm-2.81 11.23c-.93 0-1.87.75-2.8.75a3.1 3.1 0 0 1-1.87-.64 12 12 0 0 0 .56 1.07 2.47 2.47 0 0 0 1.31.4c.93 0 1.87-.75 2.8-.75s1.87.75 2.81.75 1.87-.75 2.8-.75 1.87.75 2.81.75a2.48 2.48 0 0 0 1.29-.39c.2-.34.38-.7.56-1.06a3.11 3.11 0 0 1-1.85.62c-.94 0-1.87-.75-2.81-.75s-1.87.75-2.8.75-1.87-.75-2.81-.75Zm0 1.58c-.93 0-1.87.75-2.8.75a2.88 2.88 0 0 1-.54-.06 13.05 13.05 0 0 0 6.15 4.4 13 13 0 0 0 6.18-4.44 2.62 2.62 0 0 1-.57.06c-.94 0-1.87-.75-2.81-.75s-1.87.75-2.8.75-1.87-.75-2.81-.75Z" style="fill-rule:evenodd;fill:#fff"/>
  <path d="m13.93 17.75.35-.61-.35-.61h.71l.35-.61.35.61h.71l-.35.61.35.61h-.71l-.35.62-.35-.62ZM17.08 22l.36-.62-.36-.61h.71l.35-.61.36.61h.7l-.35.61.35.62h-.7l-.36.61-.35-.61Zm0-1.23Zm0 1.23Zm3.16-4.24.36-.61-.36-.61H21l.36-.61.35.61h.71l-.36.61.36.61h-.71l-.35.62-.36-.63Zm0-1.22Zm0 1.22Zm-6.31-1.22Zm0 1.22Z" style="fill:#ffe500;fill-rule:evenodd"/>
  <path d="M18.14 14.72ZM7.73 17l-.8.34.86 13.56a14.28 14.28 0 0 0 10.36 12.84A14.29 14.29 0 0 0 28.5 30.9l.86-13.52a8.49 8.49 0 0 0-.8-.39l-.8 13.46a13.75 13.75 0 0 1-9.61 12.48 13.75 13.75 0 0 1-9.62-12.48L7.73 17Z" style="fill-rule:evenodd;fill:red"/>
  <path d="M7 .24h109.37A6.77 6.77 0 0 1 123.12 7v72a6.77 6.77 0 0 1-6.75 6.75H7A6.77 6.77 0 0 1 .24 79V7A6.77 6.77 0 0 1 7 .24Z" style="fill:none;stroke:#ccc;stroke-miterlimit:22.93;stroke-width:.48px"/>
</svg>
