<svg xmlns="http://www.w3.org/2000/svg" version="1.1" id="Layer_1" x="0" y="0" viewBox="0 0 55.2 38.4" style="enable-background:new 0 0 55.2 38.4" xml:space="preserve">
  <style>
    .st0{fill:#00853f}
  </style>
  <path class="st0" d="M3.01 0H18v38.4H3.02A3.045 3.045 0 0 1 0 35.37V3.03C0 1.37 1.35.01 3.01 0z"/>
  <path style="fill:#fdef42" d="M18 0h19.2v38.4H18V0z"/>
  <path d="M37.2 0h14.99c1.66.01 3.01 1.37 3.01 3.03v32.33c0 1.67-1.36 3.03-3.03 3.03H37.2V0z" style="fill:#e31b23"/>
  <path class="st0" d="m27.6 12.8-1.98 6.09 3.05.99-1.07-7.08z"/>
  <path class="st0" d="m27.6 12.8 1.98 6.09-3.05.99 1.07-7.08z"/>
  <path class="st0" d="M33.69 17.22h-6.4v3.2l6.4-3.2z"/>
  <path class="st0" d="m33.69 17.22-5.18 3.76-1.88-2.58 7.06-1.18z"/>
  <path class="st0" d="m31.36 24.38-1.98-6.09-3.04.99 5.02 5.1z"/>
  <path class="st0" d="m31.36 24.38-5.18-3.76 1.88-2.59 3.3 6.35z"/>
  <path class="st0" d="m23.84 24.38 5.18-3.76-1.89-2.59-3.29 6.35z"/>
  <path class="st0" d="m23.84 24.38 1.98-6.09 3.04.99-5.02 5.1z"/>
  <path class="st0" d="m21.51 17.22 5.18 3.76 1.88-2.58-7.06-1.18z"/>
  <path class="st0" d="M21.51 17.22h6.4v3.2l-6.4-3.2z"/>
</svg>
