<svg xmlns="http://www.w3.org/2000/svg" version="1.1" id="Layer_1" x="0" y="0" viewBox="0 0 55.2 38.4" style="enable-background:new 0 0 55.2 38.4" xml:space="preserve">
  <style>
    .st1{fill:#fff}
  </style>
  <path d="M3.01 0h49.17c1.66.01 3.01 1.37 3.01 3.03v32.33c0 1.67-1.36 3.03-3.03 3.03H3.01C1.35 38.39 0 37.03 0 35.37V3.03C0 1.37 1.35.01 3.01 0z" style="fill:#4189dd"/>
  <path class="st1" d="m27.6 9.96-2.86 8.79 4.4 1.43L27.6 9.96z"/>
  <path class="st1" d="m27.6 9.96 2.86 8.79-4.4 1.43L27.6 9.96z"/>
  <path class="st1" d="M36.39 16.34h-9.24v4.63l9.24-4.63z"/>
  <path class="st1" d="m36.39 16.34-7.48 5.44-2.71-3.74 10.19-1.7z"/>
  <path class="st1" d="m18.81 16.34 7.48 5.44L29 18.04l-10.19-1.7z"/>
  <path class="st1" d="M18.81 16.34h9.24v4.63l-9.24-4.63z"/>
  <path class="st1" d="m33.03 26.68-2.85-8.79-4.4 1.43 7.25 7.36z"/>
  <path class="st1" d="m33.03 26.68-7.48-5.43 2.72-3.74 4.76 9.17z"/>
  <path class="st1" d="m22.17 26.68 7.47-5.43-2.71-3.74-4.76 9.17z"/>
  <path class="st1" d="m22.17 26.68 2.85-8.79 4.4 1.43-7.25 7.36z"/>
</svg>
