<svg xmlns="http://www.w3.org/2000/svg" viewBox="0 0 55.68 38.88" style="enable-background:new 0 0 55.68 38.88" xml:space="preserve">
  <path d="M3.27.24H52.4c1.67 0 3.03 1.36 3.03 3.03V35.6a3.04 3.04 0 0 1-3.03 3.03H3.27A3.04 3.04 0 0 1 .24 35.6V3.27C.24 1.6 1.6.24 3.27.24z" style="fill:#a51931"/>
  <path style="fill:#f4f5f8" d="M.24 5.59h55.2v27.7H.24V5.59z"/>
  <path style="fill:#2d2a4a" d="M.24 12.52h55.2v13.84H.24V12.52z"/>
  <path d="M3.27.24H52.4c1.67 0 3.03 1.36 3.03 3.03V35.6a3.04 3.04 0 0 1-3.03 3.03H3.27A3.04 3.04 0 0 1 .24 35.6V3.27C.24 1.6 1.6.24 3.27.24z" style="fill:none;stroke:#ccc;stroke-width:.4799;stroke-miterlimit:22.9256"/>
</svg>
