<!-- XW — [Worldwide]  https://www.flagofplanetearth.com/ — I think this is really awesome! -->
<svg width="566.92" height="377.947" viewBox="0 0 566.92 377.947" xmlns="http://www.w3.org/2000/svg">
  <path d="M4251.86 0H0v2834.6h4251.86V0" style="fill:#003da6;fill-opacity:1;fill-rule:nonzero;stroke:none" transform="matrix(.13333 0 0 -.13333 0 377.947)"/>
  <path d="M2969.01 1855.05c-.41-23.95-2.29-47.49-5.48-70.65 102.24-89.44 167.06-220.76 167.06-367s-64.76-277.51-166.99-366.98c3.23-23.14 5-46.73 5.44-70.709 133.36 99.669 219.85 258.749 219.85 437.689 0 178.9-86.49 338-219.88 437.65m-1202.12 23.7c18.54 14.47 38.08 27.8 58.31 39.98-66.34 28.71-139.44 44.73-216.18 44.73-65.1 0-127.56-11.49-185.46-32.49a444.593 444.593 0 0 1-4.98-64.57c58.54 24.94 122.89 38.73 190.44 38.73 55.25 0 108.33-9.38 157.87-26.38m139.01 80.5c23.53 119.68 90.9 223.87 184.76 294.89a447.32 447.32 0 0 1-58.09 28.07c-103.45-87.37-174.09-212.37-190.56-353.71 20.56 11.5 41.89 21.8 63.89 30.75m578.85-80.59c49.61 17.09 102.74 26.47 158.07 26.47 67.49 0 131.88-13.79 190.37-38.7a445.5 445.5 0 0 1-4.92 64.54c-57.93 21-120.35 32.49-185.45 32.49-76.8 0-149.9-16.03-216.3-44.78a579.906 579.906 0 0 0 58.23-40.02m158.07-949.019c-67.55 0-131.9 13.828-190.46 38.757-.05-20.75-1.23-41.199-3.4-61.359 60.28-23 125.6-35.68 193.86-35.68 65.06 0 127.49 11.45 185.41 32.422 3.11 21.117 4.91 42.66 4.96 64.578-58.52-24.918-122.88-38.718-190.37-38.718m-843.38 38.75c-58.54-24.95-122.91-38.75-190.42-38.75-268.97 0-487.77 218.839-487.77 487.759 0 146.21 64.78 277.47 166.98 366.96a580.671 580.671 0 0 0-5.52 70.62c-133.32-99.67-219.75-258.72-219.75-437.58 0-301.1 244.95-546.041 546.06-546.041 68.26 0 133.58 12.68 193.87 35.68a580.587 580.587 0 0 0-3.45 61.352m136.08 0c.04-21.95 1.86-43.493 5-64.563 57.91-21 120.34-32.469 185.39-32.469 65.11 0 127.56 11.469 185.51 32.469 3.11 21.07 4.82 42.613 4.88 64.531-58.54-24.918-122.87-38.718-190.39-38.718-67.51 0-131.87 13.8-190.39 38.75" style="fill:#fff;fill-opacity:1;fill-rule:nonzero;stroke:none" transform="matrix(.13333 0 0 -.13333 0 377.947)"/>
  <path d="M2125.91 1963.46c-301.08 0-546.04-244.96-546.04-546.06 0-178.94 86.46-338.01 219.83-437.63.38 23.92 2.29 47.47 5.53 70.61-102.27 89.44-167.07 220.77-167.07 367.02 0 268.93 218.81 487.73 487.75 487.73 268.92 0 487.75-218.8 487.75-487.73 0-146.19-64.72-277.46-166.91-366.92 3.24-23.17 4.98-46.77 5.41-70.71 133.34 99.62 219.81 258.69 219.81 437.63 0 301.1-244.95 546.06-546.06 546.06m-579.11-626.81a585.144 585.144 0 0 0-5.51 70.41c-108.72-81.35-186.3-202.11-211.19-341.01 16.83-13.4 34.72-25.56 53.44-36.45 15.03 121.88 75.24 229.99 163.26 307.05" style="fill:#fff;fill-opacity:1;fill-rule:nonzero;stroke:none" transform="matrix(.13333 0 0 -.13333 0 377.947)"/>
  <path d="M1546.69 1498.02c-102.24 89.5-166.99 220.79-166.99 367.01 0 268.95 218.78 487.73 487.73 487.73 236.74 0 434.52-169.51 478.56-393.55 21.94-8.97 43.17-19.27 63.7-30.73-31.55 271.29-262.61 482.61-542.26 482.61-301.1 0-546.05-244.96-546.05-546.06 0-178.92 86.48-338.05 219.87-437.67.41 23.95 2.24 47.53 5.44 70.66m349.9-528.45c0 268.95 218.82 487.76 487.76 487.76 67.52 0 131.89-13.81 190.42-38.73-.07 21.92-1.71 43.47-4.83 64.53-57.98 21.02-120.44 32.51-185.59 32.51-301.1 0-546.05-244.96-546.05-546.07 0-167.152 75.57-316.922 194.27-417.148a443.122 443.122 0 0 1 58.12 28.008c-117.78 89.101-194.1 230.379-194.1 389.14m814.01 437.64c-.43-23.96-2.24-47.55-5.48-70.68 102.24-89.49 166.95-220.76 166.95-366.96 0-268.929-218.78-487.73-487.72-487.73-55.3 0-108.45 9.351-158 26.398a588.613 588.613 0 0 0-58.13-40.039c66.33-28.699 139.37-44.687 216.13-44.687 301.08 0 546.06 244.976 546.06 546.058 0 178.91-86.47 338-219.81 437.64" style="fill:#fff;fill-opacity:1;fill-rule:nonzero;stroke:none" transform="matrix(.13333 0 0 -.13333 0 377.947)"/>
  <path d="M2384.35 2411.09c-76.79 0-149.87-16.02-216.24-44.73a588.356 588.356 0 0 0 58.2-40.01c49.58 17.06 102.73 26.41 158.04 26.41 268.94 0 487.72-218.78 487.72-487.73 0-146.18-64.71-277.49-166.95-366.94 3.24-23.16 5.12-46.7 5.54-70.64 133.28 99.65 219.75 258.69 219.75 437.58 0 301.1-244.98 546.06-546.06 546.06m-71.24-861.02c45.4 64.13 77.35 138.37 91.7 218.63-16.82 13.43-34.72 25.57-53.44 36.49-12.88-104.99-59.28-199.78-128.11-273.28 29.11 8.35 59.11 14.45 89.85 18.16m-395.57-228.8c18.5 24.5 38.93 47.5 61 68.82-35.7-8.34-72.88-12.78-111.11-12.78-67.49 0-131.84 13.77-190.34 38.65.08-21.94 1.81-43.45 4.97-64.55 57.88-20.94 120.31-32.44 185.37-32.44 16.89 0 33.61.77 50.11 2.3m107.93 109.65a585.443 585.443 0 0 0 58.15 40c-66.33 28.73-139.4 44.72-216.17 44.72-65.13 0-127.54-11.53-185.48-32.54-3.12-21.13-4.86-42.64-4.88-64.59 58.5 24.91 122.82 38.82 190.36 38.82 55.3 0 108.41-9.38 158.02-26.41m193.82-44.16c-20.17-8.03-39.58-17.33-58.18-28.03 117.81-89.14 194.08-230.41 194.08-389.16 0-268.929-218.82-487.73-487.74-487.73-236.85 0-434.73 169.711-478.6 393.91-21.93 8.941-43.17 19.211-63.69 30.641 31.45-271.43 262.57-482.879 542.29-482.879 301.09 0 546.06 244.976 546.06 546.058 0 167.19-75.56 316.91-194.22 417.19m-190.46 145.07c-68.94 73.52-115.52 168.27-128.43 273.36a449.512 449.512 0 0 1-53.41-36.56c14.36-80.29 46.41-154.47 91.85-218.56 30.78-3.73 60.87-9.84 89.99-18.24m355.52-154.52c-38.13 0-75.25 4.47-110.9 12.81a592.52 592.52 0 0 0 60.91-68.72c16.49-1.55 33.11-2.43 49.99-2.43 65.04 0 127.47 11.5 185.4 32.44 3.14 21.12 4.93 42.66 4.99 64.59-58.53-24.92-122.87-38.69-190.39-38.69" style="fill:#fff;fill-opacity:1;fill-rule:nonzero;stroke:none" transform="matrix(.13333 0 0 -.13333 0 377.947)"/>
  <path d="M2169.32 1301.26c-13.66 12.47-28.11 24.08-43.23 34.81-7-4.99-13.98-10.05-20.67-15.38 24.83-138.61 102.19-259.25 210.64-340.518-.68 29.128-4.14 57.588-10.21 85.078-65.93 63.13-114.09 144.57-136.53 236.01m-43.14 192.79c12.47 6.22 25.16 12.14 38.17 17.47 23.54 119.73 90.89 223.95 184.79 295-18.57 10.71-38.01 20.04-58.12 28.02-97.62-82.44-165.99-198.42-187.2-329.98 7.53-3.35 14.99-6.85 22.36-10.51m-50.77-218.7c-24.7-80.87-69.79-153-129.41-210.1-6.04-27.49-9.53-55.94-10.22-85.07 72.25 54.12 130.5 125.8 168.82 208.5a581.114 581.114 0 0 0-29.19 86.67m29.21 370.85c-33.78 72.89-83.16 137.12-143.87 188.39-20.1-7.98-39.5-17.36-58.06-28.07 81.17-61.4 142.45-147.64 172.77-247.26 7.49 29.99 17.24 59.02 29.16 86.94" style="fill:#fff;fill-opacity:1;fill-rule:nonzero;stroke:none" transform="matrix(.13333 0 0 -.13333 0 377.947)"/>
</svg>
